<?xml version="1.0" encoding="UTF-8" standalone="no"?>
<svg
   xmlns:dc="http://purl.org/dc/elements/1.1/"
   xmlns:cc="http://creativecommons.org/ns#"
   xmlns:rdf="http://www.w3.org/1999/02/22-rdf-syntax-ns#"
   xmlns:svg="http://www.w3.org/2000/svg"
   xmlns="http://www.w3.org/2000/svg"
   viewBox="0 0 666.66669 666.66669"
   height="666.66669"
   width="666.66669"
   xml:space="preserve"
   id="svg2"
   version="1.1"><metadata
     id="metadata8"><rdf:RDF><cc:Work
         rdf:about=""><dc:format>image/svg+xml</dc:format><dc:type
           rdf:resource="http://purl.org/dc/dcmitype/StillImage" /></cc:Work></rdf:RDF></metadata><defs
     id="defs6"><clipPath
       id="clipPath20"
       clipPathUnits="userSpaceOnUse"><path
         id="path18"
         d="M 0,500 H 500 V 0 H 0 Z" /></clipPath></defs><g
     transform="matrix(1.3333333,0,0,-1.3333333,0,666.66667)"
     id="g10"><path
       id="path12"
       style="fill:#ffffff;fill-opacity:1;fill-rule:nonzero;stroke:none"
       d="M 0,0 H 500 V 500 H 0 Z" /><g
       id="g14"><g
         clip-path="url(#clipPath20)"
         id="g16"><g
           transform="translate(200.5934,182.4173)"
           id="g22"><path
             id="path24"
             style="fill:#b8a8b2;fill-opacity:1;fill-rule:nonzero;stroke:none"
             d="m 0,0 c -5.63,-13.701 -2.983,-29.402 1.748,-43.439 4.731,-14.036 11.475,-27.499 14.072,-42.082 2.342,-13.149 1.364,-27.298 7.641,-39.087 4.982,-9.358 13.871,-15.891 22.467,-22.097 8.369,-6.041 16.738,-12.083 25.107,-18.124 2.866,-2.069 7.038,-4.087 9.576,-1.628 0.933,0.904 1.339,2.213 1.615,3.482 3.428,15.785 -7.886,30.623 -11.811,46.291 -5.621,22.441 4.174,46.488 -0.898,69.059 C 65.929,-31.657 55.339,-18.314 45.054,-5.583 39.479,1.317 33.57,8.475 25.406,11.945 17.243,15.416 5.734,13.952 0,0" /></g><g
           transform="translate(237.8663,341.2569)"
           id="g26"><path
             id="path28"
             style="fill:#efab64;fill-opacity:1;fill-rule:nonzero;stroke:none"
             d="m 0,0 c -8.108,-8.43 -13.883,-21.607 -7.86,-31.633 8.548,-14.229 31.782,-9.659 43.911,-20.992 2.657,-2.482 4.703,-5.684 7.829,-7.541 6.174,-3.668 14.563,-0.609 19.183,4.889 4.621,5.498 6.404,12.767 8.092,19.747 1.688,6.98 3.566,14.245 8.313,19.634 7.41,8.414 20.295,10.533 27.25,19.327 2.294,2.9 3.829,6.718 2.902,10.298 -0.944,3.642 -4.183,6.224 -7.517,7.968 C 86.714,29.747 68.461,23.338 51.819,18.37 23.804,10.005 9.872,8.871 0,0" /></g><g
           transform="translate(282.0578,322.2766)"
           id="g30"><path
             id="path32"
             style="fill:#000000;fill-opacity:1;fill-rule:nonzero;stroke:none"
             d="M 0,0 C 0.002,0.015 0.004,0.029 0.006,0.044 0.004,0.035 0.002,0.018 -0.001,-0.003 0,-0.002 0,-0.001 0,0" /></g><g
           transform="translate(250.2886,294.271)"
           id="g34"><path
             id="path36"
             style="fill:#000000;fill-opacity:1;fill-rule:nonzero;stroke:none"
             d="M 0,0 C -0.002,-0.006 -0.005,-0.012 -0.006,-0.017 -0.005,-0.012 -0.002,-0.005 0,0.001 0,0.001 0,0 0,0" /></g><g
           transform="translate(365.5366,422.6821)"
           id="g38"><path
             id="path40"
             style="fill:#000000;fill-opacity:1;fill-rule:nonzero;stroke:none"
             d="m 0,0 c -0.437,-3.107 -1.867,-6.709 -3.327,-9.66 0.054,1.574 0.097,3.15 0.199,4.718 0.145,3.213 1.32,6.988 2.702,7.674 C 0.274,2.554 0.102,1 0,0 m -14.877,-26.235 c -0.609,-1.555 -1.405,-3.113 -2.467,-4.813 -0.946,-1.522 -1.863,-3.102 -2.876,-4.169 -0.693,-0.666 -1.375,-1.275 -1.818,-1.325 -0.009,0.009 -0.018,0.017 -0.027,0.026 -0.024,0.037 -0.052,0.083 -0.072,0.122 -0.348,0.677 -0.004,1.832 0.733,3.089 1.477,2.583 4.036,4.8 6.446,6.996 0.027,0.024 0.054,0.049 0.081,0.074 m -112.388,-74.324 c 0.066,-0.017 0.132,-0.033 0.198,-0.05 0.216,-0.143 0.431,-0.287 0.647,-0.43 0.013,-0.009 0.022,-0.016 0.03,-0.022 0.497,-0.387 0.608,-0.647 0.618,-0.792 0.006,-0.06 0.005,-0.121 0,-0.181 -0.004,-0.021 -0.009,-0.045 -0.016,-0.07 -0.006,-0.002 -0.016,-0.005 -0.032,-0.011 -0.017,-0.001 -0.033,-0.002 -0.049,-0.001 -0.017,0.003 -0.035,0.007 -0.053,0.011 -0.037,0.009 -0.068,0.019 -0.087,0.026 -0.13,0.066 -0.339,0.21 -0.305,0.188 -0.083,0.051 -0.337,0.336 -0.418,0.427 -0.248,0.364 -0.429,0.638 -0.533,0.905 m 10.923,-184.343 c -0.029,-0.02 -0.061,-0.039 -0.092,-0.056 -0.376,0.551 -0.469,2.785 -0.546,4.144 -0.12,5.514 -0.291,11.03 -0.291,16.546 0.034,0.809 -0.023,1.435 0.211,1.864 0.127,-0.126 0.084,-0.049 0.255,-0.321 0.066,-0.101 0.122,-0.208 0.17,-0.32 0.228,-0.551 0.326,-1.143 0.413,-1.731 0.627,-5.012 0.337,-10.086 0.916,-15.105 0.086,-0.88 0.185,-1.757 0.29,-2.635 -0.082,-0.184 -0.163,-0.369 -0.246,-0.553 -0.281,-0.627 -0.674,-1.496 -0.947,-1.715 -0.022,-0.04 -0.073,-0.08 -0.107,-0.103 0.02,0.015 0.037,0.028 0.046,0.04 -0.079,-0.052 -0.09,-0.064 -0.072,-0.055 m 35.311,59.04 c 0.152,1.587 0.33,3.124 0.531,4.518 0.71,4.607 1.146,4.288 1.167,4.252 0.329,-0.525 0.166,-1.204 0.042,-1.97 -0.208,-1.3 -0.615,-2.554 -0.952,-3.823 -0.284,-0.987 -0.545,-1.98 -0.788,-2.977 m -37.057,118.982 c -0.222,0.201 -0.448,0.396 -0.672,0.588 -0.741,0.598 -1.58,1.437 -1.941,2.014 0.765,-0.72 1.472,-1.502 2.236,-2.225 0.132,-0.132 0.256,-0.256 0.377,-0.377 m 41.31,26.62 c -1.065,-0.848 -2.28,-1.746 -3.602,-2.54 -0.445,-0.28 -1.643,-0.836 -1.723,-0.861 -0.393,-0.157 -0.623,-0.261 -0.859,-0.268 -0.004,0.004 -0.008,0.008 -0.012,0.012 -0.002,0.003 -0.003,0.006 -0.005,0.008 0.063,0.181 0.123,0.334 0.35,0.651 0.622,0.652 0.974,0.906 1.688,1.342 1.282,0.738 2.666,1.241 4.163,1.656 m 67.283,51.206 c -1.992,-3.827 -4.071,-7.562 -6.824,-10.446 -1.145,-1.232 -2.424,-2.325 -3.712,-3.404 -1.332,-1.114 -2.09,-1.787 -3.506,-2.757 -6.903,-4.435 -14.54,-7.53 -21.987,-10.911 -5.201,-2.401 -9.07,-4.5 -14.454,-6.065 -6.259,-1.545 -12.785,-2.486 -18.514,-5.62 -2.491,-1.262 -4.858,-2.785 -6.884,-4.718 -0.64,-0.608 -1.267,-1.242 -1.748,-1.987 -0.434,-0.793 -0.689,-1.707 -0.611,-2.615 0.442,-4.249 6.743,-0.896 9.355,0.54 2.86,1.805 2.48,2.137 5.994,4.214 2.986,1.766 5.967,3.039 8.972,4.156 2.902,0.966 5.884,1.697 8.863,2.384 0.823,0.154 1.009,0.168 1.415,-0.211 0.947,-1.175 0.375,-3.913 -0.267,-6.109 -0.935,-2.933 -2.451,-5.773 -4.523,-8.418 -1.55,-2.176 -4.093,-4.972 -6.695,-7.159 -3.089,-2.593 -7.937,-4.908 -11.691,-6.407 -0.384,-0.144 -0.802,-0.255 -1.091,-0.298 0.201,0.179 0.646,0.464 1.091,0.722 1.626,1.001 3.447,1.619 5.09,2.587 2.701,1.761 5.117,3.923 7.377,6.215 1.645,1.673 3.242,3.406 4.596,5.328 0.94,1.279 1.76,2.66 2.234,4.183 0.534,1.704 0.899,3.393 -0.829,4.546 -1.493,0.982 -3.396,0.798 -5.082,0.557 -1.168,-0.217 -2.346,-0.446 -3.435,-0.937 -1.374,-0.588 -2.55,-1.535 -3.676,-2.501 -1.863,-1.577 -3.524,-3.376 -5.378,-4.962 -0.615,-0.123 -1.221,-0.302 -1.793,-0.456 -1.777,-0.541 -3.404,-1.09 -4.91,-2.156 -0.729,-0.582 -1.699,-1.288 -1.684,-2.312 0.068,-0.362 0.4,-0.686 0.776,-0.7 0.556,-0.005 1.063,0.26 1.566,0.466 1.714,0.721 3.218,1.839 4.689,2.96 0.644,0.488 1.267,1.001 1.877,1.528 1.463,0.21 2.844,0.057 1.708,-1.546 -1.209,-1.475 -2.793,-2.59 -4.249,-3.806 -1.36,-1.11 -2.913,-2.193 -3.512,-3.922 -0.334,-1.007 -0.49,-2.06 -0.619,-3.11 -0.045,-0.598 -0.247,-1.243 -0.007,-1.817 0.185,-0.434 0.664,-0.497 1.087,-0.498 0,-0.002 0.001,-0.004 0.001,-0.006 0.001,-0.019 0.003,-0.037 0.002,-0.056 -0.015,-0.313 -0.005,-0.161 -0.056,-0.427 -0.255,-0.847 -0.319,-0.909 -0.645,-1.577 -0.149,-0.307 -0.6,-1.26 -1.578,-1.285 -0.845,-0.022 -1.691,-0.102 -2.512,-0.309 -0.569,-0.163 -1.138,-0.373 -1.623,-0.718 -0.498,-0.341 -0.868,-0.827 -1.216,-1.312 -0.21,-0.299 -0.406,-0.608 -0.575,-0.933 -0.085,-0.176 -0.198,-0.384 -0.126,-0.581 0.041,-0.165 0.175,-0.282 0.33,-0.327 0.018,-0.524 0.507,-0.948 1.107,-1.199 -1.142,0.269 -2.347,0.382 -3.514,0.256 -1.41,-0.219 -2.608,-1.086 -3.85,-1.731 -1.111,-0.587 -2.4,-1.115 -2.948,-2.336 -0.305,-0.661 -0.531,-1.366 -0.629,-2.088 -0.07,-0.884 0.028,-1.474 0.136,-2.14 0.153,-0.878 0.396,-1.728 0.675,-2.567 -0.022,-0.137 -0.045,-0.274 -0.062,-0.411 -0.206,-1.426 -0.03,-2.873 0.106,-4.297 0.223,-1.821 0.486,-3.637 0.759,-5.451 0.014,-0.086 0.027,-0.173 0.04,-0.259 -0.393,0.211 -0.821,0.642 -1.287,0.997 -2.071,1.781 -3.932,3.962 -6.1,5.636 -1.162,0.716 -1.946,1.128 -3.187,1.401 -0.998,0.172 -2.023,0.012 -3.008,-0.174 -1.592,-0.41 -3.079,-1.17 -4.539,-1.912 -0.591,-0.323 -1.192,-0.64 -1.779,-0.979 0.506,1.39 0.854,2.84 1.251,4.263 1.056,2.798 0.459,4.736 0.409,4.892 -0.201,0.63 -0.499,1.221 -0.807,1.717 -0.061,0.109 -0.125,0.217 -0.196,0.321 -0.088,0.126 -0.184,0.246 -0.278,0.368 -0.031,0.043 -0.062,0.085 -0.096,0.127 -1.101,1.387 -2.523,2.5 -3.743,3.782 -0.391,0.318 -0.442,0.454 -0.914,0.657 -0.39,0.108 -0.728,-0.249 -0.717,-0.629 0.01,-0.386 0.168,-0.753 0.376,-1.073 0.996,-1.49 3.103,-2.921 3.868,-4.055 0.403,-0.521 0.696,-1.084 0.809,-1.418 0.217,-0.593 0.279,-2.416 0.139,-2.914 -0.409,-1.393 -0.803,-2.239 -1.482,-3.555 -0.942,-1.75 -2.009,-3.449 -2.578,-5.37 -0.467,-1.508 -0.768,-3.136 -0.297,-4.682 0.136,-0.394 0.248,-0.817 0.43,-1.199 -0.264,-0.062 -0.521,-0.15 -0.712,-0.352 -0.472,-0.489 -0.474,-1.22 -0.364,-1.85 0.09,-0.671 0.262,-1.328 0.452,-1.977 0.449,-1.648 1.887,-3.107 3.673,-3.077 0.167,-0.003 0.345,0.017 0.528,0.052 -0.108,-0.079 -0.219,-0.161 -0.334,-0.251 -0.723,-0.865 1.045,-1.475 1.589,-1.859 0.784,-0.459 1.058,-0.712 1.683,-1.232 1.696,-1.574 3.439,-2.717 5.85,-2.553 1.254,0.008 2.406,0.535 3.515,1.068 1.535,0.764 3.048,1.56 4.589,2.322 0.607,0.309 1.053,0.837 1.438,1.386 0.306,0.373 0.438,0.693 0.344,1.026 0.709,-0.006 1.412,0.401 1.872,0.935 0.277,0.347 0.454,0.765 0.605,1.18 0.358,1.23 0.516,2.514 0.603,3.79 0.155,1.554 -0.502,3.895 -0.601,4.472 0.107,0.077 0.208,0.177 0.298,0.313 1.065,1.564 0.641,4.016 0.322,5.777 -0.315,1.726 -1.038,3.33 -1.618,4.977 0.025,0.135 0.054,0.263 0.089,0.38 0.578,2.551 2.164,4.693 4.517,5.904 1.322,0.653 3.6,0.792 5.223,0.35 1.26,-0.314 2.581,-0.975 3.442,-1.685 0.926,-0.832 1.317,-1.58 1.957,-2.707 1.221,-2.212 2.099,-4.034 2.685,-6.513 0.497,-2.303 0.576,-4.285 0.978,-6.725 0.594,-3.602 3.67,-17.608 4.089,-21.072 0.544,-4.502 1.211,-8.519 1.697,-12.638 0.306,-2.512 0.286,-5.046 0.081,-7.565 -0.475,-5.329 -1.38,-10.671 -0.872,-16.032 0.225,-2.483 0.488,-4.304 0.971,-6.787 0.356,-1.716 0.848,-3.4 1.183,-5.121 0.481,-2.573 0.863,-4.745 1.055,-7.13 0.183,-1.928 0.039,-4.806 -0.181,-6.244 -0.342,-2.182 -0.676,-4.371 -1.221,-6.513 -0.38,-1.579 -0.976,-3.095 -1.481,-4.636 -0.319,-1.016 -0.993,-2.82 -1.196,-3.372 -0.813,-1.926 -1.81,-3.765 -2.7,-5.655 -0.759,-1.571 -1.47,-3.165 -2.284,-4.709 -1.112,-2.069 -2.101,-4.204 -2.847,-6.432 -0.14,1.272 -0.142,2.915 -0.1,4.486 0.346,2.526 0.776,5.024 1.383,7.683 0.617,2.697 2.375,8.257 1.705,9.963 -1.136,2.894 -2.118,-0.804 -2.271,-1.471 -0.78,-3.402 -1.073,-6.891 -1.365,-10.362 -0.096,-1.378 -0.19,-2.756 -0.254,-4.135 -0.061,-0.401 -0.121,-0.802 -0.177,-1.204 -0.781,-5.412 -1.202,-10.864 -1.694,-16.307 -0.274,-2.838 -0.717,-5.469 -1.235,-8.542 -1.18,-6.328 -2.889,-12.542 -4.318,-18.815 -1.839,-7.704 -3.444,-15.463 -4.726,-23.279 -1.42,-8.269 -1.833,-16.663 -2.535,-25.013 -0.78,-8.829 -1.413,-17.675 -1.801,-26.531 -0.487,1.734 -0.899,3.488 -1.233,5.259 -0.704,3.752 -0.828,8.015 -1.141,12.178 -0.611,7.775 -0.734,15.571 -0.713,23.367 -0.027,5.238 0.045,10.477 -0.109,15.713 -0.211,4.799 -0.639,9.585 -0.906,14.381 -0.245,3.948 -0.338,7.904 -0.592,11.851 -0.237,2.696 -0.347,5.452 -1.149,8.054 -0.262,0.88 -0.968,1.52 -1.827,0.842 -0.923,-0.909 -1.298,-2.236 -1.757,-3.417 -0.873,-2.53 -1.566,-5.117 -2.44,-7.646 -0.99,-2.982 -2.23,-5.981 -3.215,-8.293 -0.09,-0.209 -0.181,-0.418 -0.272,-0.627 -0.088,0.797 -0.171,1.599 -0.246,2.41 -0.302,2.967 -0.345,5.949 -0.481,8.925 -0.132,1.98 -0.237,3.981 -0.671,5.922 -0.191,0.72 -0.845,2.27 -1.784,1.82 -0.877,-0.444 -0.636,-2.331 -0.711,-3.198 -0.013,-1.47 0.019,-2.94 0.035,-4.411 0.121,-4.448 0.049,-8.904 0.306,-13.347 0.159,-0.924 0.052,-3.402 1.368,-3.337 0.809,0.236 1.25,0.91 1.599,1.649 0.511,-3.915 1.157,-7.812 1.752,-11.715 0.942,-5.857 1.873,-11.724 3.24,-17.501 1.481,-6.222 3.044,-12.424 4.48,-18.657 0.711,-3.217 1.351,-6.45 2.046,-9.67 1.397,-6.97 2.946,-13.422 2.818,-20.435 -0.018,-1.025 -0.001,-2.304 -0.169,-2.955 0.016,0.037 0.032,0.074 0.047,0.111 -0.046,-0.147 -0.113,-0.281 -0.199,-0.405 -0.045,-0.026 -0.096,-0.06 -0.128,-0.086 -0.043,-0.006 -0.087,-0.013 -0.13,-0.019 -0.344,0.06 -0.236,0.114 -0.561,0.229 -1.05,0.511 -1.621,1.147 -2.412,2.147 -3.005,4.26 -4.965,9.93 -6.713,15.313 -1.371,4.347 -2.55,8.79 -4.584,12.888 -1.971,3.9 -4.649,7.375 -6.856,11.135 -2.373,4.135 -4.22,8.427 -5.845,12.575 -1.542,4.029 -2.537,8.231 -3.616,12.4 -1.251,5.096 -2.553,10.185 -3.558,15.336 -0.76,3.95 -1.111,7.416 -1.506,11.514 -0.597,5.691 -0.811,11.409 -1.012,17.125 -0.085,2.002 -0.243,4.004 -0.5,5.992 -0.233,1.407 -0.413,2.857 -0.995,4.171 -0.78,1.348 -1.968,0.596 -2.36,-0.653 -0.55,-1.751 -0.408,-3.641 -0.303,-5.449 0.208,-2.457 0.554,-4.901 1.049,-7.316 0.493,-2.437 1.129,-4.843 1.595,-7.286 0.234,-1.497 0.491,-2.572 0.568,-3.883 -0.541,0.901 -1.18,2.74 -1.642,3.944 -1.025,2.768 -1.989,5.576 -3.477,8.139 -1.883,3.381 -4.281,6.432 -6.4,9.662 -3.606,5.512 -6.797,11.277 -9.978,17.04 -0.202,0.35 -0.411,0.696 -0.625,1.038 1.275,3.367 1.423,7.111 0.581,10.616 -0.306,1.074 -0.708,2.114 -1.161,3.133 1.867,5.055 4.545,9.96 7.975,13.852 1.451,1.617 3.03,3.122 4.721,4.487 0.626,0.493 1.858,1.424 2.53,1.133 1.244,-0.424 -0.62,-6.241 -1.512,-8.285 -0.559,-1.273 -1.244,-2.499 -1.819,-3.757 -0.066,-0.314 0.322,-0.563 0.589,-0.395 0.222,0.161 0.285,0.465 0.43,0.69 1.26,2.386 2.38,4.86 3.017,7.491 0.296,1.355 0.743,2.769 0.429,4.159 -0.247,0.901 -1.3,1.177 -2.116,0.928 -0.645,-0.167 -1.188,-0.574 -1.73,-0.944 -5.562,-4.163 -9.718,-9.999 -12.357,-16.392 -0.252,-0.578 -0.492,-1.163 -0.724,-1.75 -0.55,1.13 -1.141,2.242 -1.722,3.35 -1.607,2.823 -3.33,5.484 -4.616,8.294 -0.517,1.029 -1.14,2.374 -1.351,3.688 -0.263,0.54 -0.477,1.094 -0.641,1.629 -0.657,2.143 -0.566,4.465 -0.159,6.711 0.25,3.492 1.325,7.576 2.164,10.295 0.534,1.887 1.243,3.729 2.004,5.481 0.585,1.345 1.246,2.663 1.994,3.927 1.492,2.86 3.162,5.627 4.991,8.288 1.088,1.638 2.12,2.917 3.47,4.463 1.24,1.421 2.513,2.821 3.963,4.032 1.454,1.242 3.111,2.304 4.84,3.446 0.282,0.167 0.55,0.361 0.834,0.526 0.09,-0.948 -0.431,-2.418 -0.843,-3.691 -2.541,-5.94 -2.554,-7.931 -1.798,-7.316 1.167,1.111 4.131,7.348 6.029,11.112 2.748,5.583 4.569,11.559 6.655,17.407 1.1,3.178 2.093,6.391 3.204,9.565 2.762,7.896 4.911,10.111 4.973,15.621 0.042,1.124 -0.099,2.25 -0.035,3.373 0.005,0.038 0.008,0.068 0.01,0.089 0.005,0.03 0.008,0.06 0.013,0.09 0,-0.014 0.028,0.139 0.053,0.209 0,0.002 0,0.002 10e-4,0.003 0.011,0.012 0.022,0.025 0.034,0.035 0.003,0.002 0.006,0.003 0.009,0.005 0.001,0.001 0.003,0.001 0.004,0.002 0.062,0.003 0.125,0.003 0.187,0.001 0.143,-0.024 0.283,-0.063 0.424,-0.098 0.615,-0.16 1.299,-0.398 1.913,-0.117 0.357,0.175 0.56,0.527 0.653,0.906 0.098,0.043 0.189,0.102 0.269,0.181 0.348,0.259 0.381,0.724 0.256,1.11 -0.207,0.646 -0.713,1.13 -1.252,1.525 -0.215,0.255 -0.446,0.495 -0.69,0.722 -0.099,0.096 -0.202,0.188 -0.308,0.278 -0.034,0.028 -0.068,0.056 -0.103,0.084 -0.058,0.046 -0.118,0.091 -0.178,0.135 -0.101,0.078 -0.199,0.158 -0.303,0.231 -0.877,0.534 -1.351,1.098 -1.883,1.875 -0.08,0.24 -0.163,0.48 -0.25,0.718 0.184,0.764 0.267,1.643 0.336,2.222 0.182,2.054 0.528,3.845 1.136,6.024 0.225,0.888 0.379,1.792 0.52,2.697 0.132,0.817 0.217,1.652 0.021,2.466 -0.202,0.879 -0.694,1.663 -1.223,2.383 -0.593,0.836 -1.368,1.512 -2.216,2.078 1.814,-0.148 4.551,-1.977 5.944,-0.641 0.582,0.559 0.569,1.55 0.307,2.216 -0.424,0.989 -2.51,3.525 -3.657,4.611 -0.969,0.915 -1.973,1.813 -3.121,2.501 -2.294,1.299 -4.798,2.174 -7.123,3.418 -2.899,1.435 -5.73,3.018 -8.721,4.258 -4.089,1.497 -8.356,2.455 -12.419,4.033 -2.545,0.979 -5.418,2.31 -8.082,3.941 -4.027,2.557 -7.211,5.12 -10.724,8.379 -2.328,2.158 -5.272,5.176 -6.899,7.285 -2.291,2.98 -4.191,6.242 -5.862,9.607 3.152,-4.003 6.079,-8.303 10.165,-11.82 0.642,-0.551 1.325,-1.053 2.017,-1.537 1.01,-0.743 1.939,-0.83 2.328,0.558 0.26,2.029 -1.841,5.288 -2.857,7.068 -3.792,5.969 -7.504,11.956 -9.429,18.497 -0.949,3.202 -1.38,6.112 -1.697,9.193 -0.283,2.721 -0.515,5.466 -0.204,8.196 0.725,4.502 2.595,10.697 4.684,14.891 1.693,3.119 3.517,5.438 5.856,8.03 1.514,1.74 3.872,3.926 5.267,5.122 1.905,1.492 3.907,2.853 5.827,4.325 2.181,1.646 4.273,3.402 6.349,5.178 0.819,-0.147 1.886,0.361 2.605,0.681 1.735,0.827 3.216,2.09 4.753,3.227 2.075,1.565 4.148,3.133 6.227,4.694 3.278,2.494 7.137,4.843 10.645,6.193 2.721,0.934 5.364,1.553 7.988,1.719 0.654,0.044 1.634,0.049 1.909,-0.047 0.019,-0.004 0.035,-0.014 0.054,-0.02 l 0.029,-0.026 c 0.004,-0.007 0.008,-0.015 0.012,-0.023 -0.224,-0.43 -1.925,-1.22 -3.059,-1.702 -3.204,-1.364 -6.31,-2.938 -9.45,-4.44 -4.873,-2.281 -9.927,-4.802 -13.241,-9.19 -1.029,-1.326 -2.066,-2.765 -2.331,-4.46 -0.377,-1.492 0.288,-2.558 1.348,-3.286 -2.91,-0.99 -5.753,-2.172 -8.452,-3.641 -3.848,-2.242 -7.173,-5.287 -10.129,-8.596 -2.468,-2.738 -4.591,-5.766 -6.296,-9.035 -1.312,-2.475 -2.518,-5.022 -3.354,-7.699 -1.581,-4.771 -2.558,-10.045 -0.864,-14.919 1.534,-4.366 3.901,-8.358 6.271,-12.311 2.594,-4.362 5.263,-8.681 8.178,-12.837 3.347,-4.703 6.78,-9.459 11.214,-13.207 0.851,-0.642 1.667,-1.462 2.726,-1.722 1.097,-0.289 2.224,0.561 2.266,1.694 0.052,0.666 -0.009,1.325 -0.129,1.978 0.284,-0.396 0.567,-0.792 0.85,-1.188 1.673,-2.248 3.244,-4.651 5.497,-6.369 0.701,-0.593 2.775,-1.787 4.165,-2.266 1.267,-0.51 2.605,-0.803 3.904,-1.216 3.919,-1.137 7.087,-2.696 9.933,-5.485 0.537,-0.49 1.071,-0.983 1.597,-1.485 0.307,-0.26 0.548,-0.607 0.902,-0.801 0.215,-0.122 0.499,-0.092 0.673,0.087 0.256,0.221 0.233,0.576 0.172,0.879 -0.452,1.929 -0.773,4.12 -0.967,5.654 -0.357,2.866 -0.524,5.756 -0.577,8.643 -0.003,0.239 -0.002,0.477 -0.003,0.716 0.216,-0.517 0.427,-1.031 0.628,-1.551 1.071,-2.766 1.863,-5.628 2.781,-8.447 0.971,-3.143 2.531,-6.125 4.741,-8.576 5.16,-5.72 15.44,-8.527 24.171,0.177 1.002,0.999 2.104,1.902 3.111,2.906 -0.609,-1.029 -1.227,-2.053 -1.757,-3.125 -0.703,-1.455 -1.023,-3.572 1.379,-3.543 1.5,0.194 2.832,1.027 4.075,1.839 4.388,3.085 8.043,6.409 12.737,9.31 1.633,1.02 3.666,2.13 5.098,2.625 2.102,0.813 4.316,1.282 6.506,1.793 0.898,0.206 1.804,0.399 2.702,0.619 -0.345,-0.351 -0.668,-0.725 -0.959,-1.129 -0.14,-0.236 -0.268,-0.489 -0.276,-0.768 10e-4,-0.385 0.436,-0.626 0.788,-0.515 0.361,0.129 0.646,0.396 0.931,0.643 0.853,0.842 1.66,1.731 2.429,2.654 0.172,0.066 0.344,0.132 0.514,0.204 1.941,0.843 3.713,2.056 5.258,3.504 3.518,1.965 7.145,3.736 10.536,5.919 3.104,2.003 6.206,4.041 8.94,6.54 5.724,5.133 10.504,11.514 13.05,18.814 1.691,5.113 1.891,10.653 1.064,15.95 -0.631,4.046 -1.663,8.022 -3.011,11.887 -1.15,3.292 -2.488,6.562 -4.453,9.459 -3.631,5.115 -8.057,9.514 -14.28,11.175 -4.354,1.201 -8.949,1.507 -13.439,1.093 -2.545,-0.292 -5.104,-0.665 -7.522,-1.545 -5.538,-2.027 -10.481,-5.344 -15.398,-8.541 -1.608,-1.072 -3.153,-2.233 -4.735,-3.342 -1.412,-0.973 -2.812,-1.969 -4.164,-3.025 0.182,0.409 0.364,0.817 0.549,1.223 0.963,2.119 2.355,4.355 3.602,5.883 1.778,2.269 3.951,4.184 6.217,5.95 3.046,2.436 7.6,5.235 11.286,6.61 1.487,0.589 3.028,1.034 4.595,1.353 1.809,0.426 3.717,0.778 5.312,1.777 1.689,1.159 2.538,3.311 2.347,5.32 -0.186,1.328 -0.837,2.553 -1.63,3.618 -0.505,0.655 -1.118,1.212 -1.761,1.732 0,0 10e-4,0 10e-4,0.001 0.022,0.687 -0.285,1.359 -0.555,1.879 -0.761,1.254 -1.982,2.175 -3.185,2.981 -1.256,0.831 -2.584,1.542 -3.909,2.255 1.112,-0.303 2.223,-0.611 3.331,-0.93 3.3,-1.033 6.004,-1.957 8.946,-3.433 1.429,-0.709 2.863,-1.428 4.157,-2.368 1.674,-1.154 3.646,-3.353 5.455,-5.026 2.628,-2.189 5.517,-4.045 8.31,-6.014 1.845,-1.283 3.606,-2.614 5.087,-3.783 1.627,-1.267 3.238,-2.563 4.692,-4.029 2.848,-2.911 4.984,-5.773 7.057,-9.42 1.476,-2.659 2.438,-5.49 3.244,-8.707 1.317,-5.521 1.772,-10.808 1.313,-16.649 -0.234,-3.32 -1.159,-7.078 -1.544,-10.779 -0.221,-2.158 -0.549,-4.035 -1.089,-5.842 -1.747,-1.619 -3.54,-3.19 -5.203,-4.893 -1.522,-1.693 -3.183,-3.498 -3.693,-5.782 -0.121,-0.656 -0.145,-1.383 0.264,-1.948 0.16,-0.23 0.389,-0.459 0.683,-0.474 0.65,-0.107 1.203,0.373 1.694,0.743 -0.013,-0.01 -0.025,-0.021 -0.039,-0.031 0.033,0.025 0.065,0.05 0.098,0.075 -0.019,-0.014 -0.038,-0.029 -0.058,-0.043 1.274,0.953 2.163,2.302 3.019,3.621 1.329,2.108 2.642,4.25 3.559,6.574 0.239,0.597 0.442,1.191 0.62,1.783 1.993,1.887 3.898,3.864 5.55,6.061 1.123,1.503 2.155,3.072 3.102,4.693 -0.541,-5.334 -2.31,-10.124 -4.847,-15.036 m -73.984,-71.351 c -0.001,-0.009 -0.002,-0.017 -0.003,-0.025 0.001,0.008 0.002,0.014 0.003,0.021 -0.002,-0.012 -0.004,-0.025 -0.006,-0.039 -0.015,-0.098 -0.03,-0.192 -0.046,-0.285 -0.037,-0.087 -0.078,-0.173 -0.124,-0.254 0,-0.001 0,-0.001 0,-0.001 0.005,0.121 -0.002,0.241 -0.024,0.357 0.043,0.128 0.067,0.261 0.037,0.397 -0.032,0.106 -0.088,0.192 -0.157,0.265 0.127,0.031 0.25,0.058 0.369,0.08 -0.015,-0.132 -0.011,-0.273 -0.033,-0.391 -0.003,-0.027 -0.007,-0.054 -0.01,-0.081 0.004,0.031 0.001,0.005 -0.006,-0.044 m 1.337,-1.973 c 0.807,0.715 1.445,1.581 2.121,2.415 -0.045,-0.066 -0.091,-0.132 -0.136,-0.197 -0.721,-1.045 -1.218,-1.76 -2.26,-2.678 -1.093,-0.944 -0.825,-2.036 -0.401,-3.243 0.123,-0.369 0.315,-1.183 0.307,-1.224 -0.019,0.027 -0.039,0.054 -0.061,0.081 -0.449,0.619 -0.878,1.256 -1.389,1.827 -0.802,0.85 -1.929,1.603 -2.85,1.971 0.365,-0.08 0.731,-0.096 1.03,-0.033 0.062,0.001 0.124,0.002 0.186,0.007 0.024,-0.025 0.051,-0.049 0.083,-0.073 0.382,-0.192 0.836,-0.068 1.239,-0.009 0.918,0.162 1.687,0.724 2.131,1.156 m -4.743,0.171 c 0.021,0.092 0.021,0.051 0.132,0.263 0.344,0.743 1.661,1.197 2.08,1.199 0.005,-10e-4 0.008,-0.002 0.012,-0.003 -0.163,-0.268 -0.198,-0.313 -0.369,-0.506 -0.01,-0.009 -0.004,-0.004 0.006,0.004 -0.299,-0.236 -0.542,-0.392 -0.955,-0.655 -0.432,-0.236 -0.521,-0.317 -0.865,-0.348 -0.014,0.015 -0.027,0.03 -0.041,0.046 m -9.521,-17.721 c -0.107,0.732 -0.34,2.45 -0.371,4.027 0.206,-0.565 0.409,-1.131 0.592,-1.703 0.517,-1.871 1.071,-4.803 0.353,-6.331 -0.204,1.334 -0.371,2.675 -0.574,4.007 m -19.758,-8.739 c -0.274,0.294 -0.552,0.582 -0.854,0.845 -0.131,0.125 -0.282,0.193 -0.443,0.228 -0.089,0.087 -0.164,0.168 -0.218,0.257 0.032,0.076 0.061,0.152 0.077,0.233 0.08,0.281 -0.008,0.551 -0.078,0.822 0.285,0.241 0.881,0.371 1.486,0.395 -0.184,-0.589 -0.149,-1.265 0.197,-1.729 0.032,-0.046 0.07,-0.083 0.107,-0.122 -0.228,-0.243 -0.328,-0.599 -0.274,-0.929 m 0.811,1.84 c -0.003,0.018 -0.008,0.038 -0.008,0.053 0.002,-0.01 0.003,-0.015 0.005,-0.023 -0.002,0.022 -0.004,0.047 -0.002,0.073 -0.009,0.377 0.007,0.494 0.055,0.618 0.196,-0.125 0.34,-0.293 0.403,-0.483 0.022,-0.045 0.039,-0.131 0.048,-0.184 0.006,-0.055 0.007,-0.109 0.004,-0.163 -0.002,-0.008 -0.005,-0.018 -0.008,-0.03 -0.006,-0.011 -0.012,-0.021 -0.019,-0.032 -0.015,-0.015 -0.036,-0.038 -0.06,-0.066 -0.015,-0.015 -0.027,-0.027 -0.037,-0.037 -0.013,-0.007 -0.025,-0.015 -0.037,-0.021 -0.031,-0.01 -0.066,-0.018 -0.095,-0.024 -0.015,0 -0.029,-0.001 -0.043,0 -0.01,0.002 -0.018,0.003 -0.021,0.003 -0.015,0.012 -0.03,0.038 -0.137,0.153 -0.004,0.006 -0.008,0.011 -0.012,0.017 -0.007,0.021 -0.02,0.068 -0.031,0.117 0.004,-0.021 0.006,-0.014 -0.008,0.059 10e-4,-0.012 0.002,-0.021 0.003,-0.03 m 11.539,1.88 c -0.453,-0.754 -0.358,-1.826 -0.002,-2.602 0.357,-0.653 1.256,-0.96 1.808,-0.358 0.21,0.234 0.279,0.528 0.273,0.829 0.371,0.199 0.627,0.753 0.707,1.144 0.179,0.738 0.275,1.201 0.461,1.676 0.02,0.042 0.046,0.094 0.066,0.128 0.002,0.004 0.004,0.006 0.006,0.01 0.226,-0.224 0.471,-1.008 0.515,-1.477 0.042,-0.631 0.079,-1.1 -0.018,-1.382 -0.104,-0.538 -0.441,-1.547 -0.506,-1.609 -0.027,-0.075 -0.184,-0.31 -0.248,-0.406 -0.022,-0.025 -0.044,-0.053 -0.062,-0.078 -0.356,-0.348 -0.455,-0.497 -0.709,-0.615 -0.036,-0.014 -0.055,-0.021 -0.063,-0.026 -0.35,-0.131 -0.721,-0.231 -1.008,-0.482 -1.357,-1.508 -0.536,-1.603 -2.557,-1.632 -1.259,-0.014 -2.519,0.012 -3.777,-0.063 -1.286,-0.063 -2.661,-0.166 -3.587,0.096 -0.415,0.053 -0.575,0.558 -1.083,1.452 -0.432,0.653 -1.017,1.177 -1.584,1.708 -0.011,0.018 -0.02,0.03 -0.028,0.04 -0.006,0.011 -0.014,0.021 -0.021,0.032 -0.021,0.05 -0.032,0.07 -0.036,0.07 -0.001,0.004 -0.001,0.008 -0.003,0.012 0.004,0.014 0.009,0.031 0.016,0.052 -0.008,-0.02 -0.013,-0.033 -0.016,-0.038 0,-0.003 0,-0.005 -0.001,-0.008 -0.001,0.002 -0.001,0.005 -0.001,0.008 0.001,0.013 0.003,0.029 0.008,0.053 -0.002,-0.019 -0.004,-0.035 -0.005,-0.048 0.003,0.01 0.01,0.028 0.021,0.05 0.003,0.009 0.007,0.018 0.011,0.028 -0.005,-0.011 -0.007,-0.018 -0.011,-0.027 0.008,0.017 0.018,0.036 0.029,0.054 10e-4,0.001 0.002,0.002 0.003,0.002 0.006,0.004 0.013,0.008 0.021,0.012 0.022,0.006 0.07,0.021 0.125,0.033 0.182,0.106 1.407,-0.197 1.781,0.451 0.432,0.681 0.097,1.526 -0.238,2.177 -0.404,0.702 -1.411,1.312 -2.129,0.69 -0.013,-0.012 -0.024,-0.025 -0.036,-0.037 -0.766,0.11 -1.658,-0.069 -2.237,-0.388 0.823,1.032 1.41,2.277 2.216,3.025 0.419,0.5 2.126,0.777 2.951,0.862 1.352,0.167 2.71,0.284 4.072,0.323 2.316,0.047 5.932,-0.025 6.718,-0.748 0.248,-0.412 0.086,-0.161 0.199,-0.769 0.045,-0.293 0.183,-0.557 0.309,-0.823 -0.004,-0.003 -0.008,-0.005 -0.012,-0.008 -0.448,-0.244 -1.822,-0.601 -2.338,-1.393 m 1.046,-1.591 c 0.186,-0.641 0.177,-0.579 0.093,-0.777 -0.021,-0.012 -0.041,-0.024 -0.059,-0.034 -0.009,-0.002 -0.017,-0.004 -0.026,-0.006 h -10e-4 c -0.01,0.002 -0.026,0.006 -0.05,0.012 -0.364,0.06 -0.55,1.194 -0.365,1.763 0.231,0.519 0.806,0.71 1.485,0.997 -0.084,-0.31 -0.154,-0.624 -0.211,-0.883 -0.154,0.496 -0.851,0.449 -0.981,-0.084 -0.112,-0.333 -0.006,-0.674 0.115,-0.988 m -16.711,4.817 c 0.157,0.419 0.322,0.817 0.478,1.175 0.91,1.885 2.097,3.632 2.845,5.596 0.003,0.006 0.006,0.014 0.008,0.02 -0.273,-1.029 -0.583,-2.078 -0.816,-2.907 -0.266,-0.895 -0.464,-1.505 -0.78,-2.202 -0.365,-0.251 -0.718,-0.519 -1.049,-0.815 -0.296,-0.244 -0.517,-0.541 -0.686,-0.867 m 1.054,-5.136 c -0.041,-0.211 -0.057,-0.194 -0.092,-0.291 -0.061,-0.175 -0.028,-0.347 0.048,-0.509 -0.211,-0.038 -0.421,-0.083 -0.63,-0.129 -0.017,0.538 -0.067,1.075 -0.103,1.613 0.177,-0.036 0.406,0.019 0.697,0.198 -0.101,-0.312 0.055,-0.733 0.08,-0.882 m -1.557,0.765 c 0.021,-0.384 0.056,-0.768 0.083,-1.152 -0.265,0.698 -0.371,1.346 -0.369,2.046 -0.001,0.766 0.187,1.636 0.447,2.48 -0.038,-0.187 -0.068,-0.376 -0.086,-0.566 -0.116,-0.931 -0.141,-1.872 -0.075,-2.808 m 19.773,-8.703 c 0.203,-0.045 0.401,-0.102 0.598,-0.165 0.125,-0.085 0.234,-0.168 0.317,-0.249 0.229,-0.242 0.225,-0.204 0.314,-0.375 -0.065,-0.093 -0.238,-0.366 -0.3,-0.432 -0.104,-0.16 -0.681,-0.827 -0.919,-0.903 -0.82,-0.462 -1.696,-0.812 -2.531,-1.245 -1.45,-0.744 -2.719,-1.436 -4.018,-1.85 -1.622,-0.425 -3.193,-0.301 -4.589,0.558 -1.153,0.657 -1.911,1.579 -3.172,2.431 -0.578,0.403 -1.233,0.683 -1.815,1.08 0.69,0.494 1.903,1.227 2.708,1.833 0.251,0.183 0.513,0.358 0.727,0.585 0.141,0.133 0.213,0.322 0.164,0.512 -0.268,0.728 -1.162,0.083 -1.62,-0.108 -0.696,-0.372 -1.603,-0.931 -2.008,-1.067 -1.593,-0.573 -2.714,0.04 -3.545,1.435 -0.454,0.825 -0.976,3.14 -0.77,3.512 0.157,0.332 0.163,0.278 0.342,0.344 0.168,0.037 1.646,0.36 1.901,0.413 0.274,0.051 0.445,0.083 0.566,0.096 0.729,-0.707 1.438,-1.434 2.171,-2.137 0.208,-0.201 0.422,-0.396 0.631,-0.596 0.01,-0.02 0.021,-0.033 0.036,-0.037 0.073,-0.076 0.162,-0.145 0.27,-0.148 0.204,-0.041 0.406,0.111 0.458,0.305 0.311,-0.557 0.533,-1.201 1.109,-1.523 0.583,-0.288 1.245,-0.334 1.885,-0.359 1.059,-0.041 2.116,0.062 3.174,0.098 1.507,0.097 3.048,-0.119 4.535,0.183 0.7,0.198 0.988,0.9 1.378,1.442 0.227,0.265 0.197,0.253 0.496,0.376 0.609,0.148 1.119,0.438 1.545,0.901 0.467,0.45 0.75,1.046 0.956,1.652 0.195,0.559 0.365,1.137 0.363,1.733 -0.053,1.04 -0.165,2.21 -0.876,3.025 -0.233,0.282 -0.63,0.423 -0.979,0.358 -0.08,0.193 -0.172,0.372 -0.193,0.515 -0.032,0.439 -0.042,1.234 -0.946,1.656 -1.342,0.561 -2.828,0.611 -4.263,0.657 -2.805,0.14 -5.627,-0.091 -8.379,-0.643 -0.502,-0.135 -1.018,-0.288 -1.458,-0.571 -0.435,-0.308 -0.772,-0.725 -1.073,-1.159 -0.563,-0.815 -1.065,-1.66 -1.527,-2.282 -0.11,-0.137 -0.23,-0.288 -0.383,-0.377 -0.001,0.002 -0.001,0.005 -0.002,0.008 -0.006,0.05 -0.012,0.125 -0.007,0.166 -0.072,1.452 0.887,2.684 1.702,4.258 0.053,0.106 0.099,0.215 0.149,0.322 1.149,0.744 2.647,1.529 3.888,2.133 1.602,0.757 3.168,1.431 4.946,1.43 1.421,0.061 3.146,-0.837 4.223,-1.693 1.521,-1.323 2.973,-2.728 4.412,-4.139 0.596,-0.573 1.239,-1.093 1.883,-1.61 0.332,-0.294 0.771,-0.588 1.206,-0.689 0.096,-0.619 0.198,-1.238 0.341,-1.849 0.045,-0.123 0.068,-0.265 0.094,-0.404 0,-0.006 10e-4,-0.012 10e-4,-0.018 0.198,-1.787 0.081,-3.099 -0.224,-4.684 -0.047,-0.444 -0.367,-1.595 -0.635,-1.851 -0.328,-0.347 -0.686,-0.623 -1.306,-0.608 -0.077,0.009 -0.469,0.145 -0.872,0.274 -0.447,0.301 -0.948,0.526 -1.439,0.739 -0.52,0.184 -1.659,0.824 -1.923,0.015 -0.046,-1.018 1.559,-1.085 2.283,-1.274 m 3.095,-231.785 c -0.08,-1.903 -0.177,-3.19 -0.796,-5.082 -0.007,-0.014 -0.014,-0.03 -0.023,-0.048 -0.004,0.033 -0.008,0.063 -0.012,0.089 -0.016,0.131 -0.025,0.263 -0.036,0.394 -0.041,0.602 -0.064,1.204 -0.082,1.806 -0.057,1.726 -0.093,3.453 -0.084,5.181 0.035,1.866 0.083,3.732 0.141,5.598 0.005,-0.015 0.009,-0.03 0.013,-0.045 0.724,-2.763 1.003,-4.977 0.879,-7.893 m -41.083,100.608 c -0.92,4.827 -2.316,9.521 -2.707,14.138 -0.194,2.305 -0.464,4.893 0.354,6.5 0.053,0.105 0.117,0.203 0.189,0.296 0.006,0.005 0.011,0.01 0.017,0.015 0.038,0.022 0.076,0.044 0.114,0.067 0.008,0 0.016,-0.001 0.022,0 0.025,-0.015 0.05,-0.029 0.075,-0.043 0.055,-0.049 0.124,-0.117 0.141,-0.161 0.366,-0.891 0.855,-3.418 0.963,-4.909 0.466,-4.4 0.459,-8.83 0.694,-13.244 0.062,-1.03 0.131,-2.059 0.203,-3.089 -0.023,0.144 -0.045,0.287 -0.065,0.43 m -23.177,37.368 c -0.485,0.724 -0.991,1.434 -1.513,2.131 -0.306,0.391 -0.607,0.79 -0.916,1.181 0.276,1.902 0.654,3.796 1.229,5.807 0.236,0.817 0.494,1.635 0.773,2.452 0.315,-0.741 0.578,-1.433 0.809,-2.407 0.527,-2.208 0.553,-4.99 0.164,-7.147 -0.142,-0.685 -0.326,-1.359 -0.546,-2.017 m -2.013,-4.139 c -0.025,0.049 -0.05,0.098 -0.074,0.147 -0.329,0.654 -0.637,1.335 -0.921,2.028 0.019,0.05 0.03,0.106 0.029,0.167 0.044,0.536 0.09,1.062 0.139,1.583 0.335,-0.618 0.674,-1.236 0.995,-1.862 0.174,-0.322 0.699,-0.256 0.785,0.102 0.047,0.363 -0.186,0.565 -0.377,1.078 -0.36,0.807 -0.815,1.568 -1.167,2.379 -0.015,0.037 -0.032,0.079 -0.048,0.118 0.019,0.157 0.039,0.314 0.058,0.471 0.711,-0.938 1.496,-2.058 2.195,-3.153 -0.444,-1.09 -0.99,-2.119 -1.614,-3.058 m 4.232,-7.952 c 2.653,-3.015 5.954,-5.984 8.048,-8.969 0.903,-1.332 1.852,-3.025 2.261,-4.179 1.125,-3.123 1.496,-6.184 1.948,-9.162 0.611,-4.752 1.477,-9.493 1.99,-13.891 0.39,-3.116 0.588,-6.249 0.743,-9.384 0.216,-3.378 0.332,-6.76 0.352,-10.145 0.105,-6.337 -0.132,-12.745 1.048,-19.002 1.497,-7.973 4.207,-15.639 6.321,-23.454 1.035,-4.112 2.61,-10.149 2.597,-12.689 -0.011,-0.023 -0.022,-0.047 -0.033,-0.071 -0.009,0.001 -0.018,0.001 -0.027,0.002 -0.042,0.012 -0.083,0.024 -0.125,0.036 -0.415,0.211 -0.838,0.594 -1.34,1.086 -1.404,1.437 -2.222,2.712 -3.345,4.461 -2.706,5.079 -3.581,11.739 -4.702,17.709 -0.797,4.978 -1.973,9.88 -2.959,14.821 -0.469,2.536 -0.778,5.1 -1.241,7.638 -0.517,2.857 -1.209,5.68 -1.804,8.521 -0.808,3.58 -1.318,7.213 -1.872,10.837 -0.626,3.392 -1.21,6.913 -1.985,10.258 -1.075,4.996 -3.322,9.627 -4.653,14.549 -0.995,3.219 -1.942,6.455 -3.046,9.64 -1.379,3.814 -2.783,7.623 -3.772,11.562 -0.378,1.335 -0.706,2.668 -0.996,4 0.567,0.458 1.114,0.941 1.63,1.455 0.208,0.216 0.404,0.442 0.594,0.673 1.194,-2.271 2.651,-4.392 4.368,-6.302 m -6.628,15.393 c 10e-4,0.069 0.002,0.13 0.003,0.187 0.244,-0.722 0.505,-1.439 0.798,-2.142 -0.045,-0.43 -0.087,-0.861 -0.122,-1.293 -0.34,1.104 -0.586,2.205 -0.679,3.248 m -2.35,11.988 c -0.125,2.113 -0.252,4.225 -0.412,6.336 -0.079,1.003 -0.17,2.005 -0.233,3.008 0.834,-1.73 1.844,-3.376 2.805,-5.037 1.312,-2.18 2.537,-4.412 3.605,-6.722 -0.869,-2.357 -1.564,-4.779 -1.998,-7.253 -0.085,-0.458 -0.152,-0.919 -0.224,-1.379 -0.163,0.173 -0.337,0.335 -0.514,0.494 -0.318,1.062 -0.602,2.163 -0.766,3.089 -0.286,1.411 -0.3,3.597 -0.176,5.457 -0.013,0.288 0.123,0.636 -0.102,0.867 -0.259,0.275 -0.767,0.07 -0.754,-0.312 -0.203,-2.054 -0.396,-4.144 -0.005,-6.188 0.19,-0.948 0.428,-1.887 0.7,-2.816 -0.059,-0.048 -0.113,-0.102 -0.157,-0.164 -0.442,-0.651 -0.281,-1.503 -0.179,-2.236 0.157,-0.89 0.368,-1.77 0.617,-2.638 0.496,-1.64 1.205,-3.206 1.968,-4.738 -0.166,-0.219 -0.336,-0.434 -0.511,-0.64 -0.472,-0.484 -0.965,-0.947 -1.478,-1.387 -1.484,7.303 -1.808,14.597 -2.186,22.259 m 38.88,114.78 c -0.312,0.076 -0.57,0.138 -0.592,0.173 -0.538,0.277 -0.623,0.411 -0.829,0.585 0.463,-0.251 0.807,-0.135 1.064,0.189 0.011,-0.033 0.022,-0.065 0.033,-0.098 0.044,-0.128 0.563,-0.578 0.686,-0.719 -0.131,-0.014 -0.254,-0.059 -0.362,-0.13 m -2.153,2.884 c -0.675,0.901 -1.205,1.611 -1.147,2.223 -0.002,0.055 0.007,0.164 0.012,0.229 0.003,0.016 0.006,0.032 0.01,0.048 0.003,0.004 0.006,0.008 0.01,0.015 0.013,0.012 0.026,0.026 0.041,0.04 0.023,0.005 0.051,0.012 0.079,0.019 0.005,0 0.01,0 0.015,0 0.03,-0.011 0.077,-0.025 0.118,-0.038 0.05,-0.025 0.1,-0.051 0.147,-0.08 0.728,-0.426 1.625,-2.041 2.051,-3.101 -0.064,-0.237 -0.137,-0.439 -0.22,-0.607 -0.01,0.006 -0.021,0.011 -0.03,0.017 -0.14,0.067 -0.989,1.08 -1.086,1.235 m -30.531,137.182 c 0.629,1.077 1.344,2.102 2.087,3.104 1.431,1.813 3.743,4.626 5.559,6.67 1.236,1.315 2.411,2.73 3.764,3.5 0.962,0.522 1.916,0.881 2.271,0.534 0.004,-0.008 0.008,-0.017 0.012,-0.025 -0.001,-0.028 -0.003,-0.057 -0.005,-0.085 l -0.009,-0.054 c -0.03,-0.123 -0.062,-0.245 -0.106,-0.363 -1.014,-2.141 -2.94,-4.227 -4.893,-6.167 -1.425,-1.429 -2.824,-2.885 -4.3,-4.261 -1.635,-1.443 -3.387,-2.976 -5.141,-4.473 0.157,0.685 0.363,0.897 0.761,1.62 m 33.537,-87.519 c -0.707,1.78 -1.376,3.617 -2.03,5.58 -1.474,4.355 -2.599,8.664 -1.654,12.833 0.659,2.866 1.9,2.13 2.781,-0.242 0.787,-1.814 1.057,-3.576 1.204,-5.274 0.227,-4.3 -0.088,-8.598 -0.301,-12.897 m 73.67,-4.957 c 1.187,1.981 2.268,4.031 3.219,6.136 1.252,2.833 2.282,5.757 3.47,8.616 1.021,2.434 1.774,4.68 2.839,6.828 0.316,0.648 0.645,1.187 0.924,1.371 0.094,-0.144 0.058,-0.183 0.148,-0.52 0.105,-0.622 0.129,-0.774 0.166,-1.299 0.146,-2.847 -0.337,-5.196 -1.066,-8.008 -0.634,-2.208 -1.504,-4.287 -2.348,-6.101 -0.52,-1.188 -1.818,-2.927 -2.267,-3.599 -1.155,-1.49 -2.321,-2.86 -3.597,-4.062 -1.051,-0.593 -2.094,-1.199 -3.124,-1.828 -0.006,-0.004 -0.013,-0.008 -0.019,-0.012 0.576,0.811 1.129,1.638 1.655,2.478 m -88.753,-26.457 c -0.379,0.082 -0.761,0.173 -1.149,0.276 -1.814,0.457 -3.04,0.999 -4.535,2.189 -0.335,0.225 -1.321,1.241 -1.659,1.877 -0.169,0.323 -0.431,0.943 -0.486,1.317 0.061,-0.035 0.137,-0.08 0.166,-0.109 1.141,-0.854 2.947,-2.564 4.448,-3.594 1.034,-0.714 2.118,-1.347 3.215,-1.956 m 7.294,-0.556 c -1.613,-0.049 -3.077,-0.023 -4.517,0.12 -1.829,0.978 -3.684,1.915 -5.409,3.073 -1.293,0.861 -2.139,1.657 -3.435,2.717 -0.559,0.405 -1.047,0.982 -1.722,1.184 -0.878,0.153 -1.031,-0.806 -0.761,-1.453 0.433,-1.444 1.448,-2.655 2.655,-3.532 1.315,-1.09 2.912,-1.742 4.553,-2.163 1.244,-0.348 2.514,-0.58 3.794,-0.727 0.086,-0.047 0.172,-0.094 0.258,-0.141 1.297,-0.742 2.619,-1.443 3.895,-2.223 1.553,-0.956 2.702,-1.794 3.549,-3.507 0.128,-0.248 0.054,-0.123 0.216,-0.531 0.135,-0.387 0.234,-0.786 0.299,-1.191 0.072,-0.846 0.037,-1.699 -0.009,-2.547 -0.048,-1.45 -0.571,-2.35 -1.974,-3.129 -0.353,-0.196 -6.824,-3.455 -15.512,5.865 -1.694,1.818 -3.018,4.153 -4.176,6.653 -1.283,2.713 -2.317,5.301 -2.921,8.431 -0.318,1.371 -0.611,3.202 -0.584,4.14 0.821,-0.392 1.658,-0.749 2.494,-1.105 2.497,-1.064 12.181,-5.804 15.907,-7.457 1.871,-0.83 3.873,-1.485 5.719,-2.284 -0.776,-0.092 -1.551,-0.182 -2.319,-0.193 m -61.247,58.251 c -1.38,1.498 -2.32,3.079 -3.424,5.039 -0.461,0.757 -0.635,1.465 -1.058,2.487 -0.245,0.782 -0.435,1.02 -0.333,1.747 0.014,0.055 0.042,0.166 0.065,0.24 0.018,0.045 0.053,0.12 0.092,0.162 0.048,0.059 0.119,0.174 0.127,0.193 0.045,0.053 0.1,0.105 0.132,0.134 0.02,0.012 0.039,0.024 0.059,0.036 0.021,0.005 0.037,0.009 0.052,0.012 0.06,0.003 0.12,0.001 0.179,-0.005 0.012,-0.011 0.113,-0.042 0.139,-0.045 0.3,-0.142 0.302,-0.203 0.63,-0.566 0.217,-0.28 1.163,-1.62 1.519,-2.355 1.687,-3.316 3.013,-6.584 4.378,-9.849 -0.845,0.93 -1.701,1.851 -2.557,2.77 m 57.744,54.256 c 2.189,0.087 4.382,-0.016 6.569,-0.129 2.301,-0.124 4.01,-0.206 6.19,-0.985 2.212,-0.773 4.727,-2.368 6.859,-4.008 0.77,-0.573 2.533,-2.042 3.483,-3.092 0.794,-0.845 1.419,-1.813 2.192,-2.979 0.554,-0.867 1.081,-1.751 1.58,-2.65 -0.714,0.725 -1.479,1.4 -2.309,2.003 -1.829,1.346 -3.769,2.535 -5.779,3.59 -1.698,0.79 -3.43,1.511 -5.202,2.121 -3.236,1.105 -6.552,2.01 -9.947,2.459 -4.293,0.662 -8.651,0.31 -12.965,0.702 -1.331,0.133 -2.284,0.169 -3.387,0.436 4.248,1.318 8.483,2.363 12.716,2.532 m 32.241,-23.501 c 0.253,-0.592 0.607,-1.38 0.922,-2.225 -0.055,0.109 -0.108,0.217 -0.156,0.323 -0.548,1.093 -1.024,2.228 -1.489,3.393 0.275,-0.517 0.524,-1.023 0.723,-1.491 m -53.451,-46.685 c -0.623,1.262 -1.336,3.622 -1.404,4.992 -0.132,1.399 0.101,2.383 0.395,2.664 0.046,0.026 0.082,0.046 0.104,0.061 v 0 0 c 10e-4,0 0.002,0.001 0.002,0.001 0.002,0 0.003,0 0.004,0 0.071,0.02 0.057,0.009 0.007,10e-4 0.039,0 0.084,-10e-4 0.121,-0.004 0.055,-0.025 0.11,-0.031 0.119,-0.024 0.06,-0.032 0.123,-0.07 0.155,-0.088 0.005,-0.005 0.009,-0.01 0.014,-0.014 -0.003,0.003 -0.005,0.006 -0.008,0.01 0.001,-0.001 0.001,0 0.002,-0.001 0.006,-0.007 0.011,-0.015 0.017,-0.022 -0.004,0.004 -0.007,0.008 -0.011,0.013 0.035,-0.051 0.045,-0.062 0.039,-0.052 0.031,-0.04 0.063,-0.08 0.091,-0.122 0.79,-1.277 1.139,-2.801 1.674,-4.468 0.711,-2.396 1.459,-4.782 2.291,-7.139 0.338,-0.953 0.683,-1.904 1.016,-2.859 -1.565,2.126 -3.371,4.494 -4.628,7.051 m 75.487,-15.033 c 0.475,2.909 0.522,7.28 0.787,10.748 0.282,3.305 0.795,7.163 1.826,9.996 0.35,0.841 0.72,1.464 1.056,1.572 0.032,-0.016 0.064,-0.032 0.096,-0.048 0.974,-1.218 1.119,-5.711 0.927,-8.587 -0.226,-3.262 -0.845,-6.495 -1.613,-9.946 -0.677,-3.038 -1.55,-6.378 -2.795,-8.831 -0.852,-1.641 -1.795,-3.145 -2.831,-4.565 1.173,3.125 2.041,6.367 2.547,9.661 m -4.684,56.965 c -0.633,-0.797 -1.26,-1.728 -2.001,-2.151 -0.039,-0.035 -0.142,-0.084 -0.196,-0.108 -0.018,-0.006 -0.037,-0.013 -0.057,-0.019 0.061,0.262 0.129,0.226 0.308,0.624 0.906,1.522 1.982,2.617 3.331,3.892 -0.416,-0.772 -0.869,-1.522 -1.385,-2.238 m 33.034,38.391 c -0.637,-0.147 -1.737,0.098 -2.813,0.526 -1.839,0.592 -3.892,2.027 -5.889,3.066 -3.409,1.789 -6.532,2.837 -10.049,4.241 -0.133,0.054 -0.266,0.109 -0.398,0.165 -0.046,0.026 -0.118,0.064 -0.158,0.073 -0.109,0.052 -0.216,0.109 -0.321,0.169 2.678,-0.032 5.834,-0.47 8.744,-1.32 3.12,-0.866 6.099,-2.618 8.913,-4.701 0.935,-0.693 1.759,-1.231 2.541,-1.827 -0.107,-0.19 -0.293,-0.327 -0.57,-0.392 m -19.093,12.679 c -2.065,0.746 -4.914,1.725 -5.483,2.77 -0.004,0.023 -0.008,0.047 -0.012,0.07 0.037,0.026 0.09,0.061 0.128,0.063 -0.14,-0.066 -0.058,-0.034 0.035,-0.012 0.15,0.012 0.301,0.005 0.452,0.002 0.356,-0.022 0.962,-0.089 0.973,-0.099 3.82,-0.634 7.052,-2.701 10.365,-4.778 -2.166,0.618 -4.321,1.27 -6.458,1.984 M 0.401,3.177 C 0.167,3.42 -0.174,3.616 -0.518,3.6 -0.833,3.564 -1.088,3.37 -1.327,3.178 -2.891,1.667 -3.484,-0.582 -3.9,-2.653 c -0.461,-3.032 -0.429,-6.113 -0.595,-9.169 -0.002,-0.039 -0.005,-0.076 -0.006,-0.114 -1.725,-3.184 -3.648,-6.048 -6.005,-8.712 -0.751,-0.848 -1.543,-1.655 -2.355,-2.442 0.723,3.206 0.848,6.38 1.499,9.641 1.06,5.428 1.292,11.022 0.597,16.512 -0.485,3.701 -1.241,7.381 -2.537,10.889 -1.598,4.408 -4.295,8.322 -7.32,11.87 -1.926,2.261 -4.188,4.2 -6.542,6 -3.684,2.989 -8.572,6.106 -11.959,8.609 -2.049,1.478 -3.639,3.467 -5.549,5.104 -1.675,1.503 -3.648,2.603 -5.667,3.574 -2.003,0.979 -4.053,1.855 -6.172,2.552 -2.865,1.016 -5.821,1.731 -8.758,2.5 -0.492,0.132 -0.984,0.264 -1.475,0.398 -0.962,0.569 -1.914,1.154 -2.862,1.746 -1.981,1.272 -3.992,2.512 -6.166,3.432 -1.404,0.581 -2.845,1.12 -4.365,1.293 -0.601,0.062 -1.244,0.196 -1.824,-0.015 -1.16,-0.542 -0.309,-1.771 0.458,-2.243 0.975,-0.678 2.075,-1.143 3.175,-1.573 1.82,-0.716 3.687,-1.304 5.55,-1.896 2.041,-0.647 4.1,-1.227 6.165,-1.792 2.916,-1.787 8.093,-3.801 9.833,-6.632 0.123,-0.237 0.219,-0.464 0.286,-0.678 -1.059,0.818 -1.83,1.324 -3.032,2.184 -4.088,3.048 -9.001,4.757 -14.059,5.233 -0.786,0.08 -1.573,0.153 -2.362,0.202 -0.527,0.017 -1.076,0.087 -1.589,-0.056 -0.292,-0.123 -0.497,-0.434 -0.428,-0.756 0.097,-0.353 0.382,-0.572 0.677,-0.76 0.555,-0.345 1.183,-0.549 1.783,-0.8 3.471,-1.35 6.449,-2.376 9.687,-4.127 1.863,-1.005 3.618,-2.242 5.645,-2.91 0.907,-0.322 1.848,-0.653 2.825,-0.607 0.592,-0.002 1.164,0.295 1.497,0.76 0.357,-0.3 0.708,-0.625 1.062,-0.997 0.813,-0.836 1.736,-2.65 1.808,-3.56 0.172,-2.386 -1.147,-4.401 -3.089,-5.074 -1.907,-0.731 -3.931,-1.035 -5.899,-1.546 -1.872,-0.516 -3.67,-1.263 -5.429,-2.077 -3.346,-1.613 -6.475,-3.669 -9.374,-5.986 -4.077,-3.115 -7.508,-7.107 -9.609,-11.812 -0.42,-0.92 -0.822,-1.851 -1.245,-2.772 -0.568,-0.482 -1.125,-0.978 -1.666,-1.493 -1.512,-1.429 -3.041,-2.968 -3.909,-4.887 -0.256,-0.674 0.077,-1.457 0.887,-1.29 0.985,0.252 1.668,1.084 2.298,1.827 1.305,1.591 2.252,3.401 3.11,5.257 0.902,0.773 1.766,1.461 2.747,2.168 2.272,1.616 4.539,3.24 6.824,4.838 2.014,1.391 4.099,2.673 6.18,3.962 3.206,1.987 6.682,3.892 9.933,5.002 1.872,0.638 4.004,1.04 5.605,1.228 1.684,0.24 3.382,0.369 5.083,0.341 3.44,-0.043 6.26,-0.319 9.571,-1.259 3.038,-0.819 5.74,-2.404 7.987,-4.32 2.346,-2.145 4.324,-4.437 5.945,-6.854 1.795,-2.823 2.849,-5.404 3.94,-8.438 0.954,-2.765 1.814,-5.564 2.404,-8.431 1.39,-6.018 1.707,-12.173 0.006,-18.141 -1.696,-5.733 -5.175,-11.066 -9.109,-15.479 -3.057,-3.328 -6.216,-6.073 -9.814,-8.424 -2.47,-1.653 -4.968,-3.269 -7.595,-4.665 -1.091,-0.573 -2.181,-1.149 -3.266,-1.733 1.347,1.548 2.406,3.008 3.515,4.938 0.794,1.47 1.36,3.049 1.968,4.601 0.653,1.742 1.112,3.555 1.433,5.386 0.357,1.933 0.521,3.902 0.344,5.864 -0.1,0.623 -0.077,1.333 -0.473,1.857 -0.351,0.466 -1.028,0.268 -1.362,-0.12 -0.763,-0.849 -1.189,-1.94 -1.678,-2.957 -0.64,-1.446 -1.008,-2.359 -1.611,-3.859 -1.662,-3.878 -2.929,-7.568 -4.637,-11.142 -1.65,-3.369 -3.705,-6.777 -5.861,-9.469 -0.23,-0.155 -0.458,-0.312 -0.682,-0.474 -0.91,-0.3 -1.869,-0.541 -2.934,-0.788 -2.197,-0.488 -4.401,-0.955 -6.565,-1.576 -4.73,-1.376 -8.807,-4.282 -12.716,-7.187 -3.011,-2.195 -5.299,-4.304 -8.411,-6.181 -1.465,-0.832 -2.849,-1.265 -3.141,-0.592 -0.002,0.009 -0.005,0.018 -0.007,0.027 -0.006,0.053 -0.02,0.182 -0.001,0.262 0.035,0.134 -0.009,0.084 0.076,0.42 0.076,0.293 0.168,0.581 0.286,0.86 0.584,1.197 2.003,3.459 2.886,5.071 0.274,0.554 0.538,1.113 0.793,1.676 1.882,2.202 3.557,4.573 4.894,7.151 1.268,2.529 2.013,5.269 2.667,8.009 0.679,2.889 1.251,5.803 1.656,8.744 0.354,2.615 0.753,9.736 -0.943,11.773 -3.053,2.338 -4.241,-8.656 -4.479,-10.393 -0.405,-3.243 -0.45,-6.518 -0.741,-9.772 -0.361,-3.639 -1.173,-7.481 -2.541,-11.267 -0.59,-1.59 -1.016,-2.776 -1.644,-4.129 -1.119,-1.269 -2.382,-2.439 -3.617,-3.732 -11.088,-11.611 -20.58,-4.965 -21.484,-4.332 -0.829,0.582 -1.786,1.369 -2.745,2.331 -1.136,1.192 -1.705,2.069 -2.62,3.564 -0.972,1.599 -1.341,2.58 -1.951,4.311 -1.332,4.081 -2.449,8.106 -4.121,11.659 -0.191,0.427 -0.377,0.855 -0.562,1.285 0.143,4.617 0.564,9.229 0.377,13.85 -0.103,2.249 -0.378,4.536 -1.278,6.619 -0.511,1.087 -0.986,2.757 -2.382,2.912 -2.055,0.18 -2.364,-3.152 -2.529,-4.635 -0.353,-3.834 0.681,-7.635 1.86,-11.249 0.654,-2 1.344,-3.99 2.105,-5.952 0.272,-0.686 0.542,-1.335 0.808,-1.966 -0.082,-2.466 -0.088,-4.932 0.106,-7.399 0.181,-3.013 0.534,-6.018 1.1,-8.982 -1.418,1.373 -3.356,3.135 -5.077,4.166 -1.715,1.058 -3.602,1.805 -5.509,2.437 -1.444,0.496 -4.127,1.189 -5.004,1.58 -2.461,1.031 -4.133,2.115 -5.82,4.024 -2.031,2.392 -3.797,4.946 -5.729,7.625 -0.026,0.096 -0.053,0.191 -0.078,0.286 -0.918,2.888 -2.034,5.708 -2.956,8.594 -0.564,1.727 -1.067,3.472 -1.611,5.205 -0.404,1.186 -0.727,2.445 -1.455,3.481 -0.345,0.546 -1.093,0.796 -1.69,0.536 -0.492,-0.266 -0.752,-0.82 -0.889,-1.341 -0.671,-4.364 1.653,-8.559 4.024,-12.05 1.28,-1.853 2.584,-3.688 3.893,-5.521 0.151,-0.53 0.296,-1.063 0.423,-1.601 0.526,-2.052 0.433,-3.576 -0.848,-3.244 -0.313,0.004 -0.775,0.41 -1.276,0.746 -0.641,0.448 -1.822,1.493 -2.677,2.323 -2.91,2.845 -5.149,5.813 -7.432,8.85 -3.165,4.346 -6.107,8.852 -8.856,13.472 -3.218,5.432 -7.169,11.383 -8.088,17.007 -0.42,3.582 0.147,6.557 1.117,9.932 0.651,2.179 1.251,3.921 2.139,5.801 1.414,3.034 3.043,5.975 4.999,8.695 1.429,1.824 3.797,4.672 5.856,6.543 4.739,4.64 9.607,6.976 15.882,9.011 0.929,-0.385 1.963,-0.598 2.835,-0.673 2.027,-0.261 4.069,-0.396 6.111,-0.447 3.357,-0.042 6.756,-0.122 9.72,-0.636 3.732,-0.628 7.381,-1.71 10.905,-3.082 3.389,-1.288 7.108,-3.446 9.874,-5.785 1.368,-1.164 2.482,-2.579 3.569,-3.999 0.009,-0.012 0.019,-0.026 0.029,-0.038 0.109,-0.253 0.218,-0.506 0.322,-0.761 0.923,-2.142 1.909,-5.095 3.15,-7.522 0.402,-0.711 1.508,-3.43 2.417,-1.86 0.107,0.382 -0.027,0.771 -0.131,1.14 -0.187,0.623 -0.412,1.235 -0.644,1.843 -0.738,2.012 -1.712,3.93 -2.86,5.738 -0.52,0.762 -1.052,1.522 -1.608,2.264 -0.885,2.002 -1.943,3.921 -3.097,5.78 -0.772,1.226 -1.602,2.418 -2.56,3.506 -0.824,0.876 -1.721,1.679 -2.651,2.44 -3.27,2.598 -6.914,5.058 -11.14,5.634 -3.177,0.34 -6.382,0.447 -9.575,0.412 -2.911,-0.099 -5.795,-0.555 -8.616,-1.269 -2.005,-0.501 -4.006,-1.054 -5.98,-1.688 -0.893,0.402 -1.569,0.94 -1.716,1.904 -0.113,2.152 2.171,5.062 4.257,7.173 4.15,3.917 10.157,6.203 15.494,8.891 1.608,0.788 3.241,1.525 4.884,2.238 0.963,0.441 1.972,0.816 2.825,1.458 0.302,0.212 0.577,0.484 0.674,0.851 0.066,0.418 -0.177,0.871 -0.574,1.029 -0.518,0.201 -1.098,0.162 -1.644,0.166 -0.894,-0.019 -1.785,-0.113 -2.671,-0.228 -2.108,-0.351 -4.209,-0.82 -6.218,-1.555 -3.899,-1.517 -7.472,-3.741 -10.804,-6.251 -2.049,-1.537 -4.089,-3.086 -6.135,-4.629 -1.398,-1.051 -2.768,-2.159 -4.286,-3.036 -0.459,-0.259 -1.07,-0.507 -1.548,-0.679 0.83,0.713 1.66,1.427 2.493,2.136 2.082,1.763 3.977,3.724 5.884,5.669 1.855,1.875 3.71,3.779 5.026,6.085 0.29,0.516 0.597,1.088 0.543,1.694 -0.069,0.591 -0.734,0.894 -1.277,0.895 -1.156,-0.128 -2.242,-0.703 -3.154,-1.404 -1.392,-1.114 -2.554,-2.485 -3.734,-3.814 -1.272,-1.483 -2.536,-2.973 -3.771,-4.487 -1.015,-1.272 -4.347,-5.426 -4.217,-6.969 0.05,-0.128 0.11,-0.239 0.176,-0.335 -1.945,-1.649 -3.871,-3.234 -5.619,-4.583 -2.159,-1.679 -4.455,-3.179 -6.576,-4.907 -2.743,-2.342 -5.264,-4.955 -7.51,-7.777 -1.433,-1.794 -2.747,-3.693 -3.8,-5.736 -0.668,-1.35 -1.199,-2.766 -1.737,-4.172 -1.241,-3.422 -2.302,-6.934 -2.87,-10.534 -0.38,-2.741 -0.159,-5.517 0.122,-8.257 0.318,-3.218 0.78,-6.435 1.695,-9.543 1.241,-4.267 3.219,-8.278 5.365,-12.155 2.004,-3.677 5.012,-7.684 6.388,-11.122 0.193,-0.537 0.378,-1.082 0.473,-1.646 0,-0.072 0.005,-0.193 0.014,-0.193 -0.015,-0.099 -0.038,-0.196 -0.074,-0.29 -0.006,-0.011 -0.011,-0.024 -0.018,-0.035 -0.967,0.556 -1.646,1.094 -2.306,1.649 -1.594,1.352 -3.014,2.891 -4.383,4.466 -2.572,2.962 -4.414,5.675 -6.971,8.754 -0.522,0.654 -1.056,1.297 -1.6,1.931 -1.645,3.723 -3.09,7.527 -4.958,11.391 -0.528,1.106 -1.116,2.185 -1.843,3.174 -0.561,0.819 -1.367,1.839 -2.486,1.494 -0.823,-0.369 -1.199,-1.358 -1.117,-2.219 0.058,-0.697 0.366,-1.338 0.587,-1.993 0.463,-1.317 1.095,-2.564 1.815,-3.758 1.315,-2.346 3.157,-4.302 4.975,-6.259 0.792,-0.876 1.558,-1.774 2.314,-2.68 0.75,-1.71 1.545,-3.422 2.447,-5.143 1.581,-2.984 3.298,-5.915 5.402,-8.565 2.017,-2.59 4.387,-4.871 6.741,-7.149 4.59,-4.268 9.569,-8.244 15.256,-10.948 4.343,-2.078 8.97,-3.415 13.568,-4.79 2.745,-0.809 4.847,-1.809 7.535,-3.181 2.065,-1.044 4.122,-2.109 6.221,-3.084 1.582,-0.732 3.219,-1.35 4.729,-2.228 1.605,-1.018 2.67,-1.979 4.324,-3.644 1.241,-1.249 5.095,-6.073 -1.35,-3.576 -1.143,0.442 -2.32,0.483 -3.507,0.399 -2.32,1.163 -4.95,2.007 -6.978,2.906 -3.684,1.63 -18.251,8.648 -19.045,8.747 -1.15,0.144 -0.465,-2.65 -0.491,-2.865 0.295,-1.953 0.704,-3.892 1.26,-5.787 0.465,-1.489 1.076,-2.928 1.703,-4.355 0.929,-2.076 1.908,-4.15 3.246,-6 1.293,-1.787 8.575,-10.394 16.003,-8.663 1.376,0.32 2.756,0.964 3.674,2.067 0.659,0.719 0.884,2.147 0.903,2.659 0.208,2.344 0.052,4.214 -1.47,6.12 -0.84,1.101 -2.031,1.866 -3.195,2.586 -0.73,0.435 -1.471,0.849 -2.214,1.261 1.368,-0.056 2.739,-0.03 4.103,0.096 0.805,0.075 1.607,0.198 2.412,0.27 0.799,-0.425 1.547,-0.9 2.214,-1.46 0.678,-0.636 0.954,-1.013 1.39,-1.664 0.408,-0.703 0.58,-0.935 0.714,-1.659 0.315,-2.142 -0.954,-5.406 -1.455,-8.166 -0.172,-1.023 -0.279,-2.231 -0.422,-3.286 -0.382,0.75 -0.847,1.453 -1.441,2.06 -1.515,1.416 -2.768,0.071 -2.122,-1.64 0.426,-1.026 1.185,-1.875 1.879,-2.728 0.161,-0.182 0.311,-0.326 0.452,-0.444 -0.026,0.015 -0.051,0.03 -0.08,0.047 -0.34,0.103 -0.682,-0.247 -0.575,-0.584 0.472,-0.895 1.333,-1.519 2.227,-1.975 0.021,-0.055 0.041,-0.109 0.062,-0.163 0.196,-0.411 0.439,-0.805 0.723,-1.165 0.241,-0.653 0.554,-1.27 0.949,-1.697 -0.022,0.002 -0.044,0.004 -0.066,0.006 -0.346,0.017 -0.67,-0.172 -0.854,-0.461 -0.073,-0.098 -0.203,-0.586 -0.109,-0.348 -0.242,-0.879 -0.078,-1.826 -0.081,-2.729 0.041,-0.963 -0.012,-1.927 -0.134,-2.883 -0.376,-3.541 -2.918,-8.511 -4.739,-13.853 -1.583,-4.644 -3.077,-9.316 -4.727,-13.936 -1.645,-4.672 -3.167,-9.17 -5.395,-13.442 -1.045,-2.019 -2.137,-4.014 -3.242,-6.001 0.298,0.796 0.585,1.595 0.865,2.397 0.289,0.875 0.595,1.747 0.757,2.656 0.073,0.56 0.225,1.161 0.037,1.709 -0.443,0.969 -1.425,0.013 -2.004,-0.31 -0.88,-0.566 -1.744,-1.157 -2.609,-1.748 -2.187,-1.474 -4.115,-3.289 -5.838,-5.28 -3.093,-3.398 -5.568,-7.291 -7.856,-11.261 -9.874,-17.128 -7.618,-27.091 -7.306,-28.769 0.274,-1.476 0.727,-2.909 1.256,-4.312 -0.024,-1.942 0.172,-3.878 0.309,-5.814 0.2,-3.077 0.372,-6.156 0.505,-9.238 0.274,-6.565 0.774,-13.164 2.125,-19.603 -11.869,-9.205 -30.817,-4.834 -32.32,24.141 -0.393,7.56 1.178,15.048 3.517,22.202 2.317,7.473 5.824,14.529 10.035,21.11 1.005,1.588 2.013,3.174 3.02,4.762 1.297,1.827 2.599,3.651 3.898,5.477 1.455,1.728 3.433,4.367 5.229,6.253 2.701,2.908 5.653,5.608 8.926,7.861 3.68,2.335 7.245,3.884 11.47,4.893 1.794,0.366 3.78,0.633 5.266,0.808 0.659,0.08 1.319,0.152 1.979,0.217 0.165,0.017 0.348,0.007 0.469,0.14 0.164,0.156 0.164,0.446 0,0.602 -0.228,0.218 -0.558,0.079 -0.837,0.075 -0.891,-0.089 -1.782,-0.183 -2.67,-0.301 -1.675,-0.233 -3.36,-0.438 -5.005,-0.836 -1.883,-0.457 -3.709,-1.122 -5.483,-1.894 -1.763,-0.782 -3.498,-1.645 -5.125,-2.684 -1.76,-1.147 -3.389,-2.487 -4.972,-3.865 -3.879,-3.396 -7.177,-7.391 -10.29,-11.483 -1.169,-1.655 -2.353,-3.301 -3.515,-4.961 -1.233,-1.95 -2.465,-3.9 -3.701,-5.848 -3.941,-6.333 -7.213,-13.094 -9.427,-20.226 -2.395,-7.313 -3.953,-14.979 -3.517,-22.704 1.517,-26.87 18.878,-35.151 33.251,-24.647 0.128,-0.575 0.261,-1.15 0.403,-1.722 0.66,-2.524 1.32,-5.051 2.161,-7.522 1.301,-3.777 2.731,-7.511 3.852,-11.349 0.935,-2.944 1.746,-5.928 2.763,-8.845 0.679,-1.96 1.473,-3.879 2.085,-5.862 0.586,-1.748 0.99,-3.547 1.403,-5.341 0.593,-2.905 1.12,-5.825 1.653,-8.741 0.397,-2.37 0.687,-4.757 1.137,-7.117 0.709,-3.979 1.724,-7.895 2.496,-11.861 0.498,-2.604 0.823,-5.237 1.291,-7.847 0.521,-2.786 1.167,-5.546 1.758,-8.318 1,-4.797 1.725,-9.647 2.712,-14.447 0.704,-3.444 1.646,-6.875 3.219,-10.031 1.36,-2.26 2.842,-4.577 4.991,-6.163 0.805,-0.456 1.722,-0.363 1.834,0.762 0.055,1.122 -0.185,2.242 -0.351,3.347 -0.275,1.58 -0.596,3.151 -0.954,4.715 -1.643,7.544 -4.314,14.809 -6.179,22.296 -0.785,3.07 -1.559,6.473 -1.866,9.195 -0.335,2.755 -0.383,5.534 -0.463,8.306 -0.096,3.781 -0.053,7.565 -0.158,11.345 -0.116,3.542 -0.34,7.08 -0.562,10.617 -0.35,4.736 -1.09,9.43 -1.827,14.118 -0.503,3.257 -0.859,6.537 -1.507,9.77 -0.528,2.781 -1.424,5.51 -3.009,7.877 -2.904,4.542 -7.8,8.311 -10.71,12.325 -0.936,1.284 -1.742,2.658 -2.48,4.066 0.521,0.737 0.974,1.522 1.373,2.331 0.122,0.232 0.237,0.467 0.347,0.704 1.137,-1.913 2.154,-3.895 3.252,-5.831 2.215,-3.884 4.467,-7.749 6.913,-11.493 2.337,-3.567 5.019,-6.918 6.99,-10.714 1.724,-3.223 2.643,-6.799 4.197,-10.366 0.294,-0.566 0.545,-1.218 1.062,-1.619 0.331,-0.259 0.792,-0.203 0.988,0.114 0.328,-3.793 0.752,-7.578 1.333,-11.339 0.835,-4.908 2.068,-9.736 3.232,-14.574 1.13,-4.454 2.156,-8.946 3.631,-13.301 1.561,-4.386 3.446,-8.665 5.599,-12.791 1.413,-2.692 3.137,-5.199 4.813,-7.729 2.442,-3.674 4.275,-7.284 5.532,-11.319 1.798,-5.549 3.372,-11.188 5.769,-16.52 0.803,-1.724 1.637,-3.447 2.699,-5.029 0.719,-1.031 1.501,-2.058 2.582,-2.732 3.311,-2.152 3.07,1.423 3.092,3.769 0.041,2.863 -0.152,5.727 -0.585,8.558 -0.69,4.72 -1.684,9.39 -2.652,14.059 -1.465,7.49 -3.298,14.898 -5.075,22.319 -1.759,6.949 -3.025,14.005 -4.145,21.081 -0.738,4.708 -1.465,9.071 -2.017,13.562 1.723,3.855 3.304,7.777 4.576,11.806 1.01,2.964 1.686,6.327 3.041,8.795 0.27,0.414 0.206,0.346 0.453,0.574 -0.157,-0.06 -0.013,0.006 0.121,0.039 0.015,-0.002 0.029,-0.005 0.043,-0.007 0.067,-0.049 0.12,-0.115 -0.005,0 0.479,-0.71 0.862,-3.198 0.978,-4.417 0.28,-2.805 0.409,-5.621 0.536,-8.435 0.165,-4.366 0.419,-8.728 0.71,-13.088 0.215,-3.286 0.5,-6.571 0.565,-9.865 0.121,-6.968 0.022,-13.938 0.083,-20.906 -0.007,-8.187 0.611,-16.354 1.197,-24.516 0.26,-3.069 0.8,-6.109 1.587,-9.087 0.335,-1.294 0.733,-2.569 1.135,-3.843 -0.114,-3.056 -0.198,-6.112 -0.246,-9.17 0,-1.483 0.043,-2.966 0.096,-4.448 0.078,-1.097 -0.006,-2.231 0.288,-3.294 0.094,-0.195 0.266,-0.363 0.46,-0.459 0.421,-0.132 0.956,-0.051 1.209,0.348 0.364,0.538 0.468,1.208 0.63,1.827 0.19,0.859 0.316,1.73 0.379,2.607 0.128,1.702 0.171,3.412 -0.018,5.111 -0.198,2.547 -0.939,4.988 -1.71,7.41 0.376,9.931 1.062,19.849 1.946,29.747 0.714,8.568 1.155,17.084 2.593,25.193 0.933,5.594 2.017,11.162 3.251,16.697 1.071,4.765 2.218,9.513 3.36,14.262 0.837,3.501 1.716,6.995 2.352,10.541 0.477,2.812 0.839,4.991 1.135,7.649 0.357,3.372 0.556,6.759 0.899,10.132 0.047,0.483 0.095,0.957 0.143,1.429 0.039,-0.212 0.098,-0.418 0.204,-0.607 0.098,-0.152 0.259,-0.273 0.445,-0.273 0.149,-0.002 0.278,0.083 0.388,0.176 0.247,0.329 0.321,0.758 0.474,1.135 0.302,0.85 0.617,1.695 0.948,2.534 0.492,1.244 1.711,3.546 2.53,5.133 0.817,1.654 1.573,3.338 2.388,4.993 0.832,1.7 1.713,3.382 2.366,5.162 0.958,2.814 2.051,5.598 2.687,8.508 0.475,2.323 0.899,4.664 1.14,7.025 0.201,2.565 0.113,5.148 -0.27,7.693 -0.263,1.866 -0.545,3.731 -0.939,5.574 -0.342,1.548 -0.777,3.074 -1.077,4.632 -0.705,3.8 -1.157,7.484 -0.976,11.595 0.197,4.35 0.972,8.655 1.103,13.01 0.116,3.279 -0.417,6.535 -0.874,9.772 -0.662,4.69 -1.825,13.272 -3.658,20.96 -0.744,3.122 -1.395,6.271 -1.834,9.452 -0.285,2.072 -0.508,5.124 -1.386,7.463 -0.438,1.296 -1.044,2.527 -1.679,3.737 -0.552,1.032 -1.088,2.083 -1.831,2.993 -1.146,1.465 -2.963,2.254 -4.713,2.744 -1.888,0.406 -3.961,0.367 -5.73,-0.467 -2.182,-1.11 -3.844,-3.151 -4.625,-5.469 -0.048,0.185 -0.094,0.372 -0.134,0.561 -0.336,1.416 -0.451,2.433 0.077,3.84 0.491,1.653 1.92,1.926 3.575,2.888 1.063,0.548 1.681,0.994 2.74,1.21 0.62,0.115 2.397,0.003 3.103,-0.195 0.862,-0.234 1.151,-0.374 1.9,-0.862 0.658,-0.398 0.99,-0.716 1.6,-1.395 0.437,-0.487 0.522,-0.709 0.985,-1.295 0.225,-0.289 0.439,-0.6 0.765,-0.784 0.846,-0.478 0.96,1.034 0.645,2.016 -0.325,1.015 -0.627,2.048 -0.409,2.359 0.216,0.505 1.001,0.971 1.523,1.608 0.726,0.825 1.364,1.722 1.987,2.626 0.507,0.769 1.055,1.584 1.23,2.5 0.058,0.348 -0.129,0.74 -0.519,0.736 -0.534,-0.05 -0.772,-0.639 -1.115,-0.982 -1.042,-1.151 -2.261,-2.725 -3.018,-3.603 -0.334,-0.385 -0.652,-0.703 -0.975,-0.957 0.178,0.336 0.293,0.712 0.361,1.087 0.038,0.098 0.073,0.197 0.099,0.299 0.058,0.223 0.119,0.626 0.049,0.911 0.639,0.02 1.227,-0.045 1.354,0.021 0.318,0.056 0.633,0.383 0.524,0.72 -0.169,0.363 -0.33,0.326 -0.54,0.412 -0.094,0.017 -0.189,0.026 -0.283,0.036 0.234,0.108 1.047,1.323 1.305,1.912 0.282,0.642 0.552,1.308 0.599,2.015 0.073,0.721 -0.383,1.033 -1.05,0.979 -0.013,0.001 -0.018,0.002 -0.027,0.003 -0.015,0.003 -0.029,0.007 -0.043,0.012 -0.006,0.004 -0.015,0.009 -0.02,0.01 -0.011,0.023 -0.025,0.058 -0.033,0.094 -0.002,0.017 -0.005,0.034 -0.005,0.051 0.05,1.358 0.381,3.337 0.812,4.44 0.502,1.178 1.505,2.006 2.473,2.796 1.179,0.969 2.387,1.904 3.525,2.921 0.675,0.638 1.418,1.258 1.827,2.11 0.404,0.754 0.311,1.688 -0.54,2.063 -0.383,0.14 -0.78,0.202 -1.183,0.212 1.035,0.939 2.035,1.916 3.029,2.899 1.766,1.602 3.148,3.011 5.387,3.919 1.78,0.576 4.453,1.207 6.35,0.636 0.465,-0.112 0.753,-0.277 1.245,-0.704 0.193,-0.184 0.329,-0.415 0.445,-0.66 0.267,-0.761 0.016,-1.463 -0.278,-2.53 -0.351,-1.252 -1.134,-2.648 -2.078,-3.922 -1.07,-1.556 -2.316,-2.998 -3.781,-4.543 -2.402,-2.52 -4.841,-4.784 -7.517,-6.612 -1.04,-0.727 -2.215,-1.22 -3.363,-1.748 -1.003,-0.482 -1.986,-1.014 -2.92,-1.619 -0.392,-0.267 -0.812,-0.57 -0.951,-1.047 -0.128,-0.593 0.463,-0.907 0.991,-0.823 1.488,0.203 2.836,0.942 4.195,1.539 2.919,1.283 5.794,2.73 8.367,4.628 2.085,1.565 3.926,3.431 5.667,5.364 1.392,1.624 2.649,3.363 3.843,5.137 0.949,1.524 1.715,3.157 2.366,4.827 0.5,1.305 0.886,2.655 1.068,4.042 0.138,0.953 0.273,1.932 0.075,2.886 -0.597,2.674 -2.333,2.06 -4.398,1.595 -2.415,-0.606 -4.847,-1.172 -7.214,-1.949 -1.606,-0.539 -3.157,-1.224 -4.704,-1.909 -1.84,-0.835 -3.664,-1.722 -5.352,-2.839 -1.502,-0.994 -14.853,-11.088 -13.071,-3.695 0.469,1.944 6.142,6.381 12.467,8.766 4.517,1.704 9.291,2.503 13.971,3.612 2.396,0.654 4.724,1.543 7.013,2.501 2.541,1.081 5.005,2.329 7.514,3.481 3.266,1.495 6.564,2.916 9.838,4.394 2.69,1.214 5.331,2.537 7.935,3.925 1.9,1.055 3.83,2.076 5.589,3.359 3.448,2.651 6.886,5.452 9.377,9.061 2.015,2.873 3.684,5.983 5.213,9.138 1.439,2.946 2.68,5.998 3.384,9.209 0.532,2.273 0.742,4.582 0.858,6.901 1.185,2.273 2.209,4.631 3.073,7.039 0.621,1.726 2.007,6.555 0.741,7.921" /></g><g
           transform="translate(203.7357,394.7644)"
           id="g42"><path
             id="path44"
             style="fill:#000000;fill-opacity:1;fill-rule:nonzero;stroke:none"
             d="M 0,0 C -0.002,-0.001 -0.004,-0.001 -0.006,-0.001 -0.002,-0.001 0.003,0 0.007,0 0.004,0 0.002,0 0,0" /></g></g></g></g></svg>