<?xml version="1.0" encoding="UTF-8" standalone="no"?>
<svg
   xmlns:dc="http://purl.org/dc/elements/1.1/"
   xmlns:cc="http://creativecommons.org/ns#"
   xmlns:rdf="http://www.w3.org/1999/02/22-rdf-syntax-ns#"
   xmlns:svg="http://www.w3.org/2000/svg"
   xmlns="http://www.w3.org/2000/svg"
   viewBox="0 0 666.66669 666.66669"
   height="666.66669"
   width="666.66669"
   xml:space="preserve"
   id="svg2"
   version="1.1"><metadata
     id="metadata8"><rdf:RDF><cc:Work
         rdf:about=""><dc:format>image/svg+xml</dc:format><dc:type
           rdf:resource="http://purl.org/dc/dcmitype/StillImage" /></cc:Work></rdf:RDF></metadata><defs
     id="defs6"><clipPath
       id="clipPath20"
       clipPathUnits="userSpaceOnUse"><path
         id="path18"
         d="M 0,500 H 500 V 0 H 0 Z" /></clipPath></defs><g
     transform="matrix(1.3333333,0,0,-1.3333333,0,666.66667)"
     id="g10"><path
       id="path12"
       style="fill:#ffffff;fill-opacity:1;fill-rule:nonzero;stroke:none"
       d="M 0,0 H 500 V 500 H 0 Z" /><g
       id="g14"><g
         clip-path="url(#clipPath20)"
         id="g16"><g
           transform="translate(288.937,343.8838)"
           id="g22"><path
             id="path24"
             style="fill:#eccbbc;fill-opacity:1;fill-rule:nonzero;stroke:none"
             d="m 0,0 c -24.659,2.22 -40.353,26.139 -57.561,43.94 -12.187,12.607 -26.682,22.976 -42.549,30.438 -13.206,6.211 -28.82,10.357 -42.195,4.519 -13.756,-6.004 -21.386,-21.036 -24.561,-35.705 -2.497,-11.534 -2.796,-24.114 2.63,-34.594 11.436,-22.088 41.292,-25.301 61.902,-39.225 -8.682,-16.696 -17.564,-34.136 -18.046,-52.948 -0.482,-18.812 10.159,-39.338 28.461,-43.716 16.079,-3.846 32.886,5.917 42.574,19.314 9.687,13.396 13.875,29.86 18.404,45.76 4.529,15.9 9.93,32.24 30.941,62.217" /></g><g
           transform="translate(343.211,425.4356)"
           id="g26"><path
             id="path28"
             style="fill:#e9e5e2;fill-opacity:1;fill-rule:nonzero;stroke:none"
             d="m 0,0 c -6.729,-3.68 -22.387,-13.632 -14.203,-41.047 1.917,-6.422 6.838,-12.4 13.441,-13.549 5.722,-0.996 11.613,1.846 15.535,6.129 3.923,4.284 6.166,9.829 7.87,15.382 2.305,7.514 3.76,15.615 1.692,23.198 C 22.268,-2.304 14.49,7.925 0,0" /></g><g
           transform="translate(294.777,417.2372)"
           id="g30"><path
             id="path32"
             style="fill:#030202;fill-opacity:1;fill-rule:nonzero;stroke:none"
             d="M 0,0 C 0,0 -0.001,0 -0.001,0.001 -0.003,0 -0.005,0 -0.006,-0.001 c -0.001,0 -0.001,0 -0.001,0 0.002,0 0.004,0 0.007,0.001" /></g><g
           transform="translate(298.4759,264.1028)"
           id="g34"><path
             id="path36"
             style="fill:#030202;fill-opacity:1;fill-rule:nonzero;stroke:none"
             d="M 0,0 C 0.754,0.334 1.341,0.446 1.911,0.507 1.636,0.245 1.36,-0.016 1.081,-0.273 -0.564,-1.791 -1.893,-2.852 -3.444,-3.987 -3.488,-3.925 -4.437,-1.969 0,0 m -34.869,-172.06 c 2.466,-11.569 5.146,-22.623 5.569,-34.239 -0.747,1.582 -1.437,3.142 -2.032,4.624 -1.228,3.376 -2.229,6.837 -3.101,10.321 -1.098,4.652 -1.635,8.801 -2.166,13.318 -0.549,4.722 -0.996,9.456 -1.37,14.196 -0.269,3.342 -0.516,6.688 -0.782,10.032 1.467,-6.045 2.585,-12.17 3.882,-18.252 m 6.71,-45.32 c 0.134,1.963 0.2,3.927 0.205,5.889 0.91,-1.732 1.866,-3.44 2.869,-5.118 2.625,-4.119 5.648,-7.539 8.332,-11.26 1.643,-2.292 4.407,-6.118 3.304,-6.774 -0.048,-0.004 -0.096,-0.007 -0.144,-0.011 -0.066,0.007 -0.154,0.02 -0.211,0.04 -1.443,0.745 -3.523,2.608 -5.2,4.264 -2.409,2.495 -4.629,5.265 -7.643,7.068 -0.788,0.482 -1.63,0.878 -2.508,1.16 0.619,1.707 0.858,3.249 0.996,4.742 m -26.522,58.8 c 0.941,-12.674 1.686,-25.364 1.999,-38.071 0.086,-3.704 0.23,-7.408 0.253,-11.113 -0.992,2.103 -2.137,4.612 -2.766,6.129 -0.96,2.398 -1.754,4.86 -2.447,7.346 -1.358,5.219 -2.02,9.864 -2.167,15.173 -0.123,4.898 0.343,9.785 0.814,14.655 0.859,8.442 2.012,16.393 3.085,24.656 0.435,-6.256 0.748,-12.521 1.229,-18.775 m 3.035,-57.936 c 0.118,1.38 0.182,2.763 0.215,4.147 1.064,-2.266 2.144,-4.528 3.467,-6.656 3.577,-5.7 7.324,-10.981 8.68,-17.488 0.006,-0.084 0.017,-0.24 0.012,-0.318 0.003,-0.122 -0.002,-0.244 -0.013,-0.366 -0.459,0.545 -0.9,1.32 -1.399,2.035 -1.288,1.979 -2.473,4.022 -3.628,6.08 -0.986,1.74 -1.941,3.503 -3.099,5.137 -1.045,1.63 -2.507,3.004 -4.271,3.824 -0.138,0.06 -0.278,0.115 -0.414,0.179 0.236,0.865 0.338,2.172 0.45,3.426 m -13.769,194.808 c -0.06,-0.299 -0.1,-0.484 -0.153,-0.64 -0.007,0.013 -0.014,0.026 -0.021,0.039 -1.01,1.928 -1.926,3.904 -2.845,5.877 -0.868,1.856 -2.228,4.87 -2.086,5.588 0.016,0.039 0.035,0.077 0.055,0.114 0.788,-0.415 1.183,-1.165 1.809,-1.995 1.987,-2.77 3.656,-6.376 3.241,-8.983 m -64.778,63.236 c -0.048,-0.135 -0.036,-0.08 0,0 m 82.962,43.535 c -4.419,3.997 -8.653,8.195 -12.774,12.498 -3.563,3.91 -7.036,7.896 -10.372,12.002 -4.421,5.731 -9.224,12.653 -13.188,19.207 -1.854,3.11 -3.608,6.273 -5.238,9.507 -1.659,3.616 -3.006,6.745 -4.432,10.417 -0.91,2.726 -1.881,5.436 -2.53,8.24 -0.757,3.195 -1.073,5.883 -1.454,9.123 -0.211,2.948 -0.359,5.913 -0.115,8.863 0.258,2.746 1.34,6.409 3.087,8.488 1.05,1.333 2.645,2.448 3.781,3.029 2.478,0.976 4.925,1.034 7.261,0.586 2.315,-0.44 4.012,-1.347 6.102,-2.53 4.142,-2.396 7.508,-5.841 10.876,-9.497 3.802,-4.266 7.172,-8.518 10.342,-12.975 4.167,-6.054 8.173,-12.237 11.528,-18.784 3.329,-6.282 6.012,-12.191 8.3,-18.837 2.072,-5.76 2.895,-11.509 3.367,-17.349 0.608,-6.157 0.694,-12.539 -0.229,-18.317 -0.393,-2.477 -0.896,-4.947 -1.624,-7.349 -0.609,-1.851 -1.265,-3.584 -1.988,-5.274 -3.643,2.852 -7.189,5.85 -10.7,8.952 M 4.51,140.356 c -0.013,0.03 -0.026,0.06 -0.039,0.09 0.009,0.064 0.017,0.13 0.023,0.199 0.001,0.15 -0.005,0.3 -0.008,0.449 0.055,-0.364 0.091,-0.6 0.128,-0.991 -0.034,0.086 -0.07,0.17 -0.104,0.253 m -3.085,2.467 c -0.611,0.738 -1.26,1.665 -1.961,2.667 -1.071,1.498 -2.101,3.365 -2.652,4.758 -0.1,0.23 -0.196,0.491 -0.282,0.759 -0.124,0.451 -0.235,0.915 -0.329,1.387 -0.027,0.209 -0.03,0.375 -0.002,0.467 -0.004,0.056 0.029,0.165 0.053,0.235 0.016,0.012 0.021,0.02 0.02,0.023 0.008,0.005 0.014,0.01 0.022,0.014 0,0 -10e-4,0 -0.002,0 l 0.003,10e-4 c 10e-4,0 0.002,0.001 0.003,0.002 10e-4,0 10e-4,-0.001 0.002,-0.001 0.002,0.001 0.004,0.001 0.006,0.002 10e-4,0 0.003,-0.001 0.004,-0.001 -0.004,-0.001 -0.006,-0.001 -0.009,-0.002 0.014,-0.007 0.028,-0.013 0.041,-0.021 0.253,-0.146 1.077,-1.019 1.246,-1.318 1.058,-1.601 1.823,-3.37 2.692,-5.077 0.913,-1.87 2.138,-4.092 2.997,-5.907 -0.59,0.564 -1.318,1.398 -1.852,2.012 M -0.811,12.697 c 1.185,1.372 2.427,2.694 3.743,3.942 2.329,2.107 4.331,3.827 6.999,5.35 C 9.929,21.985 9.927,21.98 9.925,21.977 9.655,21.445 9.006,20.53 8.39,19.871 4.997,16.235 1.404,13.135 -2.53,10.404 c 0.487,0.781 1.086,1.531 1.719,2.293 m -0.773,160.3 c -0.788,2.538 -1.544,5.087 -2.279,7.641 -0.597,2.191 -1.295,4.355 -1.851,6.557 -0.71,3.008 -1.289,6.045 -2.068,9.038 -0.089,0.399 -0.18,0.793 -0.265,1.18 0.519,-1.6 1.059,-3.5 1.508,-4.958 1.139,-3.515 2.28,-7.029 3.395,-10.552 1.075,-3.452 2.775,-7.181 2.879,-10.486 -0.008,-0.321 -0.19,-0.914 -0.419,-1.55 -0.002,0.008 -0.004,0.015 -0.006,0.023 -0.271,1.043 -0.581,2.076 -0.894,3.107 m 2.997,-17.892 c 0.098,-0.233 0.193,-0.468 0.277,-0.669 0.392,-0.996 0.696,-2.029 0.877,-3.084 0.042,-0.284 0.11,-0.929 0.131,-1.509 -0.618,1.802 -1.229,3.585 -1.285,5.262 M -112.788,29.458 c 2.026,-1.69 4.091,-3.331 6.187,-4.932 1.368,-1.108 2.719,-1.911 3.965,-3.35 -1.088,0.368 -1.913,0.78 -3.114,1.371 -2.25,1.106 -4.098,2.527 -5.798,3.94 -2.974,2.481 -5.505,5.437 -7.601,8.31 2.1,-1.76 4.195,-3.594 6.361,-5.339 m 17.41,-35.384 c 1.679,-0.236 3.36,-0.429 5.292,-0.839 1.668,-0.355 3.358,-0.67 4.954,-1.284 1.942,-0.685 3.954,-2.004 4.096,-2.549 -0.374,-0.518 -3.664,-0.337 -5.372,-0.007 -4.553,0.918 -8.337,2.335 -12.223,4.684 -0.138,0.085 -0.274,0.172 -0.412,0.258 1.225,0.021 2.449,-0.137 3.665,-0.263 m 50.052,-29.131 c 0.857,5.077 1.392,10.255 2.965,15.177 0.287,0.726 0.522,1.414 0.978,1.727 0.001,-0.01 0.003,-0.02 0.004,-0.031 0.017,-0.15 0.025,-0.301 0.022,-0.453 -0.002,-0.233 -0.018,-0.465 -0.04,-0.697 -0.035,-0.352 -0.065,-0.704 -0.116,-1.055 -0.021,-0.161 -0.042,-0.322 -0.063,-0.483 -0.994,-5.573 -2.624,-11.005 -4.118,-16.464 0.119,0.752 0.242,1.51 0.368,2.279 M 69.976,57.882 c -0.082,0.226 -0.347,0.347 -0.577,0.284 C 69.007,58.064 69.032,57.634 69.004,57.31 68.575,52.244 64.685,43.793 62.334,39.873 59.961,35.918 57.539,32.627 54.686,29.175 53.042,27.319 51.479,25.388 49.749,23.61 47.528,21.214 45.296,19.032 42.862,16.853 38.648,13.326 34.698,10.237 30.276,7.264 26.323,4.703 22.23,2.353 17.962,0.355 15.448,-0.83 13.386,-1.7 10.896,-2.597 8.674,-3.432 6.398,-4.139 4.062,-4.572 2.15,-4.933 0.123,-5.292 -1.525,-5.019 c -0.508,0.119 -1.122,0.215 -1.281,0.357 -0.03,0.018 -0.057,0.04 -0.086,0.06 0.429,0.316 0.855,0.636 1.274,0.965 1.311,1.017 2.551,2.122 3.743,3.275 0.393,0.378 0.778,0.764 1.161,1.151 0.07,0.071 0.11,0.166 0.11,0.265 C 3.399,1.254 3.24,1.398 3.021,1.429 2.895,1.447 1.135,1.744 -1.335,0.383 -4.807,-1.528 -5.08,-3.362 -4.239,-4.56 c -6.069,-4.187 -12.482,-7.101 -19.163,-9.672 -1.31,-0.518 -2.621,-1.042 -3.913,-1.609 -0.256,-0.021 -0.821,-0.333 -1.327,-0.545 -1.24,-0.613 -2.397,-1.428 -3.377,-2.405 -0.883,-0.95 -1.586,-2.052 -2.297,-3.132 -1.048,-1.613 -1.872,-3.363 -2.523,-5.171 -0.146,-0.424 -0.294,-0.849 -0.429,-1.277 -0.17,-0.481 -0.339,-0.962 -0.503,-1.445 -1.673,-5.009 -3.106,-10.097 -4.164,-15.274 -0.755,-3.691 -1.233,-7.431 -1.823,-11.151 -0.908,-6.011 -1.972,-12.011 -2.355,-18.085 -0.679,-8.782 -0.132,-17.596 0.342,-26.374 0.328,-5.463 0.776,-10.922 1.413,-16.358 0.796,-6.38 1.851,-12.724 2.703,-19.096 0.332,-2.437 0.624,-5.028 0.889,-7.696 -0.45,1.226 -1.574,4.898 -1.747,5.552 -0.445,1.69 -0.819,3.643 -0.945,4.903 -0.262,2.139 -0.353,4.294 -0.542,6.44 -0.184,1.881 -0.417,3.758 -0.699,5.627 -0.71,4.28 -1.907,8.465 -2.553,12.758 -0.532,3.147 -0.708,7.487 -0.845,11.188 -0.323,7.55 -0.255,15.109 -0.247,22.664 -0.015,7.465 0.323,14.927 0.832,22.374 0.162,2.223 0.37,4.348 0.615,6.442 0.324,1.404 0.658,2.806 1.005,4.204 1.699,6.715 3.903,13.317 5.149,20.139 0.122,0.709 0.208,1.423 0.274,2.139 0.043,0.572 0.109,1.173 -0.086,1.722 -0.147,0.392 -0.607,0.604 -1.009,0.488 -1.113,-0.471 -1.425,-1.83 -1.822,-2.861 -1.469,-4.832 -2.045,-9.879 -2.893,-14.844 -0.652,-3.867 -1.247,-7.746 -1.703,-11.641 -0.816,-3.625 -1.562,-7.267 -2.297,-10.908 -1.18,-5.86 -1.921,-11.793 -2.348,-17.753 -0.254,-3.175 -0.62,-6.342 -0.793,-9.523 -0.048,-0.875 -0.529,-6.199 -0.57,-9.183 -0.066,-4.78 -0.022,-9.561 -0.169,-14.34 -0.219,-7.096 -0.671,-14.188 -1.486,-21.241 -0.964,9.224 -2.267,17.854 -3.658,27.155 -0.177,1.227 -0.618,4.95 -0.769,6.884 -0.126,1.676 -0.314,3.362 -0.139,5.041 0.081,0.997 0.636,2.603 1.074,3.974 0.496,1.509 0.939,3.035 1.352,4.57 0.907,3.567 1.485,7.221 1.652,10.9 0.057,1.263 0.218,10.62 0.182,12.777 -0.304,18.38 -3.234,22.239 -4.605,25.712 -0.678,1.716 -1.378,3.424 -2.224,5.065 -0.681,1.309 -1.422,2.584 -2.136,3.875 0.545,0.902 0.749,2.028 0.657,3.156 -0.286,2.832 -1.623,5.445 -3.228,7.752 -0.462,0.667 -0.938,1.325 -1.451,1.954 -0.395,0.43 -0.856,0.906 -1.461,0.982 -0.712,0.066 -1.167,-0.542 -1.209,-1.202 -0.024,-0.501 0.117,-0.995 0.259,-1.471 0.441,-1.37 1.028,-2.687 1.6,-4.006 1.074,-2.412 2.143,-4.831 3.359,-7.175 -0.097,-0.081 -0.214,-0.164 -0.368,-0.246 -0.991,-0.535 -2.937,-0.961 -4.501,-1.22 -1.284,-0.213 -10.563,-1.295 -16.072,-0.177 -0.154,0.031 -4.285,0.465 -7.027,2.203 -0.117,0.074 -0.233,0.151 -0.346,0.23 -0.037,0.019 -0.163,0.116 -0.242,0.177 -1.197,0.958 -1.339,1.349 -0.918,2.184 0.994,1.529 3.005,2.752 5.013,3.827 0.927,0.479 1.302,0.588 2.177,0.961 0.45,0.232 1.43,0.377 1.297,1.056 -0.179,0.555 -0.854,0.403 -1.305,0.454 -0.751,0.038 -1.5,0.109 -2.246,0.202 -3.774,0.393 -8.019,1.829 -11.449,4.132 -1.557,1.04 -2.908,2.501 -2.239,2.871 1.077,0.703 2.605,0.929 3.971,1.104 2.01,-1.344 4.149,-2.503 6.36,-3.482 1.895,-0.779 3.858,-1.393 5.841,-1.909 1.482,-0.379 3.001,-0.635 4.53,-0.72 0.92,-0.021 1.864,-0.097 2.763,0.139 0.609,0.11 1.172,0.616 1.125,1.272 -0.114,0.707 -0.744,1.196 -1.277,1.613 -3.309,2.286 -7.391,2.906 -11.274,3.568 -2.588,0.339 -5.215,0.834 -7.826,0.539 -3.86,2.596 -7.24,5.718 -9.484,9.839 -1.521,2.873 -2.48,6.082 -4.15,9.185 -1.05,2.074 -2.343,4.028 -3.93,5.73 -0.603,0.645 -1.222,1.275 -1.864,1.88 0.666,-0.384 1.327,-0.78 1.977,-1.191 1.055,-0.663 2.054,-1.409 3.059,-2.142 0.431,-0.311 0.863,-0.62 1.305,-0.914 0.332,-0.267 0.951,-0.465 1.057,0.115 0.036,0.187 -0.083,0.374 -0.222,0.491 -0.065,0.053 -0.263,0.207 -0.21,0.164 -0.454,0.351 -0.901,0.711 -1.347,1.073 -1.808,1.484 -3.632,2.958 -5.321,4.579 -3.753,3.62 -6.579,7.495 -8.983,12.219 -0.642,1.368 -1.083,2.214 -1.509,3.562 -0.213,0.864 -0.355,1.191 -0.167,1.724 0.007,0.015 0.013,0.03 0.021,0.046 0.865,0.512 3.343,-1.07 4.959,-2.103 1.054,-0.713 2.09,-1.479 3.117,-2.28 0.528,-0.772 1.066,-1.537 1.62,-2.291 2.852,-4.02 6.153,-7.755 10.165,-10.652 1.593,-1.24 3.367,-2.217 5.2,-3.053 0.67,-0.31 1.35,-0.595 2.046,-0.841 0.365,-0.118 0.752,-0.277 1.141,-0.22 0.234,0.032 0.371,0.215 0.43,0.429 0.106,0.819 -0.659,1.413 -1.164,1.951 -1.646,1.484 -3.235,2.556 -4.788,3.802 -2.172,1.686 -4.281,3.451 -6.395,5.21 -2.476,2.039 -4.874,4.191 -7.392,6.182 -4.01,5.86 -7.343,12.3 -9.708,18.591 -0.877,2.637 -1.926,7.29 -0.337,8.384 0.512,0.265 2.586,-0.037 4.109,-1.305 2.129,-1.632 4.907,-4.723 7.049,-7.087 2.734,-2.95 5.548,-5.829 8.465,-8.598 0.141,-0.17 0.281,-0.341 0.423,-0.508 2.579,-3.035 5.484,-5.803 8.764,-8.071 1.879,-1.322 3.786,-2.602 5.698,-3.875 0.137,-0.102 0.271,-0.206 0.408,-0.308 0.561,-0.421 1.114,-0.853 1.699,-1.24 0.347,-0.226 1.031,-0.766 1.267,-0.144 0.131,0.492 -0.472,0.685 -0.775,0.94 -0.877,0.593 -1.754,1.185 -2.631,1.778 -0.133,0.092 -0.265,0.184 -0.397,0.275 -1.569,1.224 -3.084,2.501 -4.727,3.807 -3.233,2.616 -6.327,5.395 -9.313,8.287 -2.209,2.687 -4.204,5.522 -6.288,8.418 -2.093,3.015 -4.427,5.854 -6.902,8.561 -2.938,3.13 -6.002,6.148 -8.768,9.435 -2.185,2.611 -3.993,4.989 -5.763,7.947 -1.132,1.896 -2.382,4.279 -2.49,6.161 -0.011,0.123 -0.016,0.246 -0.016,0.37 -0.003,0.122 0.001,0.245 0.012,0.367 0.008,0.114 0.022,0.227 0.037,0.34 0.019,0.032 0.077,0.195 0.094,0.262 0.173,0.167 0.409,0.22 0.637,0.279 0.113,0.027 0.227,0.046 0.342,0.061 1.151,0.106 2.312,0.053 3.456,-0.092 5.224,-0.518 11.35,-3.97 16.376,-7.259 4.681,-3.03 8.779,-5.984 12.794,-9.708 2.642,-2.422 5.079,-5.059 7.371,-7.812 2.241,-2.65 4.02,-4.949 5.936,-7.869 3.417,-5.119 6.167,-10.645 9.517,-15.805 0.862,-1.302 1.588,-2.197 2.445,-3.275 1.148,-1.43 2.911,-3.112 4.891,-2.357 1.789,0.819 0.834,2.959 0.246,4.291 -1.122,2.679 -2.87,4.806 -3.438,7.428 -0.214,0.889 0.037,1.41 0.601,1.621 0.618,0.145 1.946,-0.034 2.631,-0.474 1.913,-0.918 2.898,-2.293 4.738,-3.513 5.516,-3.22 2.856,3.458 2.707,3.714 -0.695,1.732 -4.052,4.653 -5.63,6.926 -1.515,2.216 -3.004,5.675 -2.177,7.372 0.215,0.378 0.412,0.48 0.63,0.565 0.017,0.001 0.032,0.001 0.047,0 0.803,-0.189 1.511,-0.995 2.351,-1.95 1.018,-1.205 1.97,-2.466 3.044,-3.623 1.896,-2.112 4.272,-3.846 6.972,-4.679 5.449,-1.679 9.727,-0.407 13.162,1.51 1.859,1.027 3.691,2.138 5.303,3.529 1.342,1.128 2.49,2.46 3.555,3.847 2.695,3.525 4.826,7.435 6.625,11.488 0.104,-0.081 0.208,-0.163 0.313,-0.244 3.989,-3.033 8.106,-5.899 12.34,-8.579 4.691,-2.831 9.544,-5.397 14.55,-7.625 1.42,-0.607 6.529,-2.351 7.714,-2.618 8.888,-2.003 26.17,-4.96 38.237,22.083 1.234,2.766 3.699,8.136 4.327,11.115 0.316,1.504 0.449,2.289 0.509,3.758 -0.007,0.245 0.055,0.509 -0.036,0.741 -0.005,0.016 -0.014,0.03 -0.022,0.045 -0.002,0.418 -0.012,0.835 -0.031,1.253 -0.091,1.966 -0.453,3.912 -1.028,5.792 -0.551,1.637 -1.104,2.985 -1.68,4.295 -1.085,2.571 -2.3,5.097 -3.931,7.37 -2.487,3.468 -1.456,3.954 -17.57,16.015 -2.886,2.16 -5.786,4.705 -8.554,7.522 -1.14,1.137 -2.251,1.84 -3.205,2.809 -0.027,0.032 -0.049,0.058 -0.064,0.074 -0.007,0.01 -0.014,0.019 -0.021,0.03 0,0.006 0,0.012 0,0.018 -0.038,1.973 -0.231,3.969 -0.915,5.832 -0.347,0.956 -0.747,1.895 -1.204,2.806 -0.082,0.304 -0.172,0.609 -0.267,0.914 0.12,0.12 0.218,0.283 0.278,0.497 0.294,1.901 -0.175,3.861 -0.824,5.647 -0.224,0.583 -0.472,1.157 -0.733,1.725 -0.163,0.3 -0.277,0.673 -0.582,0.858 -0.371,0.223 -0.782,-0.119 -0.833,-0.504 -0.279,-2.301 0.462,-4.519 1.205,-6.68 -0.171,-0.034 -0.327,-0.155 -0.371,-0.333 -0.061,-0.259 0.093,-0.48 0.252,-0.685 0.069,-0.107 0.137,-0.212 0.159,-0.249 0.367,-0.619 0.653,-1.196 0.906,-1.746 0.373,-1.407 0.63,-2.794 0.781,-4.152 -0.494,0.981 -1.008,1.951 -1.503,2.931 -1.096,2.07 -2.027,4.23 -3.231,6.24 -0.409,0.667 -0.889,1.291 -1.481,1.806 -0.239,0.207 -0.479,0.435 -0.792,0.517 -0.188,0.037 -0.388,0.01 -0.564,-0.068 -0.085,0.571 -1.188,3.066 1.106,8.412 0.459,1.068 2.16,4.619 2.252,4.756 0.148,0.218 0.315,0.442 0.331,0.714 0.01,0.143 0.007,0.287 -0.002,0.43 0.172,0.438 0.345,0.876 0.508,1.317 0.193,0.59 0.378,1.19 0.445,1.809 0.005,0.609 -0.096,1.215 -0.188,1.815 -0.445,2.635 -1.467,5.115 -2.314,7.636 -1.201,3.634 -2.353,7.285 -3.549,10.921 -0.694,2.169 -1.26,4.378 -1.972,6.542 -0.174,0.515 -0.353,1.03 -0.561,1.532 -0.107,0.239 -0.192,0.503 -0.388,0.685 -0.245,0.228 -0.664,0.155 -0.781,-0.177 -0.138,-0.39 -0.051,-0.817 -0.006,-1.217 0.322,-2.194 0.937,-4.328 1.402,-6.494 0.522,-2.312 0.925,-4.652 1.532,-6.945 1.037,-3.735 2.102,-7.462 3.23,-11.171 0.545,-1.93 1.589,-4.761 1.697,-6.264 -0.124,-0.312 -0.228,-0.573 -0.284,-0.734 -0.022,-0.053 -0.041,-0.097 -0.06,-0.144 -0.043,-0.07 -0.087,-0.145 -0.131,-0.219 -0.783,3.395 -1.525,6.8 -2.388,10.175 -1.142,4.161 -2.378,8.297 -3.4,12.49 -0.763,3.29 -1.442,7.031 -1.82,9.99 -0.21,1.569 -0.425,3.653 -0.427,5.216 0.198,-0.458 0.392,-0.918 0.615,-1.363 0.602,-1.199 1.227,-2.388 1.741,-3.629 1.021,-2.533 2.278,-6.307 3.203,-9.33 0.403,-1.321 0.795,-2.646 1.188,-3.97 0.975,-3.312 2.018,-6.606 3.211,-9.846 0.822,-2.234 3.221,-8.011 3.656,-8.645 1.195,-1.739 2.241,-3.574 3.29,-5.403 1.175,-2.005 2.157,-3.783 2.864,-5.703 1.511,-4.041 2.724,-8.263 5.06,-11.932 1.437,-2.19 3.234,-4.122 5.105,-5.946 1.283,-1.251 2.679,-2.378 4.012,-3.574 2.253,-2.045 4.421,-4.184 6.497,-6.409 1.434,-1.49 2.77,-3.067 4.114,-4.637 1.593,-1.827 3.183,-3.655 4.73,-5.521 2.453,-2.875 4.378,-5.52 6.382,-8.904 1.478,-2.726 2.547,-4.985 3.48,-7.731 0.656,-2.034 1.055,-4.139 1.39,-6.247 0.351,-2.276 0.621,-4.113 0.685,-6.582 C 51.333,84.861 51.005,80.354 50.008,75.968 49.136,72.337 47.877,68.815 46.619,65.303 44.189,58.673 41.516,52.66 38.625,46.106 34.784,37.397 33.567,31.776 26.553,23.609 24.465,21.484 22.33,19.405 20.074,17.455 17.921,15.537 15.856,13.52 13.682,11.623 11.6,9.827 9.869,8.272 7.764,6.864 c 0,0.031 -0.001,0.062 0,0.094 -3.176,-2.22 -8.046,-4.741 -11.119,-1.992 -0.779,0.697 -0.32,2.848 0.021,3.814 0.005,0.015 0.012,0.029 0.017,0.044 4.396,2.919 8.458,6.344 12.085,10.176 0.79,0.896 1.677,1.795 2.098,2.931 0.184,0.704 -0.183,1.34 -0.993,1.032 C 7.028,21.462 4.588,19.277 2.204,17.14 0.031,14.99 -2.196,12.79 -3.721,10.117 -3.832,9.872 -3.944,9.624 -4.051,9.375 -5.592,8.364 -7.186,7.403 -8.842,6.485 -11.91,4.872 -14.869,3.584 -17.891,2.456 c -3.067,-1.188 -6.191,-2.244 -9.368,-3.094 -6.387,-1.59 -12.286,-2.844 -18.787,-2.808 -2.409,0.063 -4.363,0.261 -6.519,0.662 -1.761,0.328 -3.522,0.71 -5.195,1.364 -2.878,1.139 -6.112,3.212 -8.317,5.766 -1.707,2.207 -3.506,5.145 -4.056,8.187 -0.76,4.215 -0.181,9.761 1.8,13.618 0.795,1.489 1.503,2.339 2.716,3.541 0.805,0.735 1.482,1.363 2.156,1.828 0.246,0.249 0.823,0.367 0.748,0.81 -0.011,0.216 -0.226,0.385 -0.435,0.385 -0.165,0.005 -0.294,-0.11 -0.426,-0.191 -0.243,-0.159 -0.48,-0.328 -0.715,-0.499 -0.759,-0.514 -1.461,-1.188 -2.321,-1.986 -1.271,-1.248 -2.316,-2.725 -3.032,-4.358 -1.874,-4.408 -2.422,-10.26 -1.115,-14.885 0.987,-2.87 2.523,-5.595 4.578,-7.835 2.815,-2.787 6.326,-4.936 10.152,-6.001 4.952,-1.308 10.133,-1.738 15.224,-1.145 6.046,0.657 12.009,2.026 17.806,3.847 4.784,1.654 9.543,3.441 14.035,5.789 1.504,0.801 2.976,1.662 4.415,2.575 C -4.625,7.753 -4.827,5.661 -4.334,4.812 -2.513,1.673 3.068,2.77 5.985,4.576 c 0.233,0.144 0.49,0.309 0.758,0.486 2.066,1.173 3.995,2.571 5.821,4.093 2.06,1.649 4.031,3.402 5.981,5.178 1.765,1.677 3.63,3.243 5.379,4.937 1.682,1.656 3.881,3.849 5.025,5.343 0.14,0.155 4.124,4.221 8.05,15.418 1.13,3.223 3.274,7.441 4.798,10.987 2.339,5.43 4.681,10.863 6.611,16.455 1.067,3.018 2.078,6.066 2.763,9.197 0.554,2.609 0.829,5.266 1.045,7.922 0.24,2.931 0.326,5.884 -0.059,8.806 -0.362,2.96 -0.767,5.933 -1.592,8.804 -0.734,2.476 -1.813,4.839 -2.955,7.151 -2.115,4.025 -4.864,7.683 -7.831,11.116 -2.42,2.821 -4.856,5.633 -7.341,8.397 -3.209,3.455 -6.613,6.727 -10.237,9.745 -6.748,5.991 -8.111,9.408 -10.94,17.708 -0.85,2.462 -2.029,4.787 -3.373,7.014 -1.138,1.971 -2.249,3.967 -3.599,5.804 -0.069,0.094 -1.045,2.342 -1.853,4.171 -0.326,0.737 -1.04,2.779 -1.463,3.955 -2.327,6.375 -3.992,12.964 -6.235,19.366 -0.581,1.635 -1.175,3.271 -1.903,4.848 -0.745,1.554 -1.565,3.071 -2.236,4.661 -0.157,0.368 -0.386,0.936 -0.875,0.716 -0.41,-0.193 -0.35,-0.722 -0.402,-1.105 -0.093,-1.736 0.111,-3.466 0.288,-5.191 0.299,-2.556 0.706,-5.098 1.198,-7.623 1.006,-5.376 2.659,-10.599 4.081,-15.872 0.881,-3.386 1.565,-6.82 2.411,-10.215 0.093,-0.339 0.15,-0.689 0.222,-1.033 -0.579,-1.217 -1.137,-2.625 -1.565,-3.727 -1.321,-3.395 -1.581,-4.782 -1.405,-6.899 0.112,-1.358 0.466,-2.671 0.937,-3.943 0.472,-1.93 1.189,-3.812 2.203,-5.523 1.175,-1.991 2.625,-3.817 4.336,-5.375 0.743,-0.635 1.148,-1.094 1.821,-1.487 0.312,-0.161 0.692,-0.009 0.838,0.286 0.015,-0.289 0.009,-0.58 0.062,-0.863 0.161,-0.386 0.492,-0.677 0.786,-0.965 0.769,-0.685 1.582,-1.32 2.325,-2.035 0.889,-0.845 1.717,-1.753 2.599,-2.605 1.878,-1.838 3.882,-3.538 5.99,-5.105 6.909,-5.134 14.382,-10.103 19.227,-18.326 0.858,-1.456 1.53,-3.007 2.205,-4.554 1.91,-4.259 3.054,-7.912 2.788,-12.892 -0.002,-0.07 -0.007,-0.136 -0.01,-0.204 -0.12,-0.822 -0.375,-2.084 -0.668,-3.2 C 39.423,86.205 38.777,84.84 37.954,82.886 33.126,71.416 30.335,68.485 27.483,64.889 25.824,62.797 14.279,47.122 -16.171,62.734 c -7.094,3.638 -13.498,8.057 -19.649,12.823 0.433,1.004 0.846,2.016 1.244,3.032 1.155,2.877 1.809,5.908 2.393,8.943 0.461,2.896 0.8,5.815 0.847,8.749 0.175,4.661 -0.263,9.31 -0.698,13.945 -0.545,5.283 -1.583,10.539 -3.481,15.511 -3.186,9.098 -7.6,17.723 -12.509,26.003 -4.856,7.892 -10.171,15.523 -16.32,22.47 -1.87,2.162 -3.835,4.241 -5.944,6.171 -2.034,1.933 -4.259,3.671 -6.711,5.041 -2.159,1.219 -4.465,2.289 -6.955,2.562 -2.399,0.348 -4.947,0.086 -7.158,-0.933 -2.417,-1.315 -4.392,-3.385 -5.48,-5.922 -2.156,-4.76 -1.814,-10.123 -1.473,-15.208 0.487,-4.303 1.115,-8.604 2.43,-12.743 0.503,-1.572 1.043,-3.13 1.559,-4.698 0.669,-1.666 1.326,-3.337 2.001,-5 1.344,-3.053 2.676,-6.109 4.282,-9.035 2.19,-4.161 4.711,-8.138 7.225,-12.109 l 4.208,-6.193 c 1.706,-2.298 3.387,-4.616 5.106,-6.905 1.641,-1.98 3.283,-3.96 4.925,-5.941 1.876,-2.099 3.749,-4.203 5.627,-6.301 7.399,-7.806 15.318,-15.118 23.802,-21.732 -0.907,-2.041 -1.918,-4.038 -3.07,-6.129 -2.293,-4.027 -5.003,-7.874 -8.552,-10.356 -7.837,-5.848 -15.002,-3.958 -17.197,-2.909 -2.182,1.042 -3.639,2.067 -5.28,3.763 -1.123,1.164 -2.116,2.443 -3.156,3.68 -0.731,0.834 -1.502,1.731 -2.556,2.15 -0.822,0.346 -1.652,-0.279 -2.038,-0.984 -0.266,-0.448 -0.335,-0.972 -0.366,-1.483 -0.042,-2.605 1.376,-5.602 2.922,-7.654 1.076,-1.452 2.421,-2.673 3.568,-4.066 2.217,-2.696 2.2,-4.234 2.011,-4.465 -0.026,-0.032 -0.068,-0.081 -0.111,-0.122 -0.024,-0.028 -0.055,-0.048 -0.082,-0.072 -0.254,-0.071 -0.096,-0.096 -0.575,-0.074 -0.891,0.018 -2.37,1.588 -3.767,2.634 -1.49,1.15 -3.438,2.23 -5.366,1.694 -2.945,-1.276 0.131,-5.902 1.067,-7.773 0.593,-1.117 1.229,-2.381 1.55,-3.229 0.24,-0.75 0.479,-1.252 0.412,-1.769 -0.077,-0.272 -0.32,-0.771 -1.371,-0.631 -0.874,0.039 -2.075,1.092 -3.09,2.357 -1.9,2.234 -3.402,4.805 -5.006,7.539 -2.498,4.303 -4.904,8.666 -7.742,12.759 -3.432,4.861 -7.302,9.436 -11.599,13.555 -3.525,3.353 -7.41,6.302 -11.438,9.022 -3.078,2.031 -6.181,4.048 -9.479,5.706 -3.625,1.799 -7.534,3.2 -11.62,3.265 -1.07,-0.012 -2.794,0.108 -3.272,-0.977 -1.008,-3.714 3.331,-9.588 5.411,-12.596 2.281,-3.056 4.8,-5.922 7.424,-8.686 2.764,-2.887 5.549,-5.76 8.029,-8.899 1.686,-2.147 3.377,-4.551 5.125,-6.967 -1.574,1.645 -3.122,3.316 -4.645,5.006 -1.354,1.505 -2.725,2.997 -4.205,4.378 -0.885,0.766 -1.748,1.59 -2.8,2.122 -1.179,0.567 -2.623,1.071 -3.902,0.603 -0.925,-0.452 -1.362,-1.52 -1.419,-2.503 -0.142,-1.256 0.06,-2.519 0.291,-3.752 0.28,-1.586 0.772,-3.124 1.362,-4.619 0.96,-2.358 1.983,-4.689 3.117,-6.968 1.404,-2.844 2.962,-5.612 4.669,-8.285 -0.657,0.467 -1.324,0.921 -2.007,1.353 -1.165,0.683 -2.361,1.428 -3.694,1.713 -1.599,0.264 -2.13,-0.932 -1.763,-2.364 0.391,-1.64 1.157,-3.165 1.895,-4.671 1.387,-2.767 3.11,-5.353 5.015,-7.788 1.489,-1.905 3.172,-3.631 4.954,-5.253 -0.405,0.232 -0.812,0.459 -1.221,0.682 -0.448,0.249 -0.902,0.488 -1.355,0.73 -0.234,0.106 -0.489,0.281 -0.748,0.167 -0.287,-0.111 -0.428,-0.523 -0.185,-0.751 0.622,-0.69 1.39,-1.237 2.059,-1.882 2.007,-1.915 3.527,-3.538 4.908,-5.923 1.281,-2.166 2.329,-4.572 3.146,-6.589 0.86,-2.152 1.746,-4.315 3.062,-6.235 2.034,-3.062 4.775,-5.573 7.755,-7.704 -4.416,-0.742 -5.599,-2.448 -1.036,-5.619 2.357,-1.552 4.968,-2.708 7.674,-3.5 1.781,-0.454 3.605,-0.743 5.437,-0.903 -1.471,-0.628 -2.902,-1.348 -4.203,-2.287 -0.782,-0.586 -1.605,-1.149 -2.217,-1.921 -3.259,-3.542 3.655,-5.832 6.187,-6.696 8.952,-1.75 17.066,-0.55 18.669,-0.315 1.463,0.215 2.924,0.522 4.315,1.031 0.443,0.143 0.825,0.351 1.156,0.605 0.104,-0.192 0.207,-0.384 0.313,-0.574 2.031,-3.49 3.267,-6.495 4.678,-10.075 0.69,-1.744 1.301,-3.518 1.828,-5.319 0.35,-1.196 1.763,-9.607 1.886,-13.215 0.124,-3.229 0.191,-6.459 0.247,-9.69 0.008,-0.463 0.341,-9.303 -1.644,-17.218 -0.478,-1.905 -1.053,-3.786 -1.69,-5.644 -0.525,-1.541 -1.096,-3.091 -1.181,-4.732 -0.113,-2.033 0.093,-4.065 0.266,-6.089 0.334,-3.561 0.846,-7.101 1.392,-10.634 1.425,-9.211 2.587,-17.63 3.45,-26.898 0.002,-0.023 0.004,-0.045 0.005,-0.068 -1.111,-8.982 -2.454,-17.801 -3.46,-27.044 -0.635,-6.009 -1.301,-12.049 -1.08,-18.099 0.287,-8.242 2.111,-16.438 5.45,-23.984 0.952,-2.133 1.956,-4.242 2.949,-6.357 -0.001,-0.147 -0.001,-0.294 -0.003,-0.441 -0.015,-1.941 -0.102,-3.881 -0.275,-5.814 -0.155,-1.395 -0.141,-2.168 -0.503,-3.429 -0.002,-0.005 -0.005,-0.01 -0.007,-0.015 -0.106,-0.21 -0.037,-0.476 0.121,-0.641 0.367,-0.352 0.894,-0.446 1.322,-0.704 0.867,-0.451 1.382,-0.904 1.936,-1.383 1.742,-1.712 3.019,-4.212 4.405,-6.613 1.153,-2.039 2.332,-4.065 3.608,-6.029 0.447,-0.672 0.906,-1.336 1.377,-1.991 0.297,-0.379 0.557,-0.821 0.98,-1.066 1.254,-0.371 1.272,1.396 1.116,2.218 -0.426,1.884 -1.032,3.735 -1.774,5.518 -0.904,2.136 -2.026,4.176 -3.204,6.172 -1.446,2.447 -3.072,4.785 -4.477,7.258 -1.33,2.351 -2.443,4.815 -3.589,7.259 -0.135,17.087 -0.932,34.167 -2.166,51.208 -0.624,8.193 -0.911,16.409 -1.629,24.594 0.003,0.03 0.007,0.059 0.01,0.088 1.242,9.295 1.882,18.662 2.074,28.035 0.115,5.064 -0.009,10.133 0.2,15.194 0.129,3.098 0.914,12.164 1.163,15.313 0.45,6.106 1.082,11.588 2.283,17.53 0.263,1.312 0.53,2.623 0.801,3.934 -0.52,-7.465 -0.808,-14.946 -0.792,-22.429 -0.024,-6.823 -0.071,-13.648 0.204,-20.467 0.158,-4.12 0.264,-8.257 0.948,-12.331 0.557,-3.507 1.434,-6.951 2.13,-10.43 0.426,-2.22 0.589,-3.676 0.849,-5.914 0.45,-4.389 0.427,-8.857 1.689,-13.122 1.242,-4.199 2.943,-5.687 3.248,-9.136 0.463,-5.243 0.847,-10.641 1.241,-15.672 0.714,-8.425 1.449,-16.872 2.991,-25.192 0.582,-3.04 1.436,-6.022 2.328,-8.983 0.539,-1.711 1.065,-3.433 1.767,-5.085 0.885,-2.093 1.834,-4.162 2.842,-6.202 0.086,-3.196 0.134,-6.401 -0.246,-9.579 -0.005,-0.04 -0.012,-0.088 -0.019,-0.126 -0.029,-0.216 -0.067,-0.432 -0.103,-0.647 -0.117,-0.627 -0.249,-1.253 -0.435,-1.863 -0.085,-0.284 -0.179,-0.565 -0.294,-0.839 -0.14,-0.308 -0.116,-0.733 0.202,-0.916 3.306,-1.012 5.965,-3.516 8.535,-6.358 1.423,-1.536 2.894,-3.03 4.518,-4.356 0.942,-0.734 1.831,-1.595 2.949,-2.051 0.451,-0.127 0.929,-0.115 1.341,0.128 0.359,0.232 0.588,0.609 0.695,1.016 0.417,1.914 -2.218,5.186 -3.298,6.797 -3.908,5.382 -8.05,9.812 -11.081,15.867 -0.52,0.967 -1.03,1.947 -1.525,2.929 -0.23,9.797 -1.908,19.552 -4.075,29.094 -1.303,5.788 -2.505,11.598 -3.728,17.403 -0.97,4.649 -2.027,9.285 -3.394,13.832 -0.379,4.3 -0.819,8.594 -1.405,12.871 -0.848,6.232 -1.961,12.927 -2.688,18.697 -0.539,4.416 -0.914,8.852 -1.247,13.288 -0.552,9.376 -1.224,18.787 -0.648,28.177 0.334,6.146 1.233,11.533 2.161,17.619 0.915,5.896 1.677,11.824 3.166,17.612 0.844,3.36 1.823,6.686 2.92,9.973 0.054,0.053 0.099,0.117 0.119,0.2 0.06,0.243 0.125,0.487 0.195,0.732 0.116,0.34 0.231,0.679 0.35,1.018 -0.009,0.004 -0.018,0.009 -0.027,0.013 1.081,3.222 2.898,6.409 4.866,8.784 1.04,1.109 1.802,1.632 3.147,2.43 0.026,0.014 0.053,0.028 0.079,0.042 1.538,0.73 3.084,1.35 4.73,2.009 2.599,1.03 5.192,2.074 7.745,3.214 4.177,1.937 8.261,4.14 12.021,6.807 0.073,-0.068 0.146,-0.134 0.22,-0.195 0.902,-0.589 2.096,-0.647 3.146,-0.697 4.916,0.189 9.612,1.796 14.154,3.567 8.1,3.374 15.784,7.761 22.731,13.127 3.293,2.538 6.568,5.108 9.559,8.003 1.086,0.968 2.069,2.039 3.071,3.091 1.76,1.791 3.414,3.675 5.043,5.583 3.373,3.87 6.418,8.016 9.06,12.418 7.127,11.874 6.781,17.934 6.686,18.167" /></g></g></g></g></svg>