<svg width="308" height="183" viewBox="0 0 308 183" fill="none" xmlns="http://www.w3.org/2000/svg">
<path d="M60.1226 32.0219H255.216C259.087 32.0219 262.799 33.5597 265.537 36.2969C268.274 39.0342 269.812 42.7466 269.812 46.6176V165.768H45.4965V46.6176C45.4965 44.6983 45.875 42.7979 46.6104 41.0251C47.3458 39.2523 48.4237 37.6419 49.7822 36.2861C51.1408 34.9304 52.7534 33.8559 54.5278 33.1242C56.3021 32.3925 58.2033 32.0179 60.1226 32.0219V32.0219Z" fill="white"/>
<path d="M269.811 166.225H45.4965C45.3753 166.225 45.2592 166.177 45.1735 166.091C45.0879 166.006 45.0397 165.89 45.0397 165.768V46.6177C45.0424 42.6236 46.6302 38.794 49.4544 35.9698C52.2786 33.1456 56.1083 31.5577 60.1023 31.5551H255.216C259.209 31.5604 263.037 33.1491 265.861 35.9727C268.684 38.7963 270.273 42.6245 270.278 46.6177V165.768C270.276 165.891 270.225 166.007 270.138 166.092C270.051 166.177 269.934 166.225 269.811 166.225V166.225ZM45.9837 165.302H269.345V46.6177C269.342 42.8713 267.852 39.2791 265.203 36.6301C262.554 33.981 258.962 32.4915 255.216 32.4889H60.1226C56.3753 32.4915 52.7821 33.9806 50.1314 36.6294C47.4807 39.2782 45.9891 42.8704 45.9837 46.6177V165.302Z" fill="#231F20"/>
<path d="M255.794 44.0091H59.5441V165.768H255.794V44.0091Z" fill="#74928B"/>
<path d="M288.508 166.286H26.8205C26.7419 166.309 26.6592 166.312 26.5789 166.298C26.4986 166.283 26.4229 166.249 26.3577 166.2C26.2924 166.151 26.2395 166.087 26.2031 166.014C26.1667 165.941 26.1477 165.86 26.1477 165.779C26.1477 165.697 26.1667 165.616 26.2031 165.543C26.2395 165.47 26.2924 165.406 26.3577 165.357C26.4229 165.308 26.4986 165.275 26.5789 165.26C26.6592 165.245 26.7419 165.249 26.8205 165.271H288.508C288.586 165.249 288.669 165.245 288.749 165.26C288.83 165.275 288.905 165.308 288.971 165.357C289.036 165.406 289.089 165.47 289.125 165.543C289.162 165.616 289.181 165.697 289.181 165.779C289.181 165.86 289.162 165.941 289.125 166.014C289.089 166.087 289.036 166.151 288.971 166.2C288.905 166.249 288.83 166.283 288.749 166.298C288.669 166.312 288.586 166.309 288.508 166.286V166.286Z" fill="#231F20"/>
<path d="M22.1921 165.768H293.136C293.136 170.076 291.425 174.206 288.38 177.252C285.334 180.298 281.203 182.008 276.896 182.008H38.3712C34.0641 182.008 29.9334 180.298 26.8878 177.252C23.8422 174.206 22.1312 170.076 22.1312 165.768H22.1921Z" fill="white"/>
<path d="M276.927 182.445H38.4016C33.9822 182.437 29.7462 180.677 26.6221 177.551C23.498 174.425 21.7407 170.188 21.7354 165.768C21.7353 165.646 21.7831 165.529 21.8685 165.442C21.9539 165.355 22.07 165.304 22.1921 165.302H293.136C293.259 165.304 293.376 165.354 293.463 165.441C293.55 165.528 293.601 165.645 293.603 165.768C293.598 170.19 291.839 174.428 288.713 177.555C285.586 180.681 281.348 182.44 276.927 182.445V182.445ZM22.6691 166.205C22.7931 170.299 24.5056 174.184 27.4441 177.037C30.3825 179.89 34.3161 181.487 38.4118 181.491H276.937C281.032 181.485 284.964 179.887 287.902 177.034C290.84 174.181 292.553 170.298 292.679 166.205H22.6691Z" fill="#231F20"/>
<path d="M179.639 165.768H135.7V169.818H179.639V165.768Z" fill="black"/>
<path d="M68.7197 56.1384C70.5303 56.1384 71.9981 54.6705 71.9981 52.8599C71.9981 51.0493 70.5303 49.5815 68.7197 49.5815C66.909 49.5815 65.4412 51.0493 65.4412 52.8599C65.4412 54.6705 66.909 56.1384 68.7197 56.1384Z" fill="#231F20"/>
<path d="M79.8238 56.1384C81.6344 56.1384 83.1022 54.6705 83.1022 52.8599C83.1022 51.0493 81.6344 49.5815 79.8238 49.5815C78.0132 49.5815 76.5453 51.0493 76.5453 52.8599C76.5453 54.6705 78.0132 56.1384 79.8238 56.1384Z" fill="white"/>
<path d="M90.938 56.1384C92.7487 56.1384 94.2165 54.6705 94.2165 52.8599C94.2165 51.0493 92.7487 49.5815 90.938 49.5815C89.1274 49.5815 87.6596 51.0493 87.6596 52.8599C87.6596 54.6705 89.1274 56.1384 90.938 56.1384Z" fill="white"/>
<path d="M122.271 103.011C122.051 103.012 121.832 102.97 121.628 102.887C121.425 102.803 121.239 102.68 121.084 102.524C120.772 102.207 120.598 101.78 120.598 101.336C120.598 100.892 120.772 100.466 121.084 100.149L133.812 87.4207C134.127 87.107 134.553 86.9314 134.998 86.9323C135.442 86.9333 135.868 87.1108 136.182 87.4257C136.495 87.7407 136.671 88.1673 136.67 88.6118C136.669 89.0562 136.492 89.4821 136.177 89.7958L123.448 102.524C123.294 102.678 123.11 102.801 122.908 102.885C122.706 102.968 122.49 103.011 122.271 103.011V103.011Z" fill="white"/>
<path d="M134.999 103.011C134.555 103.012 134.128 102.837 133.812 102.524L121.084 89.7958C120.769 89.4821 120.591 89.0562 120.59 88.6118C120.589 88.1673 120.765 87.7407 121.078 87.4257C121.392 87.1108 121.818 86.9333 122.262 86.9323C122.707 86.9314 123.134 87.107 123.448 87.4207L136.177 100.149C136.412 100.382 136.572 100.68 136.637 101.005C136.703 101.33 136.671 101.667 136.545 101.973C136.418 102.28 136.204 102.542 135.929 102.727C135.654 102.911 135.331 103.01 134.999 103.011V103.011Z" fill="white"/>
<path d="M180.39 103.011C180.058 103.012 179.733 102.915 179.456 102.731C179.179 102.547 178.964 102.285 178.836 101.978C178.709 101.671 178.676 101.333 178.741 101.008C178.806 100.682 178.967 100.383 179.202 100.149L191.931 87.4207C192.086 87.2654 192.271 87.1423 192.475 87.0585C192.678 86.9748 192.897 86.9319 193.117 86.9323C193.337 86.9328 193.554 86.9766 193.758 87.0613C193.961 87.1459 194.145 87.2698 194.301 87.4257C194.456 87.5817 194.579 87.7667 194.663 87.9702C194.746 88.1737 194.789 88.3917 194.789 88.6118C194.788 88.8319 194.745 89.0497 194.66 89.2528C194.575 89.456 194.451 89.6405 194.295 89.7958L181.567 102.524C181.413 102.678 181.229 102.801 181.027 102.885C180.825 102.968 180.609 103.011 180.39 103.011V103.011Z" fill="white"/>
<path d="M193.067 103.011C192.847 103.012 192.629 102.97 192.425 102.887C192.221 102.803 192.036 102.68 191.88 102.524L179.152 89.7958C178.996 89.6405 178.872 89.456 178.787 89.2528C178.703 89.0497 178.659 88.8319 178.658 88.6118C178.658 88.3917 178.701 88.1737 178.784 87.9702C178.868 87.7667 178.991 87.5817 179.147 87.4257C179.302 87.2698 179.486 87.1459 179.69 87.0613C179.893 86.9766 180.111 86.9328 180.331 86.9323C180.551 86.9319 180.769 86.9748 180.972 87.0585C181.176 87.1423 181.361 87.2654 181.517 87.4207L194.245 100.149C194.48 100.382 194.64 100.68 194.706 101.005C194.771 101.33 194.739 101.667 194.613 101.973C194.487 102.28 194.273 102.542 193.997 102.727C193.722 102.911 193.399 103.01 193.067 103.011Z" fill="white"/>
<path d="M255.652 61.4062H59.676C59.5415 61.4062 59.4124 61.3527 59.3172 61.2576C59.222 61.1624 59.1685 61.0333 59.1685 60.8987C59.1685 60.7641 59.222 60.635 59.3172 60.5398C59.4124 60.4447 59.5415 60.3912 59.676 60.3912H255.652C255.787 60.3912 255.916 60.4447 256.011 60.5398C256.106 60.635 256.16 60.7641 256.16 60.8987C256.16 61.0333 256.106 61.1624 256.011 61.2576C255.916 61.3527 255.787 61.4062 255.652 61.4062Z" fill="white"/>
<path d="M99.7888 131.685C99.2805 131.749 98.7668 131.618 98.3507 131.319C97.9346 131.02 97.647 130.575 97.5455 130.073C97.4441 129.571 97.5362 129.049 97.8036 128.611C98.0709 128.174 98.4937 127.855 98.987 127.716C117.543 119.824 137.5 115.757 157.664 115.757C177.828 115.757 197.786 119.824 216.341 127.716C216.591 127.821 216.818 127.975 217.009 128.168C217.199 128.361 217.35 128.589 217.452 128.841C217.554 129.092 217.606 129.361 217.605 129.632C217.603 129.903 217.548 130.171 217.443 130.421C217.337 130.671 217.184 130.898 216.991 131.088C216.798 131.279 216.569 131.43 216.318 131.532C216.067 131.634 215.798 131.686 215.527 131.684C215.256 131.683 214.988 131.628 214.738 131.522C196.688 123.849 177.277 119.894 157.664 119.894C138.051 119.894 118.64 123.849 100.591 131.522C100.336 131.626 100.064 131.681 99.7888 131.685V131.685Z" fill="white"/>
<path d="M72.1707 95.8147H8.5302C4.55016 95.8147 1.3237 99.0412 1.3237 103.021V137.186C1.3237 141.166 4.55016 144.393 8.5302 144.393H72.1707C76.1507 144.393 79.3772 141.166 79.3772 137.186V103.021C79.3772 99.0412 76.1507 95.8147 72.1707 95.8147Z" fill="white"/>
<path d="M72.1808 144.9H8.53019C6.48514 144.897 4.52461 144.084 3.07853 142.638C1.63246 141.192 0.818878 139.231 0.816193 137.186V103.021C0.818878 100.976 1.63246 99.0156 3.07853 97.5695C4.52461 96.1235 6.48514 95.3099 8.53019 95.3072H72.1808C74.2259 95.3099 76.1864 96.1235 77.6325 97.5695C79.0786 99.0156 79.8922 100.976 79.8948 103.021V137.186C79.8922 139.231 79.0786 141.192 77.6325 142.638C76.1864 144.084 74.2259 144.897 72.1808 144.9ZM8.53019 96.3222C6.75433 96.3249 5.05197 97.0315 3.79625 98.2873C2.54052 99.543 1.83388 101.245 1.83119 103.021V137.186C1.83388 138.962 2.54052 140.664 3.79625 141.92C5.05197 143.176 6.75433 143.882 8.53019 143.885H72.1808C73.9567 143.882 75.6591 143.176 76.9148 141.92C78.1705 140.664 78.8772 138.962 78.8798 137.186V103.021C78.8772 101.245 78.1705 99.543 76.9148 98.2873C75.6591 97.0315 73.9567 96.3249 72.1808 96.3222H8.53019Z" fill="#D1D3D4"/>
<path d="M26.4449 108.411H29.7132C30.214 108.397 30.713 108.476 31.185 108.644C31.5288 108.762 31.8413 108.956 32.0985 109.213C32.314 109.432 32.474 109.7 32.5654 109.994C32.7414 110.535 32.7414 111.118 32.5654 111.659C32.474 111.953 32.314 112.221 32.0985 112.44C31.8413 112.697 31.5288 112.891 31.185 113.009C30.713 113.177 30.214 113.256 29.7132 113.242H27.6832V117.038H26.4449V108.411ZM27.7035 112.217H29.358C29.6029 112.217 29.8473 112.197 30.0888 112.156C30.3114 112.129 30.5276 112.064 30.7282 111.963C30.9167 111.866 31.0747 111.718 31.185 111.537C31.2981 111.317 31.3571 111.074 31.3571 110.827C31.3571 110.579 31.2981 110.336 31.185 110.116C31.0747 109.935 30.9167 109.787 30.7282 109.69C30.5276 109.59 30.3114 109.524 30.0888 109.497C29.8473 109.456 29.6029 109.436 29.358 109.436H27.7035V112.217Z" fill="black"/>
<path d="M33.9559 111.973C34.293 111.682 34.6871 111.465 35.113 111.334C35.5355 111.194 35.9774 111.122 36.4224 111.121C36.8169 111.113 37.2104 111.164 37.5896 111.273C37.8839 111.365 38.159 111.509 38.4016 111.699C38.603 111.867 38.7628 112.079 38.8685 112.319C38.9682 112.546 39.0201 112.791 39.0208 113.039V115.993C39.0208 116.196 39.0208 116.379 39.0208 116.551C39.0208 116.724 39.0208 116.886 39.0208 117.038H38.0058C38.0058 116.744 38.0058 116.45 38.0058 116.165C37.7716 116.509 37.4489 116.782 37.072 116.957C36.4221 117.197 35.7159 117.239 35.042 117.079C34.7931 117.011 34.5591 116.897 34.3518 116.744C34.1573 116.602 33.9976 116.419 33.8849 116.206C33.7672 115.973 33.7079 115.716 33.7123 115.455C33.6991 115.122 33.7953 114.794 33.9864 114.521C34.1788 114.261 34.429 114.049 34.7172 113.902C35.0627 113.731 35.4324 113.615 35.8134 113.557C36.2535 113.491 36.6979 113.457 37.143 113.455H38.0058V113.212C38.0047 113.062 37.9737 112.913 37.9144 112.775C37.8492 112.627 37.7562 112.493 37.6404 112.38C37.5096 112.254 37.354 112.157 37.1836 112.095C36.9706 112.026 36.7478 111.992 36.5239 111.994C36.3226 111.991 36.1217 112.012 35.925 112.055C35.7652 112.092 35.609 112.143 35.4581 112.207C35.3264 112.266 35.2006 112.337 35.0826 112.42L34.7578 112.654L33.9559 111.973ZM37.275 114.257C36.9876 114.243 36.6996 114.243 36.4122 114.257C36.1424 114.277 35.8763 114.331 35.6205 114.42C35.3993 114.487 35.1952 114.602 35.0217 114.755C34.9472 114.829 34.889 114.918 34.8505 115.015C34.8121 115.113 34.7943 115.218 34.7984 115.323C34.7887 115.462 34.8165 115.602 34.879 115.727C34.9415 115.852 35.0363 115.958 35.1536 116.033C35.4634 116.204 35.8159 116.282 36.1686 116.257C36.4503 116.264 36.7303 116.212 36.9908 116.105C37.1919 116.02 37.3722 115.892 37.5194 115.731C37.6665 115.57 37.7771 115.379 37.8434 115.171C37.9036 114.977 37.9344 114.775 37.9347 114.572V114.207L37.275 114.257Z" fill="black"/>
<path d="M46.9682 116.988C46.9739 117.4 46.8908 117.808 46.7246 118.185C46.5681 118.548 46.3322 118.87 46.0344 119.129C45.7212 119.404 45.355 119.611 44.9585 119.738C44.5116 119.893 44.041 119.969 43.568 119.962C43.0147 119.965 42.4639 119.887 41.9338 119.728C41.4133 119.561 40.933 119.288 40.523 118.926L41.3248 118.003C41.6179 118.296 41.9619 118.533 42.3398 118.703C42.7296 118.862 43.1471 118.941 43.568 118.936C43.9375 118.945 44.3055 118.887 44.654 118.764C44.913 118.661 45.148 118.505 45.3442 118.307C45.5086 118.123 45.63 117.904 45.6995 117.668C45.7712 117.431 45.8088 117.185 45.8111 116.937V116.135C45.5866 116.48 45.2653 116.752 44.8875 116.917C44.4982 117.078 44.0808 117.161 43.6593 117.16C43.2261 117.166 42.7957 117.09 42.3906 116.937C42.0161 116.797 41.6717 116.587 41.3756 116.318C41.094 116.043 40.87 115.714 40.7166 115.352C40.5633 114.989 40.4836 114.6 40.4824 114.207C40.4819 113.8 40.5576 113.397 40.7057 113.019C40.8497 112.65 41.0696 112.316 41.3511 112.038C41.6327 111.76 41.9695 111.544 42.3398 111.405C42.7568 111.242 43.2017 111.163 43.6492 111.172C44.0716 111.172 44.4896 111.258 44.8773 111.425C45.2491 111.575 45.5723 111.824 45.8111 112.146V112.146V111.314H46.9885L46.9682 116.988ZM43.7405 112.146C43.4492 112.142 43.1598 112.193 42.8879 112.298C42.6493 112.389 42.4317 112.527 42.2485 112.704C42.0697 112.887 41.9314 113.104 41.8425 113.344C41.7385 113.602 41.6867 113.878 41.6902 114.156C41.6808 114.415 41.7256 114.674 41.8217 114.915C41.9178 115.156 42.0632 115.375 42.2485 115.556C42.671 115.898 43.1976 116.084 43.7405 116.084C44.2835 116.084 44.8101 115.898 45.2326 115.556C45.4194 115.376 45.5658 115.157 45.662 114.916C45.7583 114.675 45.8022 114.415 45.7908 114.156C45.7924 113.879 45.7443 113.604 45.6487 113.344C45.5563 113.104 45.4145 112.886 45.2326 112.704C45.0494 112.527 44.8318 112.389 44.5931 112.298C44.3213 112.193 44.0319 112.142 43.7405 112.146V112.146Z" fill="black"/>
<path d="M49.6478 114.552C49.6459 114.793 49.7053 115.03 49.8204 115.242C49.9394 115.447 50.0982 115.626 50.2873 115.77C50.4879 115.924 50.7148 116.041 50.9572 116.115C51.2131 116.196 51.4803 116.237 51.7489 116.237C52.0832 116.244 52.4132 116.16 52.703 115.993C52.9849 115.828 53.2386 115.619 53.4541 115.374L54.3473 116.003C54.0059 116.393 53.5793 116.699 53.1006 116.898C52.6219 117.097 52.1038 117.183 51.5865 117.15C51.1333 117.158 50.6826 117.082 50.2568 116.927C49.8826 116.777 49.5387 116.56 49.2418 116.287C48.9611 115.998 48.7463 115.652 48.6125 115.272C48.4608 114.891 48.3849 114.485 48.3892 114.075C48.3855 113.659 48.4685 113.248 48.6328 112.867C48.7891 112.507 49.017 112.182 49.3027 111.913C49.5943 111.633 49.9396 111.415 50.3177 111.273C51.1802 110.942 52.1349 110.942 52.9973 111.273C53.3565 111.44 53.6777 111.678 53.9413 111.973C54.184 112.273 54.3635 112.618 54.4691 112.988C54.5783 113.347 54.633 113.72 54.6315 114.095V114.481L49.6478 114.552ZM53.3729 113.679C53.3655 113.451 53.3245 113.225 53.2511 113.009C53.1761 112.812 53.0622 112.633 52.9161 112.481C52.7588 112.323 52.5681 112.201 52.3579 112.126C52.1086 112.031 51.843 111.986 51.5763 111.994C51.3048 111.989 51.0352 112.041 50.7846 112.146C50.5576 112.237 50.3506 112.371 50.1756 112.542C50.0086 112.697 49.8741 112.883 49.7798 113.09C49.6929 113.274 49.6479 113.475 49.6478 113.679H53.3729Z" fill="black"/>
<path d="M9.05798 123.027H10.7124L15.7874 130.132V123.027H17.046V131.654H15.5134L10.347 124.549V131.654H9.05798V123.027Z" fill="black"/>
<path d="M18.9035 128.772C18.8982 128.362 18.9849 127.956 19.1572 127.584C19.3296 127.223 19.567 126.896 19.8576 126.62C20.1556 126.346 20.4991 126.126 20.8726 125.97C21.2876 125.813 21.728 125.734 22.1718 125.737C22.6154 125.736 23.0555 125.815 23.471 125.97C23.845 126.125 24.1886 126.345 24.486 126.62C24.7766 126.896 25.014 127.223 25.1863 127.584C25.3587 127.956 25.4454 128.362 25.4401 128.772C25.443 129.181 25.3564 129.587 25.1863 129.959C25.0189 130.321 24.7808 130.645 24.486 130.913C24.1886 131.188 23.845 131.408 23.471 131.563C23.0568 131.723 22.6158 131.802 22.1718 131.796C21.7276 131.804 21.2862 131.725 20.8726 131.563C20.4991 131.407 20.1556 131.187 19.8576 130.913C19.5628 130.645 19.3246 130.321 19.1572 129.959C18.9872 129.587 18.9006 129.181 18.9035 128.772ZM20.1621 128.772C20.1612 129.045 20.2094 129.317 20.3042 129.574C20.3944 129.812 20.5326 130.03 20.7102 130.213C20.8965 130.394 21.1174 130.536 21.3598 130.629C21.9101 130.832 22.5147 130.832 23.065 130.629C23.3042 130.535 23.5218 130.394 23.7044 130.213C23.8855 130.033 24.0241 129.814 24.1104 129.574C24.2997 129.052 24.2997 128.481 24.1104 127.96C24.0215 127.72 23.8832 127.503 23.7044 127.32C23.5213 127.143 23.3036 127.005 23.065 126.914C22.5147 126.712 21.9101 126.712 21.3598 126.914C21.118 127.004 20.897 127.142 20.7102 127.32C20.5347 127.505 20.3969 127.722 20.3042 127.96C20.2086 128.22 20.1605 128.495 20.1621 128.772Z" fill="black"/>
<path d="M30.3324 126.833H28.6373V129.452C28.6373 129.614 28.6373 129.777 28.6373 129.929C28.6472 130.076 28.6815 130.22 28.7388 130.355C28.7923 130.482 28.8847 130.589 29.0027 130.66C29.1598 130.75 29.3397 130.792 29.5204 130.781C29.6657 130.791 29.8115 130.791 29.9568 130.781C30.0983 130.759 30.2353 130.715 30.3628 130.65V131.665C30.1896 131.745 30.0045 131.796 29.8147 131.817C29.6424 131.828 29.4694 131.828 29.2971 131.817C28.9504 131.831 28.6047 131.772 28.2821 131.644C28.0588 131.549 27.8684 131.39 27.734 131.187C27.6108 130.999 27.5375 130.783 27.5208 130.558C27.5208 130.328 27.5208 130.095 27.5208 129.858V126.813H26.11V125.859H27.4802V124.255H28.6576V125.869H30.3527L30.3324 126.833Z" fill="black"/>
<path d="M35.8033 123.027H41.6395V124.123H37.0619V126.833H41.335V127.929H37.072V131.654H35.8033V123.027Z" fill="black"/>
<path d="M42.7357 128.772C42.7304 128.362 42.8171 127.956 42.9895 127.584C43.1618 127.223 43.3992 126.896 43.6898 126.62C43.9872 126.345 44.3308 126.125 44.7048 125.97C45.1203 125.815 45.5604 125.736 46.004 125.737C46.4478 125.734 46.8882 125.813 47.3032 125.97C47.6767 126.126 48.0202 126.346 48.3182 126.62C48.6088 126.896 48.8462 127.223 49.0186 127.584C49.1909 127.956 49.2776 128.362 49.2723 128.772C49.2752 129.181 49.1886 129.587 49.0186 129.959C48.8511 130.321 48.613 130.645 48.3182 130.913C48.0202 131.187 47.6767 131.407 47.3032 131.563C46.8895 131.725 46.4482 131.804 46.004 131.796C45.56 131.802 45.119 131.723 44.7048 131.563C44.3308 131.408 43.9872 131.188 43.6898 130.913C43.395 130.645 43.1569 130.321 42.9895 129.959C42.8194 129.587 42.7328 129.181 42.7357 128.772V128.772ZM43.9943 128.772C43.9935 129.045 44.0416 129.317 44.1364 129.574C44.2227 129.814 44.3614 130.033 44.5424 130.213C44.725 130.394 44.9426 130.535 45.1819 130.629C45.7322 130.832 46.3367 130.832 46.8871 130.629C47.1294 130.536 47.3504 130.394 47.5367 130.213C47.7142 130.03 47.8524 129.812 47.9427 129.574C48.1319 129.052 48.1319 128.481 47.9427 127.96C47.85 127.722 47.7121 127.505 47.5367 127.32C47.3498 127.142 47.1288 127.004 46.8871 126.914C46.3367 126.712 45.7322 126.712 45.1819 126.914C44.9432 127.005 44.7256 127.143 44.5424 127.32C44.3637 127.503 44.2253 127.72 44.1364 127.96C44.0408 128.22 43.9927 128.495 43.9943 128.772Z" fill="black"/>
<path d="M56.3367 131.654H55.1593V130.761C54.9944 131.091 54.7225 131.356 54.3879 131.512C53.9946 131.709 53.5589 131.807 53.1191 131.796C52.8238 131.798 52.5297 131.757 52.2462 131.675C51.987 131.588 51.7461 131.454 51.5357 131.279C51.3211 131.088 51.1513 130.852 51.0384 130.589C50.9072 130.267 50.845 129.921 50.8557 129.574V125.879H52.0432V129.33C52.0338 129.565 52.0718 129.8 52.1549 130.02C52.2247 130.197 52.332 130.356 52.4695 130.487C52.6023 130.603 52.7579 130.689 52.9263 130.741C53.0973 130.793 53.2751 130.821 53.4541 130.822C53.6886 130.822 53.9217 130.784 54.1443 130.71C54.3491 130.635 54.5358 130.517 54.6924 130.365C54.8533 130.188 54.9775 129.981 55.0578 129.756C55.1531 129.479 55.1978 129.187 55.1897 128.894V125.879H56.3671L56.3367 131.654Z" fill="black"/>
<path d="M58.1231 125.879H59.3005V126.772C59.4679 126.444 59.7391 126.18 60.0719 126.021C60.4684 125.823 60.9076 125.725 61.3508 125.737C61.6394 125.736 61.9266 125.777 62.2034 125.859C62.4681 125.94 62.7133 126.075 62.924 126.255C63.1394 126.444 63.3094 126.68 63.4214 126.945C63.5526 127.267 63.6148 127.612 63.6041 127.96V131.675H62.4267V128.264C62.4321 128.028 62.3907 127.794 62.3049 127.574C62.2379 127.399 62.13 127.242 61.9902 127.117C61.858 126.999 61.7024 126.909 61.5335 126.853C61.3621 126.804 61.1842 126.78 61.0057 126.782C60.775 126.779 60.5453 126.813 60.3256 126.884C60.1161 126.96 59.9256 127.082 59.7674 127.239C59.6044 127.41 59.4799 127.615 59.402 127.838C59.3115 128.116 59.2669 128.408 59.27 128.701V131.675H58.0927L58.1231 125.879Z" fill="black"/>
<path d="M71.653 131.654H70.4756V130.822C70.2368 131.144 69.9136 131.393 69.5418 131.543C69.154 131.71 68.7361 131.797 68.3137 131.796C67.867 131.805 67.4228 131.729 67.0043 131.573C66.6261 131.426 66.281 131.206 65.9893 130.924C65.7149 130.647 65.4976 130.32 65.3499 129.959C65.1969 129.582 65.1209 129.179 65.1266 128.772C65.1212 128.358 65.1971 127.948 65.3499 127.564C65.4954 127.205 65.713 126.881 65.9893 126.61C66.2793 126.328 66.625 126.11 67.0043 125.97C67.4208 125.806 67.866 125.726 68.3137 125.737C68.7475 125.731 69.1773 125.821 69.5723 126.001C69.9355 126.146 70.2492 126.392 70.4756 126.711V126.711V122.448H71.653V131.654ZM68.4253 130.781C68.7167 130.786 69.0061 130.734 69.2779 130.629C69.5172 130.535 69.7348 130.394 69.9174 130.213C70.0984 130.033 70.2371 129.814 70.3234 129.574C70.5265 129.055 70.5265 128.479 70.3234 127.96C70.2345 127.72 70.0961 127.503 69.9174 127.32C69.7342 127.143 69.5166 127.005 69.2779 126.914C68.7276 126.712 68.123 126.712 67.5727 126.914C67.3341 127.005 67.1165 127.143 66.9333 127.32C66.7513 127.502 66.6096 127.72 66.5171 127.96C66.3279 128.481 66.3279 129.052 66.5171 129.574C66.607 129.815 66.7491 130.033 66.9333 130.213C67.1159 130.394 67.3335 130.535 67.5727 130.629C67.8445 130.734 68.134 130.786 68.4253 130.781V130.781Z" fill="black"/>
<path d="M300.85 70.257H238.448C235.236 70.257 232.632 72.8609 232.632 76.073V97.8041C232.632 101.016 235.236 103.62 238.448 103.62H300.85C304.062 103.62 306.666 101.016 306.666 97.8041V76.073C306.666 72.8609 304.062 70.257 300.85 70.257Z" fill="white"/>
<path d="M300.86 104.117H238.448C236.772 104.115 235.165 103.448 233.98 102.262C232.794 101.077 232.127 99.4702 232.125 97.794V76.073C232.127 74.3967 232.794 72.7899 233.98 71.6046C235.165 70.4193 236.772 69.7522 238.448 69.7495H300.86C302.537 69.7522 304.143 70.4193 305.329 71.6046C306.514 72.7899 307.181 74.3967 307.184 76.073V97.794C307.181 99.4702 306.514 101.077 305.329 102.262C304.143 103.448 302.537 104.115 300.86 104.117V104.117ZM238.448 70.7645C237.04 70.7645 235.69 71.3238 234.694 72.3193C233.699 73.3148 233.14 74.6651 233.14 76.073V97.794C233.14 99.2018 233.699 100.552 234.694 101.548C235.69 102.543 237.04 103.102 238.448 103.102H300.86C302.268 103.102 303.618 102.543 304.614 101.548C305.61 100.552 306.169 99.2018 306.169 97.794V76.073C306.169 74.6651 305.61 73.3148 304.614 72.3193C303.618 71.3238 302.268 70.7645 300.86 70.7645H238.448Z" fill="#D1D3D4"/>
<path d="M255.5 91.9475H246.771V88.9025L253.409 79.1281H259.154V88.9025H261.255V91.9475H259.154V94.7388H255.5V91.9475ZM255.5 88.9025V81.4524L250.425 88.9025H255.5Z" fill="black"/>
<path d="M262.27 86.9334C262.27 81.8584 265.315 78.8134 269.72 78.8134C274.125 78.8134 277.14 81.8584 277.14 86.9334C277.14 92.0084 274.095 95.0534 269.72 95.0534C265.345 95.0534 262.27 91.9983 262.27 86.9334ZM273.516 86.9334C273.516 83.4926 272.075 81.7975 269.72 81.7975C267.365 81.7975 265.894 83.4926 265.894 86.9334C265.894 90.3743 267.335 92.0693 269.72 92.0693C272.105 92.0693 273.516 90.3743 273.516 86.9334Z" fill="black"/>
<path d="M286.813 91.9475H278.043V88.9025L284.681 79.1281H290.436V88.9025H292.537V91.9475H290.436V94.7388H286.813V91.9475ZM286.813 88.9025V81.4524H286.762L281.687 88.9025H286.813Z" fill="black"/>
<path d="M48.6227 32.5294C48.5158 32.5303 48.4119 32.4945 48.3283 32.4279C48.2213 32.3471 48.1498 32.2278 48.129 32.0953C48.1081 31.9627 48.1396 31.8273 48.2167 31.7174C50.0335 29.2307 52.2767 25.6274 50.6019 22.7651C50.5504 22.6734 50.4927 22.5853 50.4294 22.5012C48.584 24.7303 46.3904 26.6463 43.9334 28.1751C42.6334 29.1161 41.0342 29.5493 39.4369 29.3931C39.0977 29.3243 38.7761 29.1872 38.4916 28.99C38.2072 28.7928 37.9659 28.5397 37.7825 28.2462C37.5495 27.8258 37.405 27.3622 37.3578 26.8839C37.3107 26.4057 37.362 25.9228 37.5084 25.465C37.5923 25.1392 37.7008 24.8203 37.8332 24.511C35.6983 26.6463 33.2844 28.4832 30.6572 29.9716C30.0894 30.337 29.4239 30.5211 28.749 30.4994C28.2068 30.3869 27.7158 30.1014 27.3498 29.6859C26.9837 29.2705 26.7624 28.7474 26.719 28.1954C26.6622 27.2072 26.8726 26.222 27.328 25.3433C29.114 21.4804 31.8832 18.1544 35.3585 15.698C38.8338 13.2416 42.8932 11.741 47.1306 11.3464C47.8858 9.4513 47.9893 7.3589 47.425 5.3985C47.1485 4.44385 46.629 3.57727 45.9174 2.88343C45.2058 2.1896 44.3263 1.69225 43.365 1.44C41.5299 1.22123 39.672 1.57578 38.0464 2.455C29.2967 6.43723 22.1449 13.2529 17.7464 21.8009C17.4053 22.3383 17.2224 22.9609 17.2186 23.5974C17.2353 23.741 17.2808 23.8796 17.3523 24.0052C17.4238 24.1308 17.5199 24.2406 17.6347 24.3283C17.6939 24.3797 17.7637 24.4173 17.8392 24.4384C17.9147 24.4594 17.994 24.4634 18.0712 24.45C18.2058 24.4245 18.345 24.4534 18.4583 24.5305C18.5715 24.6076 18.6495 24.7265 18.6751 24.8611C18.7007 24.9957 18.6717 25.135 18.5946 25.2482C18.5176 25.3615 18.3986 25.4395 18.264 25.465C18.0421 25.5153 17.812 25.5168 17.5894 25.4695C17.3669 25.4222 17.1573 25.3272 16.975 25.191C16.5315 24.841 16.2435 24.3306 16.1731 23.77C16.1459 22.9324 16.3685 22.1056 16.8126 21.3949C21.3235 12.6305 28.6577 5.64309 37.6302 1.5618C39.3963 0.770097 41.4771 -0.00130221 43.5477 0.424998C44.6997 0.705185 45.7579 1.28298 46.6165 2.10058C47.475 2.91818 48.1039 3.94691 48.44 5.08385C49.0207 7.11888 48.9461 9.28507 48.2268 11.2753C48.8967 11.2753 49.5666 11.2753 50.2568 11.2753C50.909 11.2793 51.5503 11.4431 52.1244 11.7524C53.4439 12.5745 53.515 14.3203 53.4439 15.2846C53.2365 17.571 52.416 19.7591 51.0688 21.6182C51.2224 21.8071 51.3615 22.0073 51.485 22.217C53.4541 25.5665 51.0384 29.5656 49.049 32.2858C49.0051 32.3599 48.9427 32.4212 48.868 32.4639C48.7933 32.5066 48.7087 32.5292 48.6227 32.5294ZM46.684 12.402C42.7121 12.8604 38.9251 14.3338 35.6878 16.6804C32.4506 19.027 29.8721 22.1677 28.2009 25.8C27.8277 26.5164 27.6459 27.317 27.6731 28.1243C27.6927 28.456 27.8189 28.7725 28.0329 29.0267C28.2468 29.2809 28.5372 29.4593 28.8606 29.5352C29.3306 29.5311 29.7892 29.39 30.1801 29.1292C34.3518 26.8657 37.7013 23.3538 40.929 19.9942C42.9996 17.68 45.3239 15.2846 46.684 12.402ZM45.8416 20.522C45.3235 20.5204 44.8066 20.5714 44.2988 20.6742C42.9614 20.9132 41.7144 21.5119 40.6916 22.406C39.6687 23.3001 38.9087 24.4559 38.493 25.7492C38.3821 26.0807 38.3385 26.431 38.3646 26.7796C38.3908 27.1281 38.4862 27.468 38.6452 27.7792C38.7558 27.9597 38.9035 28.1146 39.0785 28.2336C39.2535 28.3526 39.4518 28.433 39.6602 28.4694C40.9825 28.5778 42.3008 28.2186 43.3853 27.4544C45.8071 25.9173 47.9547 23.9858 49.7392 21.74C48.6256 20.8794 47.2484 20.4311 45.8416 20.4712V20.522ZM45.8416 19.507C47.4702 19.4619 49.0649 19.9779 50.3583 20.9686C51.5251 19.2864 52.2255 17.3253 52.3883 15.2846C52.3883 14.6959 52.3883 13.2546 51.5459 12.6963C51.1155 12.4771 50.6383 12.3657 50.1553 12.3715C49.3745 12.3259 48.5916 12.3259 47.8107 12.3715C46.4607 15.5485 44.0146 18.157 41.812 20.4915C42.5288 20.1409 43.2854 19.8784 44.0653 19.71C44.6403 19.5649 45.2288 19.4799 45.8213 19.4562L45.8416 19.507Z" fill="#D1D3D4"/>
</svg>
