<?xml version="1.0" encoding="UTF-8" standalone="no"?>
<svg
   xmlns:dc="http://purl.org/dc/elements/1.1/"
   xmlns:cc="http://creativecommons.org/ns#"
   xmlns:rdf="http://www.w3.org/1999/02/22-rdf-syntax-ns#"
   xmlns:svg="http://www.w3.org/2000/svg"
   xmlns="http://www.w3.org/2000/svg"
   viewBox="0 0 666.66669 666.66669"
   height="666.66669"
   width="666.66669"
   xml:space="preserve"
   id="svg2"
   version="1.1"><metadata
     id="metadata8"><rdf:RDF><cc:Work
         rdf:about=""><dc:format>image/svg+xml</dc:format><dc:type
           rdf:resource="http://purl.org/dc/dcmitype/StillImage" /></cc:Work></rdf:RDF></metadata><defs
     id="defs6"><clipPath
       id="clipPath20"
       clipPathUnits="userSpaceOnUse"><path
         id="path18"
         d="M 0,500 H 500 V 0 H 0 Z" /></clipPath></defs><g
     transform="matrix(1.3333333,0,0,-1.3333333,0,666.66667)"
     id="g10"><path
       id="path12"
       style="fill:#ffffff;fill-opacity:1;fill-rule:nonzero;stroke:none"
       d="M 0,0 H 500 V 500 H 0 Z" /><g
       id="g14"><g
         clip-path="url(#clipPath20)"
         id="g16"><g
           transform="translate(348.6033,404.8961)"
           id="g22"><path
             id="path24"
             style="fill:#a7c2bd;fill-opacity:1;fill-rule:nonzero;stroke:none"
             d="m 0,0 c -25.864,-54.22 -69.002,-98.493 -116.179,-135.684 -3.977,-3.136 -8.461,-7.652 -6.821,-12.445 0.78,-2.277 2.803,-3.874 4.794,-5.228 19.309,-13.133 45.271,-15.459 66.955,-6.792 21.684,8.666 38.689,27.819 45.606,50.123 3.309,10.671 4.432,21.915 7.605,32.627 5.145,17.372 15.453,32.675 23.354,48.978 7.902,16.304 13.473,35.069 8.313,52.436 -0.35,1.178 -0.79,2.406 -1.742,3.183 -1.935,1.58 -4.821,0.552 -7.007,-0.656 C 17.806,22.636 8.974,18.812 0,0" /></g><g
           transform="translate(170.2789,214.2432)"
           id="g26"><path
             id="path28"
             style="fill:#eccbbc;fill-opacity:1;fill-rule:nonzero;stroke:none"
             d="m 0,0 c 18.076,-0.23 32.471,-14.917 49.62,-20.638 3.564,-1.189 7.376,-1.992 11.074,-1.324 7.642,1.381 13.21,9.832 11.463,17.398 -0.928,4.019 -3.513,7.421 -6.032,10.687 -3.18,4.125 -6.361,8.25 -9.651,12.288 -2.724,3.345 -5.617,6.706 -9.418,8.746 -5.784,3.104 -12.932,2.675 -19.119,0.481 C 18.876,24.424 11.182,17.528 0,0" /></g><g
           transform="translate(307.8371,168.1315)"
           id="g30"><path
             id="path32"
             style="fill:#030202;fill-opacity:1;fill-rule:nonzero;stroke:none"
             d="M 0,0 C 0.002,-0.002 0.005,-0.006 0.008,-0.01 0.01,-0.011 0.014,-0.013 0.017,-0.015 0.011,-0.009 0.005,-0.005 0,0" /></g><g
           transform="translate(307.876,167.8735)"
           id="g34"><path
             id="path36"
             style="fill:#030202;fill-opacity:1;fill-rule:nonzero;stroke:none"
             d="M 0,0 C 0,0 0,-0.001 0,-0.001 0.003,0.016 0.005,0.031 0.008,0.044 0.005,0.029 0.002,0.015 0,0" /></g><g
           transform="translate(307.913,168.0498)"
           id="g38"><path
             id="path40"
             style="fill:#030202;fill-opacity:1;fill-rule:nonzero;stroke:none"
             d="M 0,0 C 0,0 0,0 0,0 0,-0.001 0.001,-0.001 0.001,-0.002 0.001,-0.001 0,-0.001 0,0" /></g><g
           transform="translate(422.1087,55.9139)"
           id="g42"><path
             id="path44"
             style="fill:#030202;fill-opacity:1;fill-rule:nonzero;stroke:none"
             d="m 0,0 c -2.637,1.88 -5.453,5.216 -7.836,8.092 -3.236,3.997 -6.31,8.121 -9.528,12.132 -2.115,2.63 -4.226,5.249 -6.313,7.854 C -8.115,14.995 -1.96,5.168 0.707,0.521 0.874,0.23 1.047,-0.058 1.179,-0.366 1.2,-0.423 1.239,-0.527 1.255,-0.598 1.263,-0.621 1.268,-0.646 1.275,-0.67 0.93,-0.559 0.482,-0.295 0,0 m -161.115,191.2 c -1.253,0.2 -2.519,0.452 -3.85,0.834 -2.08,0.786 -3.599,1.146 -5.021,2.837 -0.071,0.035 -0.338,0.548 -0.373,0.745 0.004,0.017 0.009,0.037 0.014,0.057 0.002,0.002 0.003,0.004 0.005,0.007 0.019,0.014 0.043,0.028 0.068,0.042 0.013,0.003 0.029,0.008 0.038,0.01 0.341,0.009 0.157,0.02 0.585,-0.077 2.851,-0.793 5.181,-2.34 8.146,-4.196 0.137,-0.09 0.263,-0.175 0.388,-0.259 m -108.408,101.653 c 0.272,-1.448 0.623,-2.421 0.338,-3.469 -0.016,-0.015 -0.032,-0.031 -0.05,-0.049 -0.02,-0.004 -0.041,-0.01 -0.066,-0.016 -0.006,10e-4 -0.013,0.003 -0.02,0.004 l -0.035,0.018 c -0.048,0.04 -0.124,0.105 -0.154,0.145 -0.054,0.085 -0.139,0.218 -0.177,0.268 -0.909,1.341 -1.182,2.557 -1.541,4.294 -0.511,2.402 -0.478,5.124 -0.399,7.936 0.053,1.585 0.139,3.168 0.236,4.751 0.251,-4.669 0.846,-9.315 1.868,-13.882 m -3.082,-8.124 c 0.451,-0.831 0.905,-1.659 1.349,-2.492 1.913,-3.656 4.07,-7.049 5.192,-10.722 0.346,-1.125 0.448,-1.896 0.575,-2.841 0.077,-0.497 0.084,-0.85 0.003,-1.163 -0.019,0.015 -0.037,0.03 -0.055,0.044 -0.324,0.332 -0.506,0.767 -0.745,1.159 -2.664,5.041 -3.822,10.831 -6.319,16.015 m 31.663,-97.514 c 1.469,1.306 2.915,2.638 4.304,4.031 2.647,2.507 5.309,4.996 7.838,7.622 1.992,1.972 3.993,3.936 6.016,5.877 0.664,0.644 1.812,1.68 2.044,1.846 0.696,0.487 1.329,0.94 1.941,1.138 -0.414,-0.888 -0.969,-1.704 -1.545,-2.494 -4.203,-5.776 -10.741,-12.138 -17.35,-16.275 -1.12,-0.708 -2.186,-1.261 -3.248,-1.745 M -38.336,42.067 c -3.325,2.902 -6.393,6.081 -9.61,9.101 -3.405,3.264 -6.736,6.605 -10.179,9.83 -4.403,4.199 -8.833,8.376 -12.963,12.847 -5.69,5.969 -10.511,12.672 -15.784,18.997 -3.29,4.029 -7.009,7.67 -10.762,11.263 -1.656,1.583 -3.34,3.138 -5.099,4.608 -1.424,1.197 -2.928,2.296 -4.332,3.517 -1.557,1.384 -2.687,2.383 -3.43,4.2 -0.836,2.169 -2.086,6.142 -2.981,8.913 -1.56,5.155 -3.016,10.355 -5.078,15.339 -0.374,0.875 -0.749,1.752 -1.197,2.592 -0.332,0.567 -0.718,1.416 -1.495,1.209 -2.422,-0.901 1.859,-11.512 2.554,-13.478 1.035,-2.79 2.026,-5.597 3.036,-8.397 0.525,-1.47 1.073,-2.932 1.595,-4.404 0.263,-0.741 0.527,-1.555 0.483,-1.873 -0.002,-0.004 -0.005,-0.009 -0.007,-0.013 -0.022,-0.006 -0.043,-0.012 -0.065,-0.018 -0.05,-0.003 -0.101,-0.006 -0.151,-0.009 -0.057,0.011 -0.12,0.025 -0.153,0.031 -1.155,0.302 -1.871,0.782 -3.084,1.503 -2.767,1.689 -5.306,3.75 -8.188,5.248 -1.578,0.821 -3.255,1.424 -4.926,2.025 -13.075,4.705 -13.073,2.419 -15.1,-1.597 -0.79,-1.565 -1.475,-3.179 -2.132,-4.803 -1.276,-3.114 -2.558,-6.225 -3.777,-9.361 -0.379,0.26 -0.822,0.441 -1.214,0.676 -0.979,0.601 -1.2,0.786 -2.206,1.659 -0.794,0.672 -1.308,1.34 -1.452,1.816 -0.3,0.922 -0.197,1.52 -0.339,2.68 -0.006,0.056 -0.021,0.173 -0.032,0.254 -0.002,0.015 -0.004,0.03 -0.006,0.046 -0.001,0.026 -0.002,0.047 -0.004,0.065 -0.001,0.019 -0.001,0.036 -0.001,0.05 0.006,0.028 0.011,0.056 0.02,0.083 0.007,0.011 0.012,0.021 0.017,0.028 0.007,0.008 0.013,0.015 0.019,0.021 0.853,0.513 1.205,0.527 2.19,0.53 0.941,-0.022 1.719,-0.441 2.886,-0.162 1.214,0.278 1.632,1.546 0.494,2.265 -0.671,0.433 -1.528,0.33 -2.29,0.306 -0.839,-0.041 -1.533,0.025 -2.004,0.117 -0.777,0.157 -1.451,0.505 -1.794,0.817 -0.436,0.523 0.081,1.412 1.121,3.029 0.066,0.102 0.124,0.208 0.183,0.314 0.615,-1.174 1.42,-2.245 2.432,-3.115 0.461,-0.347 0.898,-0.784 1.449,-0.977 0.414,-0.112 0.793,0.298 0.658,0.705 -0.549,1.465 -1.706,2.617 -2.272,4.08 -0.087,0.216 -0.181,0.433 -0.23,0.661 0,0.044 -0.148,0.668 1.204,0.27 0.797,-0.284 2.397,-1.458 3.686,-1.723 0.536,-0.084 1.144,-0.189 1.656,0.032 0.621,0.337 0.841,1.078 0.488,1.694 -0.615,1.075 -3.237,1.525 -4.279,1.798 -0.426,0.111 -1.268,0.644 -1.443,0.892 -0.002,0.035 -0.002,0.069 0,0.104 0.005,0.019 0.01,0.041 0.019,0.073 0.007,0.024 0.017,0.047 0.026,0.07 0.048,0.087 0.247,0.484 0.311,0.565 0.047,0.076 0.098,0.148 0.151,0.22 0.02,0.023 0.045,0.052 0.071,0.083 0.562,0.643 1.228,1.191 1.776,1.845 0.886,1.357 -1.653,2.297 -1.952,2.644 -0.774,0.745 -1.044,1.063 -1.464,1.923 -0.019,0.039 -0.048,0.102 -0.071,0.153 -0.091,0.303 -0.069,0.115 -0.063,0.543 -0.022,0.444 0.405,1.124 0.965,1.791 -0.049,0.025 -0.1,0.048 -0.149,0.074 -0.14,0.074 -1.95,-0.416 -1.89,-2.062 0.041,-0.906 0.612,-1.766 1.173,-2.448 0.562,-0.774 1.381,-1.252 2.18,-1.742 0.234,-0.202 0.167,-0.084 0.317,-0.313 -0.388,-0.448 -0.832,-0.844 -1.248,-1.266 -0.759,-0.791 -1.699,-1.953 -0.96,-2.944 0.82,-0.883 2.013,-1.304 3.173,-1.523 2.841,-0.697 2.476,-1.169 2.462,-1.189 -0.116,-0.163 -0.751,-0.101 -1.282,0.043 -0.629,0.175 -0.977,0.401 -1.744,0.789 -0.744,0.396 -1.464,0.9 -2.327,0.976 -1.13,0.094 -2.094,-0.609 -1.686,-1.816 0.311,-0.908 0.77,-1.751 1.294,-2.551 -0.608,0.638 -1.484,2.192 -1.724,2.757 -0.047,0.125 -0.086,0.252 -0.129,0.378 0.061,2.962 1.109,7.324 0.201,10.48 -0.353,1.225 -1.501,1.323 -2.146,0.258 -0.715,-1.443 -0.862,-3.127 -0.684,-4.711 0.058,-0.569 0.143,-1.134 0.247,-1.696 -0.617,0.258 -2.523,1.245 -3.597,1.735 -3.106,1.811 -9.158,4.63 -10.646,5.155 -4.309,1.52 -8.799,2.431 -13.209,3.602 -3.632,1.032 -7.258,2.104 -10.779,3.475 -3.057,1.191 -6.102,2.414 -9.148,3.633 -0.556,0.218 -1.113,0.437 -1.669,0.656 -0.143,0.04 -0.293,0.02 -0.424,-0.046 -2.357,0.937 -4.505,1.873 -6.914,3.238 -4.928,2.683 -9.032,5.493 -12.874,9.298 -0.772,0.855 -1.714,1.803 -2.617,2.757 0.689,0.289 1.16,0.825 1.226,1.756 -0.104,0.761 -0.622,1.4 -1.152,1.927 -0.613,0.601 -1.307,1.111 -2.053,1.535 -0.454,0.25 -0.904,0.538 -1.408,0.675 -1.466,0.138 -1.023,-1.897 -0.571,-2.695 0.365,-0.762 0.836,-1.453 1.358,-2.108 -1.446,0.168 -3.229,0.534 -4.705,0.573 -1.731,0.045 -14.129,-5.813 -18.223,-6.792 -2.205,-0.528 -4.478,-0.703 -6.672,-1.272 -1.494,-0.366 -2.917,-0.966 -4.27,-1.692 -1.263,-0.602 -2.431,-1.377 -3.463,-2.323 -0.154,-0.134 -0.304,-0.272 -0.457,-0.407 0.659,0.772 1.992,2.31 2.268,3.071 0.732,1.989 -0.559,1.65 -0.706,1.588 -0.072,-0.03 -0.137,-0.057 -0.19,-0.104 -0.053,0.232 -0.175,0.463 -0.364,0.657 1.086,-0.277 1.282,-0.478 2.079,-1.079 0.43,-0.323 3.752,1.3 4.753,1.852 1.384,0.763 2.554,1.829 3.589,3.014 0.923,1.046 1.669,2.23 2.405,3.411 0.697,1.064 1.386,2.138 1.935,3.288 0.167,0.386 0.381,0.807 0.326,1.239 0.401,0.426 0.773,0.881 1.131,1.327 1.729,2.063 2.458,4.687 3.42,7.148 0.676,1.817 1.85,3.847 3.462,5.366 0.558,0.485 1.118,0.969 1.678,1.453 1.685,0.665 3.397,1.356 5.16,2.259 6.145,3.502 11.421,8.358 16.123,13.602 1.027,1.172 1.97,2.414 2.901,3.662 0.765,1.046 1.539,2.111 2.023,3.321 0.139,0.367 0.104,0.85 -0.21,1.099 -0.655,0.542 -1.905,-0.062 -2.522,-0.418 -1.258,-0.727 -2.294,-1.765 -3.356,-2.744 -3.394,-3.18 -6.682,-6.469 -10.009,-9.717 -2.584,-2.367 -5.071,-4.836 -7.637,-7.222 -1.065,-0.935 -2.139,-1.86 -3.208,-2.791 -0.552,-0.215 -1.117,-0.437 -1.701,-0.676 -2.259,-0.991 -4.549,-1.935 -6.707,-3.136 -2.849,-1.643 -5.38,-3.193 -8.171,-3.314 -4.058,-0.115 -7.095,-1.804 -9.901,-4.644 -2.227,-2.238 -4.69,-4.238 -7.505,-4.13 -1.424,0.065 -2.628,0.798 -3.39,2.169 -0.37,0.724 -0.715,2.474 -0.759,3.392 -0.214,3.456 -0.289,7.672 0.167,10.577 1.381,6.83 5.344,12.134 10.711,16.737 2.772,2.472 6.879,4.615 10.677,6.276 0.453,0.181 1.002,0.382 1.606,0.589 -0.146,-1.122 0.033,-2.184 1.436,-2.416 0.919,-0.081 1.83,0.2 2.71,0.433 1.055,0.297 2.116,0.576 3.193,0.783 2.044,0.428 3.937,0.555 6.253,0.779 0.619,0.059 1.238,0.119 1.856,0.187 0.375,0.065 0.806,0.019 1.107,0.29 0.642,0.611 -0.136,1.441 -0.766,1.699 -1.106,0.621 -2.381,0.837 -3.62,1.025 -1.603,0.228 -3.23,0.276 -4.841,0.11 -2.005,-0.239 -3.985,-0.672 -5.92,-1.261 0.435,1.812 1.191,3.523 1.839,5.266 0.384,1.097 0.614,2.242 0.808,3.385 0.652,4.216 0.25,8.564 -0.674,12.725 -1.758,7.921 -13.7,21.611 -17.627,32.456 -1.439,3.976 -2.702,8.722 -3.103,12.354 -0.416,3.343 -0.488,6.721 -0.546,10.086 0.004,0.689 -0.018,1.642 0.037,2.135 0.442,-0.216 1.119,-1.081 1.702,-1.802 1.915,-2.323 3.384,-6.141 4.498,-9.266 0.817,-2.364 1.771,-4.963 2.688,-7.143 0.425,-1.016 0.857,-2.031 1.367,-3.008 0.342,-0.609 0.638,-1.299 1.222,-1.717 0.352,-0.294 0.941,-0.238 1.213,0.138 0.365,0.576 0.279,1.285 0.213,1.932 -0.165,1.879 -0.721,3.689 -1.415,5.435 -1.261,3.1 -3.713,7.087 -5.461,10.488 -0.798,1.616 -1.886,3.056 -2.19,4.524 -0.417,3.247 -0.432,7.739 -0.62,11.483 -0.24,5.847 -0.342,11.727 0.441,17.54 0.316,2.086 0.777,5.743 1.433,8.293 0.157,0.843 0.629,2.514 0.706,2.848 0.001,0.002 0.002,0.004 0.002,0.007 0.025,-0.078 0.045,-0.157 0.057,-0.239 0.113,-0.53 0.202,-1.149 0.268,-1.807 -0.136,-2.147 -0.264,-4.294 -0.39,-6.441 -0.252,-4.767 -0.56,-9.53 -0.857,-14.294 -0.223,-4.81 -0.722,-9.763 0.652,-14.45 0.344,-1.088 1.18,-3.466 2.366,-3.788 2.196,-0.211 1.298,2.992 1.036,4.249 -0.313,1.383 -0.602,2.771 -0.853,4.167 -0.751,4.008 -1.041,7.957 -1.192,12.26 -0.088,3.497 0.092,6.994 0.227,10.488 0.067,2.104 0.172,4.218 0.085,6.322 0.18,2.965 0.372,5.929 0.597,8.891 0.429,6.491 1.122,13.495 1.955,19.446 0.627,4.431 1.266,8.87 2.401,13.204 2.123,7.92 5.289,15.096 8.445,22.364 3.398,7.527 6.969,14.975 10.462,22.458 -1.787,-7.184 -3.822,-14.311 -6.245,-21.307 -3.14,-8.973 -6.768,-17.786 -9.35,-26.946 -1.156,-4.006 -2.29,-8.027 -3.063,-12.127 -0.572,-3.113 -1.002,-6.247 -1.366,-9.39 -0.44,-2.021 -0.756,-4.068 -0.935,-6.13 -0.111,-1.177 -0.159,-2.358 -0.191,-3.539 -0.01,-0.463 -0.027,-0.925 -0.025,-1.388 -0.013,-0.308 -0.025,-0.758 0.332,-0.879 0.334,-0.165 0.754,0.127 0.743,0.492 0.352,3.988 0.781,7.969 1.237,11.947 0.063,0.272 0.124,0.542 0.193,0.822 1.676,6.342 4.377,12.348 6.826,18.416 3.982,9.709 7.523,19.593 11.001,29.491 0.442,1.194 0.881,2.39 1.369,3.567 0.024,0.057 0.048,0.114 0.072,0.172 0.014,0.029 0.044,0.096 0.068,0.155 0.108,0.246 0.22,0.489 0.342,0.728 0.126,0.371 0.421,0.605 0.723,0.83 0.105,-0.047 0.205,-0.101 0.3,-0.169 0.546,-0.559 0.663,-1.367 0.822,-2.101 0.194,-0.991 0.269,-2.004 0.493,-2.989 0.299,-1.271 0.666,-2.533 1.232,-3.714 0.591,-1.189 1.36,-2.278 2.15,-3.342 3.673,-4.704 7.849,-8.982 11.569,-13.646 2.281,-2.816 4.718,-5.502 6.986,-8.328 1.652,-2.07 3.473,-4.684 5.129,-7.258 2.506,-4.177 4.736,-8.515 6.821,-12.916 2.502,-5.346 4.643,-10.828 6.107,-16.897 1.468,-5.45 2.171,-10.217 2.011,-15.878 -0.08,-4.396 -0.467,-8.782 -0.489,-13.179 0.031,-3.93 0.47,-7.854 1.359,-11.684 1.753,-7.628 5.689,-14.849 8.294,-21.64 1.32,-3.45 2.223,-7.044 2.917,-10.669 0.661,-3.479 1.025,-6.551 0.697,-10.329 -0.174,-2.143 -0.377,-3.752 -1.072,-6.03 -0.919,-2.669 -2.725,-5.555 -4.641,-7.823 -0.802,-0.949 -2.361,-3.305 -4.878,-2.822 0.65,4.023 1.104,8.081 1.377,12.147 0.125,1.976 0.213,3.955 0.263,5.934 -0.014,1.531 0.077,3.071 -0.116,4.594 -0.157,1.219 -0.55,2.409 -1.084,3.513 -0.534,1.239 -2.061,2.429 -3.399,1.659 -2.18,-1.789 -3.246,-10.326 -3.147,-13.214 0.218,-4.801 0.055,-11.065 3.788,-14.616 0.18,-0.162 0.371,-0.307 0.567,-0.443 -0.325,-1.767 -0.683,-3.611 -0.962,-5.349 -0.261,-1.624 -0.572,-3.973 1.329,-4.696 2.437,-0.927 9.103,5.777 12.714,8.803 6.408,5.37 12.624,10.981 18.54,16.89 6.497,6.531 13.366,14.471 20.167,19.79 6.256,4.915 13.087,9.091 18.906,14.552 3.771,3.319 6.627,7.504 9.736,11.416 3.651,4.735 7.064,9.651 10.104,14.802 5.412,9.542 10.012,19.517 15.193,29.185 5.546,10.699 11.083,21.405 16.467,32.187 1.11,2.299 2.297,4.576 3.342,6.898 0.004,0.021 0.001,0.04 0.002,0.061 1.837,3.919 3.748,7.803 5.509,11.757 1.464,3.194 2.803,6.444 4.349,9.599 1.597,3.174 3.296,6.3 5.09,9.367 -0.068,-1.341 -0.54,-2.799 -0.976,-4.267 -0.952,-2.896 -2.006,-5.758 -3.052,-8.621 -1.584,-4.29 -3.037,-8.63 -4.749,-12.872 -1.647,-4.127 -3.596,-8.272 -5.483,-12.651 -2.974,-6.909 -6.162,-13.722 -9.296,-20.56 -1.91,-4.159 -3.693,-8.378 -5.707,-12.49 -1.998,-4.132 -4.338,-8.085 -6.479,-12.142 -0.281,-0.442 -0.042,-1.004 0.509,-0.892 0.311,0.08 0.454,0.405 0.608,0.657 0.283,0.444 0.552,0.898 0.817,1.354 0.686,1.183 1.353,2.376 2.027,3.566 4.426,8.177 9.065,16.236 13.561,24.374 1.386,2.616 2.774,5.231 4.256,7.794 0.997,1.662 2.41,4.399 3.655,4.653 0.427,-0.443 0.503,-0.889 0.644,-1.668 0.171,-2.206 -0.335,-5.144 -0.743,-7.627 -0.53,-3.05 -1.22,-6.07 -1.735,-9.122 -0.715,-4.255 -1.201,-7.811 -1.576,-12.175 -0.369,-4.216 -0.481,-8.449 -0.843,-12.666 -0.551,-6.031 -1.592,-13.715 -3.861,-20.429 -2.274,-6.705 -4.885,-12.489 -8.118,-18.894 -2.639,-5.168 -5.564,-10.198 -7.868,-15.531 -1.246,-3.045 -2.658,-6.048 -3.476,-9.245 -0.641,-2.82 -0.748,-5.731 -1.013,-8.603 -0.296,-6.387 -1.542,-12.441 -3.978,-18.625 -1.422,-3.501 -3.541,-7.629 -5.701,-11.282 -1.571,-2.654 -3.555,-5.342 -5.195,-7.402 -2.108,-2.629 -4.242,-5.249 -6.668,-7.594 -3.289,-2.945 -7.417,-5.501 -11.513,-7.609 -4.226,-2.174 -8.789,-3.025 -19.263,-0.142 -2.726,0.751 -5.105,0.786 -7.393,1.063 -1.462,1.164 -3.058,2.161 -4.654,3.127 -2.015,1.184 -4.104,2.353 -6.412,2.841 -0.921,0.251 -1.965,-0.516 -1.711,-1.511 0.223,-1.039 1.022,-1.845 1.796,-2.523 1.838,-1.272 3.991,-2.123 6.163,-2.631 0.822,-0.216 3.019,-0.507 4.794,-0.724 1.053,-0.724 2.102,-1.452 3.163,-2.164 2.831,-1.918 5.006,-3.457 7.421,-5.583 2.344,-2.207 4.446,-4.65 6.521,-7.107 3.942,-4.883 6.915,-8.502 10.313,-13.486 1.434,-2.103 5.47,-8.357 6.162,-9.31 2.686,-3.69 5.504,-7.284 8.196,-10.97 10.87,-14.832 23.472,-28.711 35.629,-42.991 4.081,-4.757 8.271,-9.421 12.291,-14.23 5.634,-7.081 11.289,-14.145 16.931,-21.22 6.47,-8.322 12.848,-16.66 19.398,-25.05 -1.901,1.551 -3.786,3.121 -5.635,4.735 m -113.405,65.777 c -0.596,-1.583 -1.192,-3.151 -1.788,-4.712 -0.008,0.164 -0.087,0.333 -0.201,0.462 -0.223,0.363 -0.438,0.732 -0.644,1.106 -0.534,0.915 -0.984,1.879 -1.563,2.767 -0.376,0.542 -0.769,1.076 -1.039,1.681 -0.157,0.373 -0.075,0.155 -0.223,0.592 -0.049,0.087 -0.129,0.54 -0.149,0.64 -0.043,0.421 -0.067,0.845 -0.086,1.268 0.368,-0.604 0.764,-1.19 1.223,-1.731 0.583,-0.74 1.313,-1.383 2.255,-1.592 0.737,-0.191 1.493,-0.33 2.254,-0.382 -0.013,-0.033 -0.026,-0.066 -0.039,-0.099 m -4.766,25.603 c 0.031,0.33 0.012,0.189 0.054,0.512 0.156,0.94 0.368,1.55 0.569,1.778 0.174,-0.339 0.287,-1.024 0.34,-1.521 0.213,-1.926 -0.137,-3.85 -0.283,-5.77 -0.248,1.052 -0.593,2.665 -0.599,2.956 -0.094,0.677 -0.142,1.362 -0.081,2.045 m -0.589,-27.417 c -0.908,0.565 -1.472,0.927 -1.85,1.574 -0.45,0.635 -0.135,1.201 0.044,2.561 0.156,1.195 0.188,2.421 -0.076,3.603 -0.215,1.084 -0.681,2.091 -0.978,3.149 -0.217,0.627 -0.097,2.441 0,2.994 0.276,1.67 1.743,3.722 2.359,4.978 0.303,0.557 0.664,1.09 0.844,1.703 0.027,0.1 0.046,0.202 0.066,0.303 0.016,-0.055 0.032,-0.111 0.048,-0.166 0.127,-0.509 0.289,-1.01 0.478,-1.501 -0.016,-0.042 -0.028,-0.081 -0.045,-0.126 -0.021,-0.044 -0.054,-0.114 -0.076,-0.165 -0.35,-0.766 -0.872,-1.434 -1.291,-2.161 -1.885,-3.052 1.33,-4.223 3.884,-4.244 1.334,0.026 2.217,0.147 2.484,-0.244 -0.006,-0.005 -0.01,-0.01 -0.018,-0.018 -0.003,-0.002 -0.004,-0.003 -0.006,-0.005 -0.05,-0.035 -0.1,-0.069 -0.154,-0.096 -0.009,-0.004 -0.015,-0.007 -0.022,-0.01 -0.002,-0.001 -0.004,-0.001 -0.006,-0.002 -0.07,-0.035 -0.348,-0.091 -0.437,-0.11 -0.007,-10e-4 -0.014,-0.002 -0.021,-0.002 -0.75,-0.042 -1.266,0.181 -2.253,0.24 -1.063,0.043 -2.238,-0.171 -3.045,-0.905 -0.327,-0.347 -0.344,-0.832 -0.275,-1.278 0.039,-0.524 0.041,-1.049 0.088,-1.572 0.045,-1.534 0.878,-2.722 2.045,-3.653 0.736,-0.667 1.537,-1.249 2.394,-1.742 -0.597,0.121 -1.189,0.299 -1.618,0.548 -1.072,0.819 -2.245,2.654 -3.086,4.405 -0.005,0.037 -0.009,0.073 -0.015,0.11 0,-0.004 0,-0.006 10e-4,-0.009 -0.019,0.14 -0.06,0.417 -0.093,0.493 -0.071,0.279 -0.336,0.522 -0.637,0.461 -0.623,-0.181 -0.537,-0.73 -0.298,-1.277 0.06,-0.474 0.126,-1.184 0.149,-1.843 0.039,-0.994 0.039,-2.019 0.428,-2.953 0.336,-0.936 0.969,-1.707 1.476,-2.549 0.266,-0.463 0.521,-0.933 0.779,-1.401 -0.42,0.306 -0.841,0.612 -1.267,0.91 m -73.106,58.256 c -1.2,1.343 -2.166,2.635 -2.308,3.636 0.287,-0.142 0.564,-0.302 0.836,-0.471 1.442,-0.803 2.476,-2.143 2.494,-2.523 -0.087,-0.399 -0.463,-0.583 -1.022,-0.642 m -43.172,-14.257 c -0.585,-0.734 -1.281,-1.611 -1.931,-2.285 0.105,1.043 0.209,2.6 0.196,3.874 0.021,1.691 0.168,2.179 0.326,3.478 0.038,0.299 0.03,0.602 -0.011,0.903 0.733,-0.226 1.484,-0.392 2.236,-0.507 1.042,-0.163 2.124,-0.185 3.123,0.154 -1.389,-1.79 -2.867,-4.332 -3.939,-5.617 m -2.568,8.425 c 0.268,0 0.533,-0.002 0.794,-0.008 1.185,-0.525 2.456,-0.805 3.717,-1.077 0.612,-0.137 1.22,-0.291 1.823,-0.463 0.05,-0.014 0.1,-0.031 0.149,-0.049 0.005,-0.005 0.01,-0.011 0.015,-0.016 -0.021,-0.01 -0.04,-0.019 -0.057,-0.026 -0.144,-0.049 -0.54,-0.184 -0.642,-0.199 -1.317,-0.306 -3.348,0.079 -5.048,0.731 -0.029,0.067 -0.059,0.134 -0.09,0.199 -0.19,0.324 -0.416,0.623 -0.661,0.908 m 12.056,6.697 c 0.148,-0.25 0.428,-0.344 0.695,-0.296 -0.191,-0.17 -0.375,-0.345 -0.549,-0.533 -0.646,-0.73 -1.123,-1.587 -1.667,-2.393 -0.171,-0.288 -0.397,-0.581 -0.612,-0.843 0.131,0.504 0.311,1.081 0.481,1.525 0.332,0.887 0.875,2.118 1.502,3.291 0.026,0.043 0.053,0.087 0.08,0.13 -0.062,-0.298 -0.111,-0.623 0.07,-0.881 m 3.691,4.106 c -0.016,0.014 -0.03,0.028 -0.043,0.042 -0.042,0.056 -0.081,0.115 -0.118,0.176 -0.029,0.032 -0.077,0.116 -0.126,0.211 1.076,-0.361 2.385,-0.165 3.312,0.527 1.458,1.068 1.398,3.14 0.789,4.669 -0.373,0.91 -1.288,1.458 -2.182,1.253 0.816,0.841 1.731,1.22 2.18,1.184 1.203,-0.317 2.014,-1.271 2.353,-2.605 0.213,-0.997 -0.386,-2.606 -1.361,-4.012 -0.732,-1.135 -2.718,-2.221 -4.052,-1.78 -0.536,0.15 -0.505,0.15 -0.752,0.335 m -0.836,2.544 c 0.175,0.472 0.368,0.938 0.578,1.391 0.034,0.057 0.068,0.108 0.102,0.16 0.048,-0.405 0.21,-0.794 0.488,-1.093 0.126,-0.184 0.276,-0.349 0.452,-0.482 0.84,-0.524 1.814,0 2.212,0.806 -0.028,-0.385 -0.154,-0.674 -0.202,-0.812 -0.41,-0.792 -1.116,-0.982 -2.109,-1.048 -0.116,-0.048 -0.359,0.077 -0.784,0.218 -0.077,0.048 -0.21,0.127 -0.288,0.171 -0.106,0.1 -0.288,0.307 -0.32,0.34 -0.025,0.037 -0.05,0.079 -0.072,0.117 -0.012,0.08 -0.03,0.158 -0.057,0.232 m 0.63,-3.775 c 0.072,-0.033 0.145,-0.06 0.218,-0.088 -0.775,-0.304 -1.511,-0.706 -2.233,-1.12 0.149,0.477 0.311,0.994 0.388,1.412 0.083,0.435 0.187,0.893 0.307,1.362 0.287,-0.695 0.72,-1.368 1.32,-1.566 M -277,160.954 c -0.788,0.494 -1.975,1.786 -2.475,2.522 -0.808,1.053 -1.167,1.731 -1.514,2.794 -0.339,1.161 -0.332,1.626 -0.471,2.775 -0.035,0.19 -0.046,0.408 -0.067,0.626 2.65,-2.058 6.465,-0.785 9.082,1.402 1.491,1.202 2.744,2.672 4.265,3.841 1.222,1.032 3.489,2.091 5.6,2.369 0.641,0.042 3.11,0.179 4.305,0.626 3.399,1.169 6.281,3.439 9.623,4.751 0.481,0.229 0.963,0.444 1.446,0.652 -1.029,-1.156 -1.908,-2.455 -2.538,-3.868 -1.072,-2.339 -1.521,-4.231 -2.623,-6.261 -0.375,-0.66 -0.835,-1.337 -1.329,-1.958 0.153,0.31 0.288,0.629 0.408,0.952 0.278,0.771 0.516,1.599 0.402,2.424 -0.184,1.179 -0.81,2.338 -1.791,3.038 -0.507,0.345 -1.076,0.682 -1.699,0.731 -0.96,0.007 -1.838,-0.482 -2.537,-1.108 -0.97,-0.814 -1.667,-1.892 -2.248,-3.011 -0.836,-1.086 -1.243,-2.483 -1.783,-3.728 -0.61,-1.641 -0.948,-2.312 -2.007,-3.96 -0.765,-1.407 -1.437,-2.876 -1.944,-4.397 -0.172,-0.534 -0.331,-1.076 -0.404,-1.633 -0.065,-0.409 -0.086,-0.888 0.234,-1.197 0.199,-0.199 0.522,-0.256 0.773,-0.125 0.403,0.208 0.671,0.606 0.965,0.941 0.574,0.719 1.068,1.495 1.559,2.272 0.582,1.005 1.426,1.814 2.228,2.371 0.631,0.449 1.257,0.928 1.968,1.243 0.435,0.202 1.71,0.613 2.52,1.05 0.222,0.121 0.438,0.25 0.652,0.383 0.152,0.045 0.303,0.095 0.452,0.151 0.274,0.108 0.533,0.24 0.781,0.39 -0.546,-0.965 -1.351,-2.129 -1.972,-3.047 -0.919,-1.391 -1.408,-2.209 -2.493,-3.318 -1.023,-1.211 -3.004,-2.333 -4.044,-2.799 -2.08,-0.931 -2.651,-1.009 -2.661,-1.016 -1.003,0.784 -2.31,1.049 -3.552,1.253 -1.544,0.255 -3.1,0.462 -4.666,0.517 -0.082,0.002 -0.165,0 -0.248,0.002 -0.731,0.338 -1.435,0.766 -2.197,1.35 m -5.469,7.193 c 0.078,-0.729 0.184,-1.454 0.39,-2.158 0.222,-0.75 0.547,-1.452 0.945,-2.114 -0.895,1.352 -1.4,3.056 -1.335,4.272 m 24.035,41.784 c 2.136,0.675 4.641,1.318 6.271,1.439 2.684,0.21 4.804,0.064 7.228,-0.665 0.205,-0.045 0.435,-0.173 0.733,-0.355 -2.076,-0.281 -5.047,-0.399 -7.349,-0.838 -1.367,-0.232 -2.712,-0.563 -4.048,-0.933 -1.258,-0.32 -2.201,-0.622 -2.747,-0.279 -0.033,0.03 -0.073,0.067 -0.108,0.104 -0.012,0.026 -0.043,0.08 -0.069,0.123 -0.093,0.378 -0.028,0.836 0.089,1.404 m 58.619,20.276 c -0.105,-1.079 -0.295,-2.306 -0.521,-3.604 -2.156,1.944 -2.791,5.767 -3.048,8.852 -0.175,2.551 -0.35,5.117 -0.148,7.671 0.232,2.825 1.141,8.01 2.406,9.389 0.011,0.006 0.023,0.011 0.035,0.017 0.051,0.016 0.106,0.03 0.134,0.038 0.013,0 0.024,-0.001 0.036,-0.001 0.489,-0.112 0.357,-0.077 0.69,-0.251 0.431,-0.295 0.909,-1.265 1.232,-2.474 0.593,-1.977 0.365,-4.358 0.32,-6.833 -0.17,-4.284 -0.564,-8.555 -1.136,-12.804 m 54.678,-126.421 c 0.069,0.247 0.142,0.508 0.219,0.77 -0.111,-1.053 -0.296,-2.009 -0.451,-3.054 -0.328,-1.935 -0.762,-3.836 -1.287,-5.689 0.297,2.647 0.77,5.151 1.519,7.973 m 31.06,7.401 c -0.176,0.446 -0.111,0.333 -0.147,0.61 -0.018,0.02 -0.016,0.094 -0.009,0.161 -0.002,-0.012 -0.004,-0.024 -0.007,-0.039 10e-4,0.014 0.006,0.027 0.007,0.041 0.011,0.1 0.031,0.181 0.008,0.043 0.007,0.045 0.016,0.089 0.029,0.133 -0.036,0.037 -0.056,0.058 -0.068,0.072 -0.085,0.053 -0.058,0.051 -0.008,0.01 -0.01,0.013 0,0.005 0.024,-0.019 -0.002,0.001 -0.005,0.003 -0.007,0.004 0.02,-0.018 0.041,-0.04 0.059,-0.067 0.001,0.001 0.001,0.002 0.001,0.003 0.04,-0.048 0.083,-0.107 0.098,-0.154 0.204,-0.243 0.258,-0.652 0.387,-1.261 0.006,-0.041 0.01,-0.081 0.015,-0.122 -0.188,0.19 -0.324,0.389 -0.382,0.585 M -91.06,82.343 c 0.092,-0.68 0.168,-1.351 0.219,-2.014 0.034,-3.179 -0.137,-5.569 -1.025,-8.477 -1.698,-5.951 -5.253,-11.477 -10.346,-15.492 -0.388,-0.271 -2.291,-1.719 -3.28,-2.143 -0.98,-0.494 -3.024,-1.185 -4.086,-1.222 -1.921,-0.045 -3.486,0.63 -4.834,1.906 -1.469,1.36 -2.311,2.411 -3.229,4.183 -0.72,1.47 -1.557,4.858 -1.714,6.453 -0.254,1.508 -0.067,4.141 0.069,5.099 0.846,5.208 3.103,9.676 6.611,13.255 2.098,2.048 5.67,3.903 8.245,4.194 3.582,0.448 6.336,-0.457 9.342,-2.367 1.53,-0.991 2.915,-2.044 4.028,-3.375 m -91.063,-40.578 c -3.875,-6.724 -7.611,-13.531 -11.751,-20.098 -2.699,-4.341 -5.575,-8.569 -8.34,-12.867 -3.09,-4.76 -6.776,-10.458 -9.827,-14.51 -1.657,-2.214 -3.602,-4.188 -5.639,-6.053 -0.079,-0.08 -0.167,-0.151 -0.255,-0.221 -0.062,-0.041 -0.127,-0.076 -0.194,-0.106 l -0.089,-0.024 c -0.007,0.027 -0.014,0.054 -0.021,0.08 -0.009,0.063 -0.016,0.143 -0.007,0.2 -0.053,0.308 0.147,1.026 0.332,1.676 2.61,7.384 7.255,14.508 11.561,21.502 5.099,8.28 10.314,16.498 16.223,24.23 4.545,6.037 9.474,12.256 14.714,18.221 -2.149,-4.057 -4.381,-8.069 -6.707,-12.03 M 2.038,0.673 c -9.075,15.325 -18.479,23.383 -24.625,28.466 -1.806,1.494 -3.632,2.965 -5.46,4.433 -2.032,2.578 -4.024,5.142 -5.951,7.69 -5.627,7.232 -10.977,14.092 -16.366,21.074 -6.312,7.859 -12.565,15.768 -18.95,23.567 -4.24,4.96 -8.602,9.816 -12.85,14.77 -10.675,12.456 -21.641,25.277 -31.563,37.746 -6.806,8.552 -15.357,21.642 -16.578,23.515 -2.436,3.74 -4.755,6.597 -7.357,9.937 -2.917,3.659 -5.862,7.319 -9.244,10.562 -2.763,2.478 -5.816,4.581 -8.9,6.642 2.396,-0.384 4.652,-0.818 5.995,-1.225 16.301,-4.935 26.93,5.999 30.402,9.104 3.483,3.522 6.571,7.424 9.46,11.442 1.958,2.771 3.628,5.734 5.159,8.759 2.913,5.552 5.08,11.527 6.106,17.723 1.009,5.768 0.629,11.496 1.971,16.47 2.54,7.908 6.565,15.141 10.605,22.715 2.522,4.802 4.779,9.736 6.831,14.756 1.743,4.305 3.136,8.744 4.107,13.287 0.574,2.927 0.981,5.882 1.363,8.839 0.738,5.723 0.758,11.502 1.238,17.248 0.359,4.391 0.866,8.12 1.563,12.284 0.563,3.349 1.315,6.664 1.804,10.026 0.283,2.131 0.638,4.297 0.441,6.448 -0.278,1.817 -1.245,3.671 -3.269,1.606 -1.299,-1.29 -2.098,-2.968 -3.035,-4.519 -1.515,-2.642 -2.931,-5.338 -4.356,-8.028 -1.704,-3.072 -3.422,-6.136 -5.14,-9.2 2.386,5.226 4.751,10.461 7.168,15.672 2.823,6.257 5.533,12.564 8.313,18.84 2.541,5.968 4.561,12.135 6.802,18.218 0.877,2.639 5.369,13.613 2.119,12.664 -0.664,-0.483 -0.957,-1.345 -1.402,-2.017 -0.668,-1.169 -1.315,-2.351 -1.961,-3.533 -2.746,-4.849 -4.878,-9.996 -7.159,-15.071 -1.482,-3.306 -3.046,-6.574 -4.604,-9.844 -0.61,-1.332 -1.291,-2.655 -1.833,-4.01 -0.002,-0.01 -0.001,-0.022 -0.002,-0.032 -0.065,-0.13 -0.13,-0.26 -0.194,-0.391 -6.828,-13.755 -14.06,-27.306 -21.14,-40.932 -3.775,-7.2 -7.268,-14.549 -11.175,-21.68 -3.174,-5.915 -7.777,-12.464 -11.499,-17.302 -2.381,-3.04 -4.679,-6.156 -7.283,-9.011 -2.251,-2.354 -5.782,-5.258 -7.834,-6.941 -5.731,-4.304 -11.79,-8.196 -17.13,-12.999 -5.995,-5.367 -11.266,-11.471 -16.962,-17.144 -6.141,-6.073 -12.575,-11.852 -19.225,-17.362 -3.009,-2.524 -9.969,-8.889 -10.61,-6.823 -0.192,1.572 0.654,4.681 1.141,7.352 4.312,-1.59 10.026,7.249 11.439,13.245 0.599,2.539 0.769,5.172 0.774,7.779 -0.057,2.761 -0.467,5.5 -1.002,8.204 -0.617,3.049 -1.362,6.081 -2.424,9.008 -1.192,3.318 -2.692,6.514 -4.066,9.759 -2.171,4.852 -4.058,9.676 -5.081,15.22 -0.563,3.068 -0.817,6.025 -0.835,9.465 0.046,3.372 0.291,6.738 0.407,10.108 0.316,5.832 -0.086,11.709 -1.62,17.359 -2.295,10.117 -6.701,19.607 -11.746,28.624 -3.196,5.747 -7.331,10.885 -11.677,15.795 -2.325,2.676 -4.491,5.488 -6.893,8.097 -1.602,1.771 -3.178,3.566 -4.722,5.389 -1.4,1.64 -2.683,3.126 -3.806,4.925 -0.978,1.503 -1.477,3.153 -1.867,4.905 -0.436,2.005 -0.264,5.555 -2.653,5.763 -0.797,-0.042 -1.153,-0.838 -1.47,-1.468 -0.397,-0.817 -0.731,-1.663 -1.062,-2.508 -1.084,-2.773 -2.05,-5.589 -3.027,-8.401 -2.736,-7.481 -5.449,-14.974 -8.453,-22.353 -1.86,-4.6 -3.83,-9.16 -5.483,-13.839 0.236,1.429 0.511,2.906 0.849,4.48 1.546,6.565 3.427,13.058 5.648,19.427 3.566,10.03 7.484,19.947 10.244,30.243 1.08,4.088 2.273,8.159 3.124,12.302 0.033,0.215 0.006,0.466 -0.153,0.627 -0.19,0.198 -0.538,0.201 -0.728,0 -0.429,-0.443 -0.583,-1.095 -0.883,-1.628 -0.717,-1.51 -1.43,-3.021 -2.136,-4.537 -5.87,-12.649 -12.221,-25.141 -16.708,-38.373 -2.109,-6.281 -3.078,-12.845 -3.97,-19.388 -0.97,-7.397 -1.588,-14.831 -2.087,-22.274 -0.846,0.63 -1.469,-0.474 -1.602,-1.258 -1.573,-6.024 -2.435,-12.241 -2.659,-18.461 -0.096,-6.655 0.247,-13.309 0.58,-19.954 0.04,-1.267 0.311,-2.486 0.867,-3.61 -0.525,0.828 -1.122,1.61 -1.748,2.363 -0.645,0.802 -1.923,1.948 -2.779,0.775 -0.312,-0.935 -0.153,-1.966 -0.205,-2.939 -0.002,-1.821 0.061,-3.641 0.116,-5.46 0.689,-22.738 16.984,-36.593 20.959,-48.815 0.687,-2.115 0.933,-3.856 1.107,-5.757 0.295,-4.081 0.216,-7.521 -1.2,-11.327 -0.679,-1.682 -1.301,-3.392 -1.672,-5.17 -1.972,-0.671 -3.891,-1.5 -5.734,-2.453 -1.427,-0.741 -2.871,-1.462 -4.221,-2.338 -2.029,-1.345 -3.909,-2.913 -5.643,-4.619 -3.24,-3.153 -5.982,-6.888 -7.586,-11.139 -0.538,-1.487 -1.026,-3.01 -1.254,-4.579 -0.345,-2.457 -0.279,-4.95 -0.263,-7.425 0.1,-2.355 0.032,-4.884 1.136,-7.028 0.105,-0.169 0.216,-0.326 0.328,-0.476 -0.31,-0.13 -0.523,-0.496 -0.593,-0.845 -0.177,-0.621 -0.302,-1.259 -0.315,-1.906 -0.029,-1.977 0.831,-3.874 2.008,-5.426 0.891,-1.124 1.959,-2.095 2.99,-3.091 -0.046,-0.016 -0.092,-0.031 -0.137,-0.05 -0.924,-0.544 -0.081,-1.495 0.545,-1.874 0.649,-0.451 1.35,-0.82 2.079,-1.124 0.356,-0.976 -0.014,-2.02 -0.095,-3.322 -0.104,-1.596 0.046,-3.201 -0.123,-4.795 0.023,-0.622 -0.44,-1.683 0.337,-1.961 0.474,-0.129 0.849,0.294 1.158,0.591 0.125,0.126 0.246,0.256 0.367,0.385 0.111,-0.165 0.325,-0.257 0.522,-0.198 0.438,0.216 0.742,0.647 1.113,0.959 0.731,0.736 1.491,1.443 2.25,2.15 1.165,1.031 2.462,2.309 3.416,2.958 2.899,1.887 5.681,2.82 9.189,3.295 1.759,0.328 3.501,0.753 5.241,1.182 4.362,1.075 12.698,5.505 16.282,6.057 1.019,0.157 4.553,-0.476 5.669,-0.754 0.52,-0.567 1.05,-1.123 1.551,-1.696 2.192,-2.511 4.705,-4.699 7.408,-6.644 4.488,-3.272 9.039,-5.648 13.921,-7.595 1.981,-0.852 4.178,-1.6 6.328,-2.324 5.099,-2.085 10.221,-4.111 15.544,-5.57 4.553,-1.302 9.228,-2.19 13.708,-3.746 2.206,-0.766 10.265,-4.86 11.607,-5.41 -0.002,-0.004 -0.001,-0.009 -0.003,-0.012 0.359,-0.156 0.717,-0.313 1.079,-0.461 0.598,-0.241 1.193,-0.487 1.795,-0.717 0.018,-0.005 0.036,-0.012 0.054,-0.018 0.252,-0.93 0.2,-1.656 -0.23,-2.407 -0.588,-0.894 -1.083,-1.842 -1.625,-2.764 -0.719,-1.239 -1.403,-2.563 -1.547,-4.009 -0.06,-0.972 -0.191,-1.966 0.024,-2.927 0.305,-1.251 0.878,-2.429 1.06,-3.714 0.056,-0.117 0.108,-1.213 0.067,-1.833 -0.004,-0.14 -0.047,-0.655 -0.051,-0.741 -0.08,-0.679 -0.249,-1.349 -0.278,-2.032 0.03,-1.511 1.395,-2.489 2.583,-3.177 0.765,-0.508 1.506,-1.052 2.247,-1.594 0.482,-0.353 0.511,-0.388 0.888,-0.685 0.205,-0.225 0.549,-0.405 0.818,-0.172 0.023,0.016 0.039,0.036 0.058,0.054 -3.598,-9.406 -7.23,-18.46 -11.334,-27.56 -2.566,-5.747 -5.272,-11.432 -8.134,-17.036 -2.134,-2.373 -4.246,-4.767 -6.301,-7.21 -9.544,-11.377 -18.394,-23.347 -26.077,-36.063 -3,-4.83 -6.055,-9.631 -8.812,-14.606 -1.275,-2.33 -2.518,-4.684 -3.533,-7.14 -0.541,-1.343 -1.158,-2.669 -1.442,-4.096 -0.147,-0.719 -0.206,-1.57 0.318,-2.146 0.553,-0.429 1.379,-0.133 1.862,0.28 2.149,1.896 4.186,3.931 5.93,6.211 3.664,4.776 6.895,9.867 10.195,14.897 3.197,4.937 6.493,9.81 9.565,14.827 3.851,6.292 7.414,12.752 11.103,19.139 2.99,5.116 5.785,10.276 8.433,15.481 5.31,5.884 10.779,11.63 15.722,17.832 2.586,3.284 5.066,6.682 7.002,10.397 0.266,0.538 0.52,1.081 0.767,1.628 -0.056,-0.874 -0.109,-1.747 -0.152,-2.621 -0.067,-1.262 -0.097,-2.541 0.214,-3.776 0.202,-0.871 0.851,-1.699 1.831,-1.574 0.559,0.071 1.022,0.462 1.455,0.795 0.695,0.589 1.31,1.267 1.9,1.959 1.697,2.088 3.186,4.336 4.688,6.564 2.314,3.373 4.279,6.968 5.915,10.713 -0.035,-0.833 -0.066,-1.667 -0.089,-2.5 0.049,-1.5 -0.215,-3.121 0.314,-4.551 0.864,-1.656 2.484,-0.422 3.424,0.459 1.919,1.825 3.169,3.968 4.702,5.708 1.715,1.972 3.96,2.516 6.456,3.644 2.119,1.082 3.898,2.865 4.86,5.052 0.131,0.285 0.237,0.58 0.317,0.882 1.029,-0.417 2.124,-0.682 3.198,-0.949 0.802,-0.205 1.578,-0.493 2.339,-0.816 1.372,-0.581 7.012,-3.396 10.076,-8.149 2.225,-3.451 3.7,-6.461 4.791,-10.383 0.296,-1.278 0.557,-2.506 0.774,-3.7 -0.326,0.301 -0.668,0.588 -1.032,0.855 -5.195,4.214 -11.395,5.586 -17.382,2.078 -5.64,-3.087 -9.156,-9.5 -10.403,-15.65 -0.611,-3.318 -0.398,-6.749 0.531,-9.988 0.545,-2.192 1.487,-4.274 2.988,-5.981 1.838,-2.206 4.054,-3.874 7.049,-3.809 2.441,0.194 4.801,1.199 6.79,2.602 2.015,1.366 3.883,2.961 5.46,4.819 4.978,5.653 8.155,13.206 7.808,20.788 1.273,-2.355 2.27,-5.352 2.588,-7.584 0.559,-5.021 -0.225,-9.211 -1.324,-14.038 -0.484,-1.98 -1.22,-3.886 -1.985,-5.772 -0.88,-2.261 -1.976,-4.769 -3.272,-7.259 -0.276,-0.432 0.265,-0.994 0.714,-0.713 0.156,0.084 0.219,0.255 0.305,0.4 0.209,0.376 0.408,0.757 0.608,1.137 0.502,0.982 0.99,1.971 1.437,2.979 1.171,2.641 2.324,5.305 3.139,8.082 0.454,1.605 0.747,3.248 1.061,4.885 0.841,4.368 1.151,9.015 -0.124,13.328 -0.778,2.509 -1.812,5.038 -3.407,7.131 -0.342,2.21 -0.728,4.419 -1.339,6.572 -0.595,1.942 -1.425,3.809 -2.295,5.641 -0.736,1.543 -1.677,2.979 -2.598,4.417 -2.407,3.758 -6.005,6.659 -10.585,8.745 -1.826,0.832 -3.875,0.947 -5.71,1.741 -0.003,10e-4 -0.005,0.002 -0.008,0.003 0.014,0.853 -0.15,1.711 -0.481,2.493 -0.31,0.656 -0.929,1.444 -1.74,1.209 -0.512,-0.153 -0.745,-0.683 -0.875,-1.16 -0.221,-1.202 0.367,-2.505 1.385,-3.171 0.099,-0.066 0.202,-0.123 0.304,-0.183 -0.183,-0.781 -0.574,-1.583 -1.197,-2.506 -0.681,-0.976 -1.814,-2.041 -2.967,-2.697 -1.268,-0.714 -2.005,-0.887 -3.405,-1.524 -1.454,-0.644 -2.816,-1.597 -3.833,-2.827 -1.876,-2.225 -2.913,-4.3 -5.09,-6.054 -0.024,-0.018 -0.051,-0.039 -0.08,-0.061 -0.178,-0.131 -0.36,-0.26 -0.561,-0.352 -0.036,-0.012 -0.09,-0.028 -0.144,-0.041 l -0.025,-10e-4 c -0.053,0.012 -0.1,0.019 -0.11,0.015 -0.411,0.318 -0.369,2.197 -0.35,3.766 0.054,1.87 0.092,3.906 0.181,5.874 0.759,1.994 1.355,4.056 1.592,6.182 0.076,0.65 0.125,1.355 -0.168,1.959 -0.34,0.513 -1.019,0.382 -1.264,-0.16 -0.364,-0.634 -0.448,-1.369 -0.588,-2.074 -0.194,-0.973 -0.315,-1.957 -0.407,-2.944 -0.075,-0.912 -0.136,-1.825 -0.192,-2.739 -0.975,-2.51 -2.439,-5.666 -3.95,-8.378 -1.546,-2.669 -3.251,-5.244 -5.021,-7.771 -1.761,-2.611 -5.311,-7.27 -5.787,-5.501 -0.572,1.711 -0.279,3.565 -0.209,5.648 0.077,1.313 0.155,2.626 0.245,3.939 1.57,4.141 2.631,8.476 3.117,12.879 0.023,0.903 0.811,4.237 -0.762,3.688 -0.434,-0.223 -0.553,-0.76 -0.727,-1.178 -0.279,-0.755 -0.495,-1.529 -0.707,-2.305 -1.127,-4.084 -1.64,-8.293 -1.961,-12.508 -0.626,-1.65 -1.322,-3.248 -2.082,-4.778 -3.467,-6.453 -7.823,-11.429 -12.606,-16.959 -2.326,-2.617 -4.69,-5.201 -7.047,-7.792 6.115,12.434 11.424,25.133 16.407,38.138 2.068,5.416 4.015,10.877 6.225,16.238 1.23,2.918 1.954,5.335 3.606,8.049 1.534,2.994 3.581,2.502 6.135,1.964 2.936,-0.618 5.77,-1.6 8.566,-2.676 4.649,-1.492 8.713,-5.349 13.361,-7.739 1.827,-0.938 3.674,-0.767 2.918,1.698 -0.546,1.746 -1.212,3.453 -1.826,5.176 -1.574,4.454 -3.287,8.856 -4.876,13.304 -0.779,2.277 -1.503,4.85 -1.569,6.861 -10e-4,0.13 0.005,0.259 0.019,0.388 -0.009,-0.211 -0.014,-0.105 -0.001,0.016 0.071,-0.115 0.144,-0.257 0.282,-0.504 0.63,-1.204 0.978,-2.126 1.376,-3.088 1.561,-3.978 2.797,-8.071 4.003,-12.167 0.793,-2.772 1.726,-5.499 2.592,-8.248 0.689,-2.08 1.257,-4.319 2.816,-5.944 2.221,-2.413 4.988,-4.226 7.404,-6.427 4.406,-4.001 8.708,-8.146 12.655,-12.604 5.918,-6.832 11.042,-14.324 17.253,-20.906 4.503,-4.925 9.366,-9.502 14.193,-14.105 4.371,-4.169 8.643,-8.441 13.021,-12.603 5.225,-5.272 11.002,-9.933 16.787,-14.573 3.353,-4.252 6.763,-8.52 10.267,-12.808 3.134,-3.885 6.131,-7.878 9.277,-11.754 2.458,-2.977 4.968,-5.977 8.061,-8.318 0.729,-0.473 1.497,-0.999 2.381,-1.074 1.485,0.082 1.151,1.606 0.588,2.604" /></g></g></g></g></svg>